SplineFontDB: 3.0
FontName: UnderwoodChampion
FullName: Underwood Champion
FamilyName: Underwood Champion
Weight: Book
Copyright: 2008 Vic Fieger
Version: Jan. 2008
ItalicAngle: 0
UnderlinePosition: -292
UnderlineWidth: 150
Ascent: 1638
Descent: 410
InvalidEm: 0
sfntRevision: 0x00010000
LayerCount: 2
Layer: 0 1 "Back" 1
Layer: 1 1 "Fore" 0
XUID: [1021 959 -779078987 7672441]
StyleMap: 0x0040
FSType: 8
OS2Version: 1
OS2_WeightWidthSlopeOnly: 0
OS2_UseTypoMetrics: 0
CreationTime: 1200760319
ModificationTime: 1512098301
PfmFamily: 17
TTFWeight: 400
TTFWidth: 5
LineGap: 67
VLineGap: 0
Panose: 2 0 0 0 0 0 0 0 0 0
OS2TypoAscent: 1491
OS2TypoAOffset: 0
OS2TypoDescent: -431
OS2TypoDOffset: 0
OS2TypoLinegap: 307
OS2WinAscent: 1854
OS2WinAOffset: 0
OS2WinDescent: 434
OS2WinDOffset: 0
HheadAscent: 1854
HheadAOffset: 0
HheadDescent: -434
HheadDOffset: 0
OS2SubXSize: 1434
OS2SubYSize: 1331
OS2SubXOff: 0
OS2SubYOff: 283
OS2SupXSize: 1434
OS2SupYSize: 1331
OS2SupXOff: 0
OS2SupYOff: 977
OS2StrikeYSize: 102
OS2StrikeYPos: 530
OS2Vendor: 'HL  '
OS2CodePages: 6000019f.dff70000
OS2UnicodeRanges: a00002af.500078fb.00000000.00000000
DEI: 91125
ShortTable: maxp 16
  1
  0
  245
  136
  4
  140
  4
  2
  16
  47
  66
  0
  1036
  0
  2
  1
EndShort
LangName: 1033 "" "" "Regular" "Underwood Champion" "" "Jan. 2008" "" "2008 Vic Fieger" "" "" "This font was created using Font Creator 5.0 from High-Logic.com"
LangName: 1027 "" "" "Normal"
LangName: 1029 "" "" "oby+AQ0A-ejn+AOkA"
LangName: 1030 "" "" "normal"
LangName: 1031 "" "" "Standard"
LangName: 1032 "" "" "+A5oDsQO9A78DvQO5A7oDrAAA"
LangName: 1034 "" "" "Normal"
LangName: 1035 "" "" "Normaali"
LangName: 1036 "" "" "Normal"
LangName: 1038 "" "" "Norm+AOEA-l"
LangName: 1040 "" "" "Normale"
LangName: 1043 "" "" "Standaard"
LangName: 1044 "" "" "Normal"
LangName: 1045 "" "" "Normalny"
LangName: 1046 "" "" "Normal"
LangName: 1049 "" "" "+BB4EMQRLBEcEPQRLBDkA"
LangName: 1051 "" "" "Norm+AOEA-lne"
LangName: 1053 "" "" "Normal"

StartChar: .notdef
Encoding: 65536 -1 0
Width: 1536
Flags: W
LayerCount: 2
Fore
SplineSet
256 0 m 1,0,-1
 256 1280 l 1,1,-1
 1280 1280 l 1,2,-1
 1280 0 l 1,3,-1
 256 0 l 1,0,-1
288 32 m 1,4,-1
 1248 32 l 1,5,-1
 1248 1248 l 1,6,-1
 288 1248 l 1,7,-1
 288 32 l 1,4,-1
EndSplineSet
EndChar

StartChar: exclam
Encoding: 33 33 4
Width: 1200
Flags: W
LayerCount: 2
Fore
SplineSet
571 1547 m 1,0,-1
 727 1464 l 1,1,2
 807 1438 807 1438 807 1395 c 2,3,-1
 807 1348 l 1,4,5
 765 1237 765 1237 744 1004 c 1,6,-1
 728 941 l 1,7,8
 728 877 728 877 667 741 c 1,9,-1
 698 663 l 1,10,11
 698 601 698 601 614 541 c 1,12,-1
 535 591 l 1,13,14
 509 669 509 669 486 778 c 1,15,-1
 506 854 l 1,16,-1
 459 995 l 1,17,-1
 459 1198 l 1,18,-1
 427 1292 l 1,19,-1
 427 1417 l 2,20,21
 429 1547 429 1547 571 1547 c 1,0,-1
425 165 m 1,23,-1
 472 281 l 1,24,25
 573 382 573 382 655 342 c 2,26,-1
 664 338 l 1,27,28
 800 273 800 273 790 83 c 1,29,-1
 770 39 l 1,30,31
 660 -31 660 -31 600 -31 c 1,32,-1
 517 -10 l 1,33,22
 491 52 491 52 425 165 c 1,23,-1
EndSplineSet
EndChar

StartChar: quotedbl
Encoding: 34 34 5
Width: 1201
Flags: W
LayerCount: 2
Fore
SplineSet
799 1576 m 1,0,-1
 902 1502 l 1,1,2
 963 1482 963 1482 963 1449 c 2,3,-1
 963 1413 l 1,4,5
 890 1328 890 1328 890 1178 c 1,6,-1
 878 1130 l 1,7,8
 878 1081 878 1081 895 989 c 1,9,-1
 919 929 l 1,10,11
 919 881 919 881 816 794 c 1,12,-1
 756 832 l 1,13,14
 736 892 736 892 719 976 c 1,15,-1
 734 1034 l 1,16,-1
 698 1142 l 1,17,-1
 698 1298 l 1,18,-1
 674 1370 l 1,19,-1
 674 1466 l 1,20,21
 691 1576 691 1576 799 1576 c 1,0,-1
307 1591 m 1,22,-1
 319 1591 l 1,23,24
 383 1546 383 1546 555 1516 c 1,25,-1
 567 1504 l 1,26,-1
 567 1468 l 1,27,28
 529 1380 529 1380 473 1338 c 1,29,-1
 461 1290 l 1,30,-1
 461 1074 l 1,31,-1
 485 1074 l 1,32,-1
 443 1054 l 1,33,-1
 453 1028 l 1,34,-1
 465 1028 l 1,35,-1
 501 992 l 1,36,-1
 501 980 l 1,37,-1
 465 944 l 1,38,-1
 457 885 l 1,39,-1
 423 832 l 1,40,-1
 363 796 l 1,41,42
 255 796 255 796 255 1012 c 1,43,-1
 219 1132 l 1,44,45
 223 1160 223 1160 291 1216 c 1,46,-1
 315 1264 l 1,47,48
 255 1432 255 1432 255 1516 c 1,49,-1
 259 1543 l 1,50,-1
 307 1591 l 1,22,-1
EndSplineSet
EndChar

StartChar: numbersign
Encoding: 35 35 6
Width: 1201
Flags: W
LayerCount: 2
Fore
SplineSet
1044 1616 m 1,0,-1
 1068 1617 l 1,1,2
 1116 1599 1116 1599 1116 1535 c 1,3,4
 1037 1413 1037 1413 1008 1218 c 1,5,6
 990 1178 990 1178 933 1099 c 1,7,-1
 933 1051 l 1,8,-1
 993 1042 l 1,9,-1
 1039 1052 l 1,10,11
 1133 1057 1133 1057 1183 999 c 1,12,-1
 1183 963 l 2,13,14
 1183 924 1183 924 1039 896 c 1,15,-1
 894 902 l 1,16,-1
 892 846 l 1,17,-1
 813 626 l 1,18,19
 896 639 896 639 980 624 c 1,20,-1
 1092 571 l 1,21,-1
 1092 559 l 2,22,23
 1092 527 1092 527 993 478 c 1,24,-1
 849 496 l 1,25,26
 780 492 780 492 736 293 c 1,27,28
 633 184 633 184 679 109 c 1,29,30
 659 108 659 108 643 -72 c 1,31,32
 599 -111 599 -111 559 -112 c 0,33,34
 487 -116 487 -116 521 29 c 1,35,-1
 521 125 l 1,36,37
 547 210 547 210 568 311 c 1,38,-1
 609 424 l 1,39,-1
 635 482 l 1,40,41
 556 488 556 488 504 478 c 1,42,43
 419 512 419 512 357 495 c 1,44,-1
 319 371 l 1,45,46
 352 299 352 299 240 62 c 1,47,-1
 252 15 l 1,48,-1
 216 -100 l 1,49,-1
 204 -113 l 1,50,-1
 144 -116 l 1,51,52
 96 -98 96 -98 96 -34 c 2,53,-1
 96 -10 l 1,54,55
 124 322 124 322 182 325 c 1,56,-1
 230 495 l 1,57,-1
 206 494 l 1,58,59
 9 481 9 481 9 565 c 0,60,61
 9 601 9 601 81 640 c 1,62,63
 177 625 177 625 252 620 c 1,64,65
 264 788 264 788 345 893 c 1,66,67
 292 904 292 904 114 856 c 1,68,-1
 60 957 l 1,69,-1
 139 1013 l 1,70,71
 189 1029 189 1029 414 1027 c 1,72,-1
 426 1040 l 1,73,-1
 426 1160 l 1,74,-1
 618 1481 l 1,75,-1
 642 1482 l 1,76,-1
 666 1459 l 1,77,-1
 666 1435 l 1,78,79
 587 1144 587 1144 510 1116 c 1,80,-1
 498 1103 l 1,81,-1
 498 1091 l 1,82,83
 514 984 514 984 606 988 c 1,84,-1
 784 1019 l 1,85,-1
 813 1154 l 1,86,87
 852 1156 852 1156 876 1332 c 1,88,89
 948 1359 948 1359 948 1395 c 1,90,-1
 936 1491 l 2,91,92
 936 1523 936 1523 1044 1616 c 1,0,-1
431 900 m 1,93,-1
 360 649 l 1,94,95
 475 636 475 636 679 622 c 1,96,97
 711 727 711 727 741 827 c 1,98,-1
 741 863 l 1,99,-1
 705 897 l 1,100,-1
 597 892 l 1,101,-1
 431 900 l 1,93,-1
EndSplineSet
EndChar

StartChar: dollar
Encoding: 36 36 7
Width: 1201
Flags: W
LayerCount: 2
Fore
SplineSet
174 1114 m 1,0,1
 245 934 245 934 342 934 c 1,2,-1
 378 982 l 1,3,-1
 366 1066 l 1,4,-1
 366 1198 l 2,5,6
 366 1263 366 1263 318 1282 c 1,7,-1
 306 1282 l 2,8,9
 215 1282 215 1282 174 1114 c 1,0,1
474 646 m 1,10,-1
 510 514 l 1,11,-1
 498 262 l 2,12,13
 498 178 498 178 582 178 c 2,14,-1
 606 178 l 1,15,-1
 658 167 l 1,16,-1
 642 250 l 1,17,-1
 642 286 l 1,18,-1
 654 387 l 1,19,-1
 642 518 l 1,20,-1
 650 689 l 1,21,-1
 700 728 l 1,22,23
 777 682 777 682 733 577 c 1,24,-1
 765 229 l 1,25,-1
 817 234 l 1,26,27
 897 276 897 276 995 445 c 1,28,29
 918 754 918 754 786 754 c 0,30,31
 747 754 747 754 696 780 c 1,32,-1
 470 813 l 1,33,34
 474 772 474 772 474 646 c 1,10,-1
617 1459 m 1,35,-1
 633 1566 l 1,36,-1
 633 1607 l 1,37,-1
 657 1672 l 1,38,-1
 693 1672 l 2,39,40
 720 1672 720 1672 725 1581 c 1,41,42
 700 1504 700 1504 742 1506 c 2,43,-1
 787 1511 l 1,44,45
 775 1497 775 1497 773 1480 c 1,46,47
 949 1400 949 1400 1050 1258 c 1,48,-1
 1050 1234 l 1,49,50
 970 1138 970 1138 894 1138 c 1,51,52
 870 1245 870 1245 799 1304 c 1,53,-1
 784 1379 l 1,54,-1
 714 1352 l 1,55,-1
 750 1114 l 1,56,-1
 750 1102 l 1,57,-1
 742 897 l 1,58,59
 726 850 726 850 882 850 c 1,60,61
 1011 803 1011 803 1136 510 c 1,62,-1
 1136 462 l 1,63,64
 1085 227 1085 227 1002 166 c 1,65,66
 786 81 786 81 786 -14 c 2,67,-1
 786 -182 l 1,68,-1
 738 -230 l 1,69,-1
 702 -230 l 2,70,71
 666 -230 666 -230 654 10 c 1,72,-1
 582 34 l 1,73,74
 498 34 498 34 498 -38 c 1,75,-1
 510 -206 l 1,76,-1
 462 -242 l 1,77,-1
 402 -242 l 1,78,-1
 354 -194 l 1,79,-1
 402 -50 l 1,80,81
 402 5 402 5 383 49 c 1,82,83
 96 144 96 144 55 318 c 1,84,-1
 41 455 l 1,85,86
 65 533 65 533 138 553 c 1,87,88
 230 537 230 537 243 424 c 1,89,90
 230 247 230 247 388 218 c 1,91,-1
 390 394 l 1,92,-1
 402 454 l 1,93,94
 330 478 330 478 366 610 c 1,95,-1
 354 838 l 1,96,97
 102 866 102 866 102 1078 c 1,98,99
 78 1078 78 1078 78 1174 c 0,100,101
 78 1248 78 1248 378 1498 c 1,102,-1
 390 1498 l 1,103,104
 462 1470 462 1470 462 1450 c 1,105,-1
 522 1462 l 1,106,-1
 570 1462 l 1,107,-1
 570 1438 l 1,108,109
 462 1380 462 1380 462 1270 c 1,110,-1
 474 1126 l 1,111,-1
 462 1006 l 1,112,113
 494 926 494 926 534 910 c 1,114,-1
 658 902 l 1,115,116
 654 990 654 990 654 1078 c 2,117,-1
 654 1114 l 1,118,-1
 642 1270 l 1,119,-1
 654 1342 l 1,120,-1
 606 1438 l 1,121,-1
 606 1450 l 1,122,-1
 617 1459 l 1,35,-1
EndSplineSet
EndChar

StartChar: percent
Encoding: 37 37 8
Width: 1201
Flags: W
LayerCount: 2
Fore
SplineSet
1003 1485 m 1,0,1
 1032 1485 1032 1485 1061 1428 c 1,2,3
 1061 1410 1061 1410 984 1341 c 1,4,5
 984 1255 984 1255 936 1255 c 1,6,-1
 936 1207 l 1,7,-1
 898 1101 l 1,8,-1
 907 1063 l 1,9,10
 894 1015 894 1015 840 1015 c 2,11,-1
 773 1015 l 2,12,13
 756 1015 756 1015 734 1101 c 1,14,-1
 802 1178 l 1,15,16
 792 1217 792 1217 744 1217 c 1,17,18
 599 1171 599 1171 571 1130 c 1,19,20
 670 1005 670 1005 734 1005 c 1,21,-1
 773 871 l 1,22,-1
 686 717 l 1,23,-1
 686 679 l 2,24,25
 686 650 686 650 859 631 c 1,26,-1
 917 650 l 1,27,-1
 926 650 l 1,28,29
 1047 571 1047 571 1109 487 c 1,30,31
 1176 473 1176 473 1176 420 c 0,32,33
 1176 353 1176 353 1090 343 c 1,34,-1
 1003 237 l 1,35,36
 1003 132 1003 132 936 132 c 1,37,38
 936 106 936 106 802 93 c 1,39,-1
 667 93 l 2,40,41
 528 93 528 93 485 209 c 1,42,-1
 466 228 l 1,43,44
 393 228 393 228 322 -12 c 1,45,46
 225 -127 225 -127 158 -127 c 2,47,-1
 120 -127 l 1,48,49
 72 -102 72 -102 72 -50 c 1,50,51
 122 107 122 107 226 247 c 1,52,53
 394 631 394 631 466 631 c 1,54,55
 523 710 523 710 523 746 c 2,56,-1
 523 756 l 1,57,-1
 504 775 l 1,58,-1
 475 775 l 1,59,60
 404 717 404 717 370 717 c 2,61,-1
 322 717 l 1,62,-1
 168 708 l 2,63,64
 110 708 110 708 24 900 c 1,65,-1
 24 909 l 1,66,-1
 91 1092 l 1,67,68
 91 1210 91 1210 446 1245 c 1,69,70
 552 1245 552 1245 821 1361 c 1,71,-1
 821 1370 l 1,72,-1
 811 1428 l 2,73,74
 811 1451 811 1451 1003 1485 c 1,0,1
254 1034 m 2,75,-1
 254 1015 l 1,76,77
 164 938 164 938 120 938 c 1,78,-1
 101 900 l 1,79,80
 101 849 101 849 226 813 c 1,81,-1
 283 833 l 1,82,-1
 322 823 l 1,83,84
 354 823 354 823 494 929 c 1,85,86
 581 955 581 955 581 977 c 2,87,-1
 581 996 l 2,88,89
 581 1028 581 1028 446 1063 c 1,90,91
 411 1130 411 1130 360 1130 c 1,92,93
 254 1108 254 1108 254 1034 c 2,75,-1
619 957 m 1,94,-1
 619 929 l 1,95,-1
 638 909 l 1,96,-1
 658 909 l 1,97,-1
 677 929 l 1,98,-1
 677 948 l 1,99,-1
 629 957 l 1,100,-1
 619 957 l 1,94,-1
667 266 m 1,101,102
 686 209 686 209 773 209 c 0,103,104
 845 209 845 209 869 420 c 1,105,-1
 869 439 l 1,106,107
 847 487 847 487 773 487 c 2,108,-1
 744 487 l 2,109,110
 703 487 703 487 667 266 c 1,101,102
EndSplineSet
EndChar

StartChar: ampersand
Encoding: 38 38 9
Width: 1201
Flags: W
LayerCount: 2
Fore
SplineSet
512 1507 m 1,0,1
 848 1463 848 1463 848 1367 c 1,2,3
 812 1302 812 1302 812 1239 c 1,4,-1
 824 1125 l 1,5,6
 758 1080 758 1080 620 908 c 1,7,8
 524 908 524 908 524 819 c 2,9,-1
 524 806 l 1,10,11
 530 776 530 776 620 742 c 1,12,13
 656 714 656 714 692 513 c 1,14,-1
 764 487 l 1,15,-1
 788 487 l 1,16,17
 884 556 884 556 940 746 c 1,18,19
 987 828 987 828 1048 828 c 1,20,21
 1191 850 1191 850 1166 747 c 1,22,-1
 1133 672 l 1,23,24
 1090 598 1090 598 1040 551 c 1,25,-1
 1028 513 l 1,26,-1
 944 411 l 1,27,28
 886 394 886 394 904 273 c 1,29,-1
 987 184 l 1,30,-1
 1102 160 l 1,31,32
 1150 141 1150 141 1150 122 c 0,33,34
 1150 7 1150 7 994 7 c 2,35,-1
 982 7 l 2,36,37
 939 7 939 7 872 105 c 1,38,-1
 824 105 l 1,39,40
 711 3 711 3 656 3 c 2,41,-1
 464 16 l 1,42,-1
 404 3 l 1,43,44
 68 105 68 105 68 360 c 1,45,46
 38 401 38 401 20 500 c 1,47,-1
 104 666 l 1,48,-1
 92 717 l 1,49,50
 212 844 212 844 324 911 c 1,51,52
 220 1029 220 1029 230 1169 c 1,53,-1
 224 1252 l 1,54,-1
 332 1380 l 1,55,56
 332 1479 332 1479 512 1507 c 1,0,1
393 1157 m 2,57,-1
 393 1143 l 2,58,59
 393 1023 393 1023 511 1023 c 2,60,-1
 526 1023 l 2,61,62
 644 1023 644 1023 644 1143 c 1,63,64
 659 1358 659 1358 555 1367 c 1,65,66
 393 1323 393 1323 393 1157 c 2,57,-1
188 411 m 2,67,-1
 188 398 l 2,68,69
 188 373 188 373 320 373 c 1,70,-1
 332 360 l 1,71,-1
 332 335 l 1,72,-1
 320 258 l 1,73,74
 320 131 320 131 524 131 c 1,75,-1
 632 118 l 1,76,77
 692 118 692 118 728 258 c 1,78,-1
 728 271 l 1,79,80
 470 577 470 577 440 691 c 1,81,-1
 404 691 l 1,82,83
 188 496 188 496 188 411 c 2,67,-1
EndSplineSet
EndChar

StartChar: quotesingle
Encoding: 39 39 10
Width: 1201
Flags: W
LayerCount: 2
Fore
SplineSet
615 1577 m 2,0,-1
 632 1577 l 1,1,-1
 749 1461 l 1,2,-1
 749 1441 l 1,3,-1
 707 1383 l 1,4,-1
 707 1373 l 1,5,6
 732 1338 732 1338 732 1306 c 1,7,8
 682 1247 682 1247 682 1209 c 0,9,10
 682 831 682 831 640 831 c 1,11,-1
 607 821 l 1,12,13
 542 821 542 821 473 928 c 1,14,-1
 482 1015 l 1,15,-1
 440 1470 l 1,16,17
 475 1577 475 1577 615 1577 c 2,0,-1
EndSplineSet
EndChar

StartChar: parenleft
Encoding: 40 40 11
Width: 1199
Flags: W
LayerCount: 2
Fore
SplineSet
996 1764 m 1,0,-1
 1006 1764 l 2,1,2
 1031 1764 1031 1764 1070 1626 c 1,3,-1
 1070 1616 l 2,4,5
 1070 1583 1070 1583 1006 1510 c 1,6,7
 1006 1405 1006 1405 922 1405 c 1,8,-1
 837 1299 l 1,9,-1
 837 1257 l 1,10,-1
 879 1204 l 1,11,-1
 879 1183 l 2,12,13
 879 1162 879 1162 848 1162 c 1,14,-1
 763 1215 l 1,15,-1
 753 1204 l 1,16,-1
 753 1130 l 1,17,-1
 774 1003 l 1,18,19
 746 821 746 821 711 782 c 1,20,-1
 711 739 l 1,21,22
 763 702 763 702 763 549 c 1,23,-1
 911 391 l 1,24,-1
 922 349 l 1,25,-1
 816 275 l 1,26,-1
 816 243 l 2,27,28
 816 227 816 227 964 159 c 1,29,30
 995 132 995 132 1059 -31 c 1,31,32
 1091 -42 1091 -42 1091 -94 c 1,33,34
 1060 -168 1060 -168 996 -168 c 0,35,36
 922 -168 922 -168 795 21 c 1,37,38
 750 120 750 120 679 211 c 1,39,40
 623 401 623 401 573 401 c 1,41,-1
 531 687 l 1,42,-1
 552 845 l 1,43,-1
 552 887 l 1,44,-1
 542 1003 l 1,45,-1
 573 1067 l 1,46,-1
 552 1162 l 1,47,48
 616 1323 616 1323 784 1552 c 1,49,-1
 795 1552 l 1,50,-1
 869 1542 l 1,51,-1
 869 1552 l 1,52,53
 975 1756 975 1756 996 1764 c 1,0,-1
EndSplineSet
EndChar

StartChar: parenright
Encoding: 41 41 12
Width: 1199
Flags: W
LayerCount: 2
Fore
SplineSet
249 1748 m 1,0,-1
 312 1748 l 2,1,2
 331 1748 331 1748 386 1642 c 1,3,4
 513 1570 513 1570 513 1410 c 1,5,6
 671 1326 671 1326 671 1178 c 1,7,8
 724 1178 724 1178 735 872 c 1,9,-1
 735 629 l 1,10,-1
 598 238 l 1,11,12
 441 -143 441 -143 260 -216 c 1,13,-1
 238 -216 l 2,14,15
 171 -216 171 -216 154 -121 c 1,16,-1
 154 -110 l 1,17,18
 240 122 240 122 334 122 c 1,19,-1
 365 227 l 1,20,21
 481 387 481 387 481 460 c 2,22,-1
 481 586 l 1,23,24
 513 625 513 625 513 660 c 1,25,-1
 481 745 l 1,26,-1
 513 872 l 1,27,-1
 471 988 l 1,28,-1
 481 1072 l 1,29,30
 362 1442 362 1442 238 1558 c 1,31,32
 196 1621 196 1621 196 1653 c 2,33,-1
 196 1664 l 2,34,35
 196 1721 196 1721 249 1748 c 1,0,-1
EndSplineSet
EndChar

StartChar: asterisk
Encoding: 42 42 13
Width: 1199
Flags: W
LayerCount: 2
Fore
SplineSet
412 1681 m 2,0,-1
 429 1681 l 1,1,2
 547 1586 547 1586 588 1471 c 1,3,-1
 597 1463 l 1,4,-1
 639 1463 l 1,5,-1
 639 1479 l 1,6,-1
 647 1479 l 1,7,-1
 630 1530 l 1,8,9
 677 1656 677 1656 765 1656 c 2,10,-1
 807 1656 l 1,11,12
 832 1649 832 1649 849 1597 c 1,13,14
 840 1551 840 1551 756 1412 c 1,15,-1
 756 1395 l 1,16,17
 778 1353 778 1353 824 1353 c 1,18,-1
 916 1370 l 1,19,20
 1042 1351 1042 1351 1042 1320 c 2,21,-1
 1042 1286 l 1,22,23
 1029 1244 1029 1244 933 1244 c 1,24,-1
 798 1253 l 1,25,-1
 731 1227 l 1,26,27
 697 1239 697 1239 681 1269 c 1,28,-1
 681 1295 l 1,29,-1
 698 1387 l 1,30,31
 667 1412 667 1412 639 1412 c 2,32,-1
 622 1412 l 1,33,34
 530 1395 530 1395 530 1320 c 1,35,36
 560 1219 560 1219 588 1219 c 2,37,-1
 672 1227 l 1,38,39
 825 1092 825 1092 849 1017 c 1,40,-1
 891 975 l 1,41,42
 882 942 882 942 798 942 c 1,43,44
 728 963 728 963 622 1152 c 1,45,-1
 572 1160 l 1,46,-1
 563 1152 l 1,47,-1
 563 1076 l 2,48,49
 563 1012 563 1012 429 933 c 1,50,51
 345 945 345 945 345 1009 c 0,52,53
 345 1053 345 1053 429 1127 c 1,54,55
 429 1175 429 1175 462 1219 c 1,56,-1
 462 1244 l 1,57,-1
 446 1244 l 1,58,-1
 446 1253 l 1,59,-1
 362 1244 l 1,60,-1
 244 1244 l 2,61,62
 160 1244 160 1244 160 1311 c 1,63,64
 181 1362 181 1362 236 1362 c 1,65,-1
 303 1345 l 1,66,-1
 328 1345 l 1,67,68
 412 1405 412 1405 412 1479 c 1,69,70
 353 1571 353 1571 353 1605 c 2,71,-1
 353 1622 l 2,72,73
 353 1681 353 1681 412 1681 c 2,0,-1
EndSplineSet
EndChar

StartChar: comma
Encoding: 44 44 15
Width: 1199
Flags: W
LayerCount: 2
Fore
SplineSet
347 387 m 1,0,1
 462 422 462 422 575 361 c 1,2,3
 622 322 622 322 630 298 c 2,4,-1
 632 290 l 1,5,-1
 619 190 l 1,6,7
 661 54 661 54 549 -95 c 1,8,9
 479 -146 479 -146 441 -158 c 2,10,-1
 385 -175 l 1,11,12
 303 -194 303 -194 289 -152 c 1,13,14
 215 -93 215 -93 287 -71 c 0,15,16
 399 -36 399 -36 379 27 c 0,17,18
 370 59 370 59 277 101 c 1,19,-1
 246 145 l 1,20,-1
 239 169 l 2,21,22
 198 301 198 301 302 364 c 1,23,-1
 347 387 l 1,0,1
EndSplineSet
EndChar

StartChar: hyphen
Encoding: 45 45 16
AltUni2: 0000ad.ffffffff.0
Width: 1201
Flags: W
LayerCount: 2
Fore
SplineSet
253 784 m 2,0,-1
 306 784 l 1,1,-1
 448 746 l 1,2,-1
 457 746 l 1,3,-1
 501 776 l 1,4,-1
 545 776 l 2,5,6
 652 775 652 775 652 761 c 1,7,8
 686 776 686 776 749 776 c 2,9,-1
 767 776 l 1,10,-1
 776 769 l 1,11,-1
 784 776 l 1,12,-1
 900 776 l 1,13,-1
 944 784 l 1,14,15
 962 769 962 769 962 716 c 1,16,-1
 988 701 l 1,17,-1
 997 701 l 1,18,-1
 1086 746 l 1,19,20
 1126 731 1126 731 1130 716 c 1,21,-1
 1130 701 l 2,22,23
 1130 616 1130 616 1041 587 c 1,24,-1
 377 602 l 1,25,-1
 270 595 l 1,26,27
 111 630 111 630 111 708 c 0,28,29
 111 739 111 739 217 739 c 1,30,31
 238 784 238 784 253 784 c 2,0,-1
EndSplineSet
EndChar

StartChar: period
Encoding: 46 46 17
Width: 1199
Flags: W
LayerCount: 2
Fore
SplineSet
319 370 m 1,0,-1
 403 353 l 1,1,-1
 521 370 l 1,2,3
 590 370 590 370 647 194 c 1,4,5
 647 74 647 74 496 9 c 1,6,-1
 454 -33 l 1,7,-1
 445 -33 l 1,8,9
 235 29 235 29 235 110 c 1,10,-1
 260 177 l 1,11,-1
 210 236 l 1,12,-1
 210 269 l 1,13,14
 284 370 284 370 319 370 c 1,0,-1
EndSplineSet
EndChar

StartChar: slash
Encoding: 47 47 18
Width: 1198
Flags: W
LayerCount: 2
Fore
SplineSet
998 1777 m 2,0,-1
 1028 1777 l 1,1,2
 1116 1710 1116 1710 1116 1639 c 1,3,-1
 1097 1561 l 1,4,-1
 1107 1531 l 1,5,-1
 988 1364 l 1,6,-1
 988 1354 l 1,7,-1
 890 1167 l 1,8,9
 890 1059 890 1059 801 1059 c 1,10,11
 765 949 765 949 752 793 c 1,12,13
 654 727 654 727 654 636 c 1,14,15
 516 531 516 531 516 321 c 1,16,17
 437 203 437 203 437 114 c 1,18,19
 356 -17 356 -17 280 -190 c 1,20,21
 254 -289 254 -289 182 -289 c 1,22,-1
 93 -180 l 1,23,-1
 93 -141 l 1,24,25
 146 -104 146 -104 201 114 c 1,26,27
 243 136 243 136 290 242 c 1,28,-1
 319 242 l 1,29,-1
 349 222 l 1,30,31
 369 222 369 222 369 252 c 1,32,-1
 339 301 l 1,33,-1
 339 331 l 1,34,35
 388 369 388 369 418 518 c 1,36,-1
 428 528 l 1,37,38
 428 590 428 590 526 655 c 1,39,-1
 526 665 l 1,40,-1
 506 764 l 1,41,42
 599 851 599 851 604 931 c 1,43,-1
 654 1059 l 2,44,45
 687 1152 687 1152 752 1236 c 1,46,-1
 847 1407 l 1,47,-1
 876 1475 l 1,48,-1
 900 1551 l 1,49,-1
 920 1551 l 1,50,-1
 920 1571 l 1,51,-1
 929 1571 l 1,52,-1
 900 1649 l 1,53,54
 932 1777 932 1777 998 1777 c 2,0,-1
EndSplineSet
EndChar

StartChar: zero
Encoding: 48 48 19
Width: 1200
Flags: W
LayerCount: 2
Fore
SplineSet
640 1410 m 1,0,1
 953 1328 953 1328 953 1227 c 1,2,3
 1072 1227 1072 1227 1072 978 c 1,4,5
 1097 908 1097 908 1097 889 c 2,6,-1
 1097 878 l 1,7,-1
 1115 795 l 1,8,-1
 1108 662 l 1,9,-1
 1108 651 l 1,10,-1
 1115 546 l 1,11,-1
 1115 536 l 1,12,-1
 1126 492 l 1,13,14
 1038 255 1038 255 1018 244 c 1,15,16
 733 -4 733 -4 629 -4 c 1,17,18
 283 50 283 50 283 114 c 1,19,20
 67 261 67 261 67 633 c 1,21,22
 52 633 52 633 35 730 c 1,23,-1
 111 957 l 1,24,25
 111 1109 111 1109 316 1259 c 1,26,27
 316 1351 316 1351 521 1378 c 1,28,-1
 640 1410 l 1,0,1
240 827 m 1,29,-1
 208 767 l 1,30,-1
 208 757 l 1,31,-1
 229 633 l 1,32,-1
 229 590 l 1,33,34
 278 444 278 444 278 341 c 1,35,-1
 327 276 l 1,36,-1
 327 244 l 1,37,38
 436 136 436 136 478 136 c 0,39,40
 713 133 713 133 713 172 c 1,41,42
 915 362 915 362 915 385 c 1,43,44
 960 617 960 617 960 665 c 0,45,46
 960 946 960 946 762 1185 c 1,47,48
 598 1248 598 1248 543 1248 c 2,49,-1
 532 1248 l 1,50,51
 262 1152 262 1152 262 903 c 1,52,53
 240 903 240 903 240 827 c 1,29,-1
EndSplineSet
EndChar

StartChar: one
Encoding: 49 49 20
Width: 1200
Flags: W
LayerCount: 2
Fore
SplineSet
221 146 m 1,0,-1
 319 113 l 1,1,-1
 508 146 l 1,2,-1
 508 167 l 2,3,4
 508 206 508 206 506 258 c 2,5,-1
 506 301 l 1,6,7
 502 362 502 362 555 459 c 1,8,9
 589 473 589 473 589 567 c 1,10,-1
 536 633 l 1,11,-1
 555 807 l 1,12,13
 545 933 545 933 545 956 c 2,14,-1
 545 1139 l 2,15,16
 545 1172 545 1172 351 1204 c 1,17,-1
 308 1204 l 2,18,19
 255 1204 255 1204 204 1206 c 0,20,21
 117 1206 117 1206 130 1384 c 1,22,-1
 162 1406 l 1,23,-1
 254 1420 l 1,24,25
 307 1422 307 1422 328 1422 c 2,26,-1
 373 1420 l 1,27,-1
 437 1409 l 1,28,-1
 718 1409 l 2,29,30
 738 1409 738 1409 794 1290 c 1,31,-1
 755 1229 l 1,32,-1
 755 1207 l 1,33,-1
 772 1139 l 1,34,-1
 747 1031 l 1,35,-1
 729 912 l 1,36,-1
 729 858 l 1,37,38
 785 858 785 858 740 696 c 1,39,40
 740 667 740 667 751 491 c 1,41,42
 772 318 772 318 772 286 c 2,43,-1
 772 220 l 2,44,45
 772 171 772 171 826 163 c 1,46,-1
 1053 174 l 1,47,48
 1150 131 1150 131 1150 70 c 0,49,50
 1150 -10 1150 -10 971 -15 c 1,51,-1
 815 -5 l 1,52,-1
 584 -30 l 1,53,-1
 351 -5 l 1,54,-1
 232 -27 l 1,55,56
 140 -27 140 -27 100 74 c 1,57,58
 107 147 107 147 221 146 c 1,0,-1
EndSplineSet
EndChar

StartChar: two
Encoding: 50 50 21
Width: 1200
Flags: W
LayerCount: 2
Fore
SplineSet
261 1353 m 1,0,-1
 293 1356 l 2,1,2
 317 1358 317 1358 359 1347 c 1,3,-1
 380 1349 l 1,4,5
 419 1418 419 1418 622 1436 c 1,6,7
 688 1396 688 1396 813 1366 c 1,8,-1
 1058 1171 l 1,9,-1
 1066 1074 l 1,10,11
 1054 812 1054 812 971 805 c 1,12,13
 901 632 901 632 768 546 c 1,14,15
 771 513 771 513 576 371 c 1,16,17
 374 215 374 215 355 173 c 1,18,19
 472 220 472 220 580 196 c 1,20,-1
 647 176 l 1,21,22
 694 217 694 217 735 221 c 1,23,24
 796 98 796 98 817 100 c 2,25,-1
 849 103 l 2,26,27
 871 105 871 105 868 137 c 2,28,-1
 850 222 l 1,29,30
 866 273 866 273 888 280 c 1,31,-1
 920 282 l 2,32,33
 974 287 974 287 1058 197 c 1,34,35
 1146 176 1146 176 1149 151 c 2,36,-1
 1150 140 l 1,37,38
 1147 96 1147 96 905 -33 c 1,39,-1
 862 -37 l 1,40,41
 485 38 485 38 379 28 c 1,42,-1
 233 -38 l 1,43,44
 69 -27 69 -27 66 11 c 2,45,-1
 64 33 l 1,46,47
 115 280 115 280 270 398 c 1,48,49
 279 486 279 486 401 566 c 1,50,-1
 486 551 l 1,51,52
 700 685 700 685 799 919 c 1,53,54
 821 989 821 989 746 1143 c 1,55,-1
 542 1244 l 1,56,57
 472 1238 472 1238 311 1130 c 1,58,59
 261 980 261 980 210 976 c 0,60,61
 191 975 191 975 125 1014 c 1,62,-1
 89 1095 l 1,63,-1
 119 1206 l 1,64,65
 150 1255 150 1255 209 1323 c 1,66,67
 206 1355 206 1355 261 1353 c 1,0,-1
EndSplineSet
EndChar

StartChar: three
Encoding: 51 51 22
Width: 1198
Flags: W
LayerCount: 2
Fore
SplineSet
601 1436 m 1,0,-1
 623 1436 l 1,1,2
 918 1357 918 1357 918 1332 c 0,3,4
 918 1264 918 1264 1037 1224 c 1,5,-1
 1058 1170 l 1,6,-1
 1048 1105 l 1,7,-1
 1058 997 l 1,8,-1
 983 738 l 1,9,10
 983 692 983 692 1123 565 c 1,11,-1
 1134 554 l 1,12,-1
 1134 543 l 2,13,14
 1134 252 1134 252 1058 252 c 1,15,16
 1033 47 1033 47 886 47 c 1,17,18
 886 -43 886 -43 616 -115 c 1,19,20
 434 -173 434 -173 216 -190 c 1,21,22
 85 -138 85 -138 54 -72 c 1,23,24
 74 3 74 3 227 3 c 1,25,-1
 281 -7 l 1,26,27
 494 47 494 47 564 47 c 1,28,29
 842 236 842 236 842 361 c 1,30,31
 889 388 889 388 907 437 c 1,32,33
 853 666 853 666 666 716 c 1,34,-1
 509 710 l 1,35,36
 488 762 488 762 432 749 c 1,37,-1
 440 838 l 1,38,39
 534 883 534 883 653 872 c 1,40,-1
 797 847 l 1,41,-1
 806 923 l 1,42,43
 922 1069 922 1069 824 1152 c 1,44,45
 712 1289 712 1289 474 1256 c 1,46,47
 315 1215 315 1215 283 1112 c 1,48,-1
 239 1098 l 1,49,50
 155 1085 155 1085 130 1191 c 1,51,52
 179 1322 179 1322 324 1364 c 1,53,54
 397 1401 397 1401 421 1401 c 2,55,-1
 486 1407 l 1,56,-1
 601 1436 l 1,0,-1
EndSplineSet
EndChar

StartChar: four
Encoding: 52 52 23
Width: 1198
Flags: W
LayerCount: 2
Fore
SplineSet
511 1461 m 1,0,-1
 673 1364 l 1,1,2
 608 1342 608 1342 608 1278 c 1,3,-1
 630 1159 l 1,4,5
 554 1109 554 1109 554 1083 c 1,6,-1
 598 997 l 1,7,8
 505 858 505 858 453 695 c 1,9,10
 453 659 453 659 427 527 c 1,11,12
 373 431 373 431 285 305 c 1,13,14
 281 252 281 252 376 280 c 1,15,-1
 712 284 l 1,16,-1
 734 306 l 1,17,-1
 734 327 l 1,18,-1
 723 392 l 1,19,-1
 766 489 l 1,20,-1
 745 576 l 1,21,22
 773 752 773 752 811 759 c 1,23,-1
 843 759 l 2,24,25
 931 759 931 759 906 652 c 1,26,-1
 949 609 l 1,27,-1
 949 588 l 1,28,-1
 930 457 l 1,29,-1
 930 446 l 2,30,31
 930 360 930 360 942 297 c 1,32,33
 1048 276 1048 276 1151 261 c 1,34,35
 1164 194 1164 194 1092 128 c 1,36,37
 988 151 988 151 956 121 c 1,38,39
 931 -17 931 -17 940 -134 c 1,40,41
 883 -169 883 -169 781 -157 c 1,42,-1
 751 -127 l 1,43,44
 759 -34 759 -34 738 107 c 1,45,46
 663 134 663 134 624 134 c 0,47,48
 549 134 549 134 195 79 c 1,49,-1
 174 79 l 2,50,51
 44 79 44 79 44 241 c 1,52,53
 249 629 249 629 382 911 c 1,54,-1
 382 932 l 1,55,-1
 371 975 l 1,56,-1
 425 1073 l 1,57,-1
 414 1137 l 1,58,-1
 425 1267 l 1,59,-1
 403 1364 l 1,60,-1
 403 1397 l 2,61,62
 403 1431 403 1431 511 1461 c 1,0,-1
EndSplineSet
EndChar

StartChar: five
Encoding: 53 53 24
Width: 1198
Flags: W
LayerCount: 2
Fore
SplineSet
888 1481 m 1,0,1
 929 1411 929 1411 1031 1394 c 1,2,-1
 1031 1358 l 2,3,4
 1031 1286 1031 1286 767 1262 c 1,5,-1
 671 1226 l 1,6,-1
 599 1238 l 1,7,8
 491 1238 491 1238 443 1154 c 1,9,-1
 412 1028 l 1,10,-1
 376 992 l 1,11,-1
 376 956 l 1,12,13
 400 848 400 848 436 848 c 1,14,15
 671 890 671 890 767 806 c 1,16,-1
 779 794 l 1,17,-1
 791 794 l 1,18,-1
 899 818 l 1,19,-1
 911 818 l 1,20,-1
 1067 734 l 1,21,22
 1067 602 1067 602 1115 602 c 1,23,24
 1123 549 1123 549 1132 513 c 1,25,26
 1126 476 1126 476 1087 408 c 1,27,-1
 1075 396 l 1,28,-1
 1075 384 l 1,29,-1
 1115 338 l 1,30,31
 975 26 975 26 819 -43 c 1,32,33
 657 -143 657 -143 451 -193 c 0,34,35
 221 -249 221 -249 86 -203 c 1,36,-1
 79 -148 l 1,37,38
 154 -117 154 -117 347 -69 c 1,39,-1
 486 10 l 1,40,41
 615 54 615 54 813 226 c 1,42,43
 968 510 968 510 813 635 c 1,44,45
 767 713 767 713 611 746 c 1,46,-1
 599 746 l 2,47,48
 518 746 518 746 239 626 c 1,49,50
 164 626 164 626 119 902 c 1,51,-1
 239 1250 l 1,52,-1
 227 1310 l 1,53,54
 250 1420 250 1420 343 1420 c 2,55,-1
 415 1420 l 2,56,57
 475 1420 475 1420 551 1370 c 1,58,-1
 587 1370 l 2,59,60
 629 1370 629 1370 696 1433 c 1,61,-1
 888 1481 l 1,0,1
EndSplineSet
EndChar

StartChar: six
Encoding: 54 54 25
Width: 1200
Flags: W
LayerCount: 2
Fore
SplineSet
767 1569 m 1,0,1
 811 1554 811 1554 831 1515 c 1,2,-1
 831 1472 l 1,3,4
 821 1366 821 1366 669 1234 c 1,5,6
 630 1072 630 1072 561 1072 c 1,7,-1
 432 867 l 1,8,9
 379 814 379 814 379 751 c 1,10,-1
 436 794 l 2,11,12
 524 859 524 859 659 889 c 1,13,-1
 691 889 l 2,14,15
 745 889 745 889 788 813 c 1,16,-1
 799 802 l 1,17,-1
 810 802 l 1,18,-1
 896 813 l 1,19,20
 896 788 896 788 984 693 c 1,21,22
 1060 582 1060 582 1060 445 c 2,23,-1
 1060 348 l 1,24,25
 987 34 987 34 885 -7 c 2,26,-1
 691 -93 l 1,27,-1
 648 -83 l 1,28,-1
 507 -93 l 1,29,30
 371 -93 371 -93 173 154 c 1,31,32
 163 240 163 240 97 316 c 1,33,-1
 97 360 l 1,34,-1
 173 446 l 1,35,-1
 173 478 l 1,36,-1
 140 522 l 1,37,-1
 140 565 l 1,38,39
 212 964 212 964 302 964 c 1,40,-1
 345 1018 l 1,41,-1
 335 1094 l 1,42,-1
 335 1105 l 2,43,44
 335 1159 335 1159 443 1234 c 1,45,46
 443 1273 443 1273 659 1440 c 1,47,48
 680 1569 680 1569 767 1569 c 1,0,1
278 403 m 1,49,50
 363 282 363 282 367 154 c 1,51,52
 427 83 427 83 540 68 c 2,53,-1
 693 51 l 1,54,55
 868 140 868 140 884 392 c 1,56,-1
 884 435 l 1,57,58
 843 619 843 619 765 619 c 1,59,60
 648 662 648 662 594 662 c 2,61,-1
 540 662 l 2,62,63
 386 662 386 662 278 403 c 1,49,50
EndSplineSet
EndChar

StartChar: seven
Encoding: 55 55 26
Width: 1200
Flags: W
LayerCount: 2
Fore
SplineSet
177 1403 m 1,0,-1
 377 1399 l 1,1,-1
 421 1399 l 1,2,-1
 588 1399 l 1,3,-1
 599 1399 l 2,4,5
 702 1399 702 1399 766 1355 c 1,6,-1
 820 1355 l 2,7,8
 858 1355 858 1355 996 1416 c 1,9,-1
 1018 1416 l 1,10,11
 1144 1350 1144 1350 1144 1291 c 0,12,13
 1144 1229 1144 1229 1004 967 c 1,14,15
 1004 918 1004 918 918 816 c 1,16,17
 918 722 918 722 777 535 c 1,18,-1
 777 459 l 1,19,-1
 691 275 l 1,20,-1
 701 178 l 1,21,-1
 647 113 l 1,22,-1
 647 92 l 1,23,-1
 669 5 l 1,24,-1
 669 -124 l 2,25,26
 669 -218 669 -218 529 -232 c 1,27,-1
 485 -232 l 1,28,29
 421 -194 421 -194 421 -135 c 1,30,-1
 442 -37 l 1,31,-1
 421 16 l 1,32,33
 421 279 421 279 700 775 c 1,34,-1
 775 947 l 1,35,-1
 844 1193 l 1,36,37
 751 1256 751 1256 637 1204 c 1,38,-1
 516 1212 l 1,39,40
 301 1231 301 1231 310 1192 c 1,41,42
 292 1058 292 1058 284 934 c 1,43,44
 244 859 244 859 183 859 c 2,45,-1
 172 859 l 1,46,47
 75 875 75 875 75 945 c 1,48,-1
 129 1183 l 1,49,-1
 118 1291 l 1,50,51
 161 1348 161 1348 155 1403 c 1,52,-1
 177 1403 l 1,0,-1
EndSplineSet
EndChar

StartChar: eight
Encoding: 56 56 27
Width: 1200
Flags: W
LayerCount: 2
Fore
SplineSet
813 1366 m 1,0,-1
 825 1366 l 2,1,2
 914 1366 914 1366 856 1318 c 1,3,4
 924 1271 924 1271 926 1198 c 1,5,-1
 1008 1036 l 1,6,7
 1014 865 1014 865 886 812 c 1,8,-1
 830 762 l 1,9,-1
 848 759 l 1,10,11
 907 721 907 721 1024 656 c 1,12,13
 1039 598 1039 598 1141 447 c 1,14,-1
 1141 378 l 2,15,16
 1141 181 1141 181 778 -16 c 1,17,-1
 529 -28 l 1,18,19
 329 -16 329 -16 203 88 c 1,20,21
 129 88 129 88 50 308 c 1,22,-1
 50 320 l 1,23,-1
 62 378 l 1,24,-1
 50 447 l 1,25,-1
 50 459 l 2,26,27
 50 691 50 691 226 691 c 1,28,-1
 238 749 l 1,29,30
 132 915 132 915 132 969 c 1,31,32
 167 1305 167 1305 285 1305 c 1,33,34
 453 1410 453 1410 637 1410 c 1,35,36
 727 1397 727 1397 813 1366 c 1,0,-1
261 1027 m 2,37,38
 261 984 261 984 367 911 c 1,39,40
 429 795 429 795 648 795 c 0,41,42
 681 795 681 795 719 899 c 1,43,-1
 789 969 l 1,44,-1
 789 1073 l 1,45,-1
 825 1143 l 1,46,47
 774 1236 774 1236 660 1236 c 2,48,-1
 531 1236 l 2,49,50
 371 1236 371 1236 261 1039 c 1,51,-1
 261 1027 l 2,37,38
203 331 m 1,52,-1
 203 308 l 1,53,54
 362 122 362 122 461 122 c 1,55,-1
 566 134 l 1,56,-1
 684 122 l 1,57,-1
 707 122 l 2,58,59
 809 122 809 122 895 343 c 1,60,-1
 895 447 l 2,61,62
 895 545 895 545 590 667 c 1,63,64
 396 667 396 667 226 424 c 1,65,-1
 203 331 l 1,52,-1
EndSplineSet
EndChar

StartChar: nine
Encoding: 57 57 28
Width: 1200
Flags: W
LayerCount: 2
Fore
SplineSet
542 1409 m 1,0,-1
 715 1398 l 1,1,-1
 769 1409 l 1,2,3
 903 1409 903 1409 1082 1182 c 1,4,-1
 1082 1160 l 1,5,-1
 1093 1042 l 1,6,-1
 1082 912 l 1,7,-1
 1068 652 l 1,8,9
 1048 569 1048 569 941 448 c 1,10,11
 913 333 913 333 790 199 c 1,12,13
 790 143 790 143 455 -178 c 1,14,-1
 391 -178 l 1,15,16
 293 -161 293 -161 293 -92 c 0,17,18
 293 -49 293 -49 370 -33 c 1,19,-1
 403 0 l 1,20,-1
 434 59 l 1,21,22
 482 76 482 76 482 106 c 1,23,-1
 520 156 l 1,24,-1
 520 188 l 2,25,26
 520 221 520 221 657 330 c 1,27,-1
 758 448 l 1,28,29
 737 497 737 497 715 502 c 1,30,-1
 607 502 l 2,31,32
 504 502 504 502 326 610 c 1,33,34
 264 610 264 610 131 750 c 1,35,-1
 131 793 l 1,36,37
 78 836 78 836 121 836 c 1,38,-1
 121 858 l 1,39,40
 99 878 99 878 99 944 c 0,41,42
 99 1036 99 1036 136 1139 c 1,43,-1
 207 1150 l 1,44,-1
 196 1214 l 1,45,46
 202 1248 202 1248 304 1301 c 1,47,48
 383 1409 383 1409 542 1409 c 1,0,-1
272 966 m 1,49,50
 248 803 248 803 391 739 c 1,51,52
 425 668 425 668 542 642 c 2,53,-1
 596 631 l 1,54,-1
 720 644 l 1,55,56
 804 627 804 627 866 815 c 1,57,-1
 887 944 l 1,58,-1
 887 1009 l 1,59,60
 883 1169 883 1169 736 1214 c 1,61,62
 625 1290 625 1290 596 1290 c 1,63,64
 326 1193 326 1193 326 1150 c 1,65,-1
 272 966 l 1,49,50
EndSplineSet
EndChar

StartChar: colon
Encoding: 58 58 29
Width: 1200
Flags: W
LayerCount: 2
Fore
SplineSet
450 1076 m 2,0,-1
 504 1076 l 1,1,2
 565 1048 565 1048 644 925 c 1,3,-1
 644 871 l 1,4,5
 565 676 565 676 396 676 c 2,6,-1
 385 676 l 2,7,8
 282 676 282 676 202 892 c 1,9,10
 317 1076 317 1076 450 1076 c 2,0,-1
621 346 m 1,11,12
 642 242 642 242 548 96 c 1,13,14
 323 29 323 29 264 122 c 2,15,-1
 241 159 l 2,16,17
 171 271 171 271 311 394 c 1,18,19
 545 468 545 468 621 346 c 1,11,12
EndSplineSet
EndChar

StartChar: semicolon
Encoding: 59 59 30
AltUni2: 00037e.ffffffff.0
Width: 1200
Flags: W
LayerCount: 2
Fore
SplineSet
530 684 m 1,0,-1
 435 661 l 1,1,2
 367 660 367 660 244 738 c 1,3,-1
 221 787 l 1,4,5
 210 997 210 997 363 1069 c 1,6,-1
 373 1073 l 1,7,8
 466 1117 466 1117 581 1006 c 1,9,-1
 633 877 l 1,10,11
 558 752 558 752 530 684 c 1,0,-1
347 387 m 1,12,13
 462 422 462 422 575 361 c 1,14,15
 622 322 622 322 630 298 c 2,16,-1
 632 290 l 1,17,-1
 619 190 l 1,18,19
 661 54 661 54 549 -95 c 1,20,21
 479 -146 479 -146 441 -158 c 2,22,-1
 385 -175 l 1,23,24
 303 -194 303 -194 289 -152 c 1,25,26
 215 -93 215 -93 287 -71 c 0,27,28
 399 -36 399 -36 379 27 c 0,29,30
 370 59 370 59 277 101 c 1,31,-1
 246 145 l 1,32,-1
 239 169 l 2,33,34
 198 301 198 301 302 364 c 1,35,-1
 347 387 l 1,12,13
EndSplineSet
EndChar

StartChar: question
Encoding: 63 63 34
Width: 1201
Flags: W
LayerCount: 2
Fore
SplineSet
732 1549 m 1,0,-1
 756 1549 l 1,1,2
 860 1446 860 1446 972 1417 c 1,3,-1
 972 1393 l 1,4,-1
 1080 1309 l 1,5,6
 1128 1246 1128 1246 1128 1177 c 2,7,-1
 1128 1129 l 2,8,9
 1128 1093 1128 1093 1080 1093 c 1,10,-1
 1080 1081 l 2,11,12
 1080 1041 1080 1041 996 985 c 1,13,14
 940 966 940 966 900 829 c 1,15,16
 648 713 648 713 648 589 c 1,17,18
 570 517 570 517 516 517 c 2,19,-1
 480 517 l 1,20,-1
 444 553 l 1,21,22
 444 817 444 817 564 817 c 1,23,24
 649 966 649 966 792 1021 c 1,25,-1
 804 1081 l 1,26,-1
 804 1153 l 2,27,28
 804 1248 804 1248 564 1369 c 1,29,-1
 504 1369 l 1,30,-1
 480 1333 l 1,31,-1
 480 1321 l 1,32,-1
 504 1225 l 1,33,34
 452 1066 452 1066 432 1057 c 1,35,-1
 204 1009 l 1,36,-1
 180 1009 l 2,37,38
 120 1009 120 1009 72 1249 c 1,39,-1
 72 1273 l 2,40,41
 72 1357 72 1357 288 1441 c 1,42,43
 343 1515 343 1515 480 1537 c 1,44,-1
 648 1501 l 1,45,-1
 732 1549 l 1,0,-1
511 311 m 1,46,-1
 535 311 l 1,47,-1
 655 275 l 1,48,-1
 739 299 l 1,49,50
 756 298 756 298 811 155 c 1,51,-1
 811 119 l 1,52,-1
 703 59 l 1,53,54
 622 -37 622 -37 499 -37 c 1,55,56
 367 12 367 12 367 143 c 0,57,58
 367 218 367 218 511 311 c 1,46,-1
EndSplineSet
EndChar

StartChar: at
Encoding: 64 64 35
Width: 1200
Flags: W
LayerCount: 2
Fore
SplineSet
583 1451 m 1,0,-1
 617 1451 l 1,1,2
 1000 1394 1000 1394 1000 1271 c 1,3,4
 1036 1186 1036 1186 1104 1103 c 1,5,6
 1162 909 1162 909 1162 839 c 1,7,-1
 1127 719 l 1,8,-1
 1139 659 l 1,9,10
 1139 637 1139 637 1113 563 c 1,11,-1
 1102 551 l 1,12,-1
 1102 539 l 1,13,14
 1148 467 1148 467 1148 431 c 0,15,16
 1148 367 1148 367 790 323 c 1,17,-1
 652 371 l 1,18,-1
 548 323 l 1,19,20
 306 375 306 375 306 575 c 2,21,-1
 306 683 l 1,22,23
 363 1007 363 1007 479 1007 c 1,24,25
 525 1103 525 1103 606 1103 c 2,26,-1
 640 1103 l 1,27,-1
 744 1019 l 1,28,-1
 825 1043 l 1,29,30
 878 1020 878 1020 883 995 c 1,31,32
 833 890 833 890 825 671 c 1,33,-1
 813 659 l 1,34,-1
 813 647 l 1,35,-1
 836 587 l 1,36,-1
 790 515 l 1,37,-1
 790 479 l 1,38,39
 802 443 802 443 860 443 c 0,40,41
 980 443 980 443 1021 695 c 1,42,43
 1021 928 1021 928 966 1065 c 1,44,45
 868 1247 868 1247 767 1247 c 1,46,47
 738 1307 738 1307 675 1307 c 1,48,-1
 559 1271 l 1,49,-1
 479 1295 l 1,50,51
 167 1161 167 1161 167 923 c 1,52,-1
 190 803 l 1,53,-1
 144 755 l 1,54,-1
 156 635 l 1,55,-1
 132 563 l 1,56,57
 225 262 225 262 409 179 c 0,58,59
 462 156 462 156 467 131 c 1,60,-1
 467 95 l 1,61,-1
 421 47 l 1,62,-1
 409 47 l 1,63,64
 75 196 75 196 75 431 c 1,65,66
 44 431 44 431 29 635 c 1,67,-1
 40 743 l 1,68,-1
 17 815 l 1,69,70
 122 1271 122 1271 213 1271 c 1,71,72
 213 1378 213 1378 583 1451 c 1,0,-1
398 587 m 1,73,74
 430 443 430 443 525 443 c 0,75,76
 675 443 675 443 675 671 c 1,77,78
 733 702 733 702 733 767 c 2,79,-1
 733 815 l 1,80,81
 715 947 715 947 675 947 c 2,82,-1
 640 947 l 1,83,84
 595 906 595 906 490 887 c 1,85,86
 398 821 398 821 398 587 c 1,73,74
1067 299 m 2,87,-1
 1079 299 l 1,88,-1
 1125 251 l 1,89,-1
 1125 239 l 2,90,91
 1125 151 1125 151 1010 83 c 1,92,-1
 929 95 l 1,93,94
 891 95 891 95 813 35 c 1,95,-1
 779 35 l 1,96,-1
 710 107 l 1,97,-1
 710 131 l 2,98,99
 712 168 712 168 929 227 c 1,100,101
 1017 299 1017 299 1067 299 c 2,87,-1
652 155 m 1,102,-1
 663 143 l 1,103,-1
 663 131 l 1,104,-1
 571 47 l 1,105,-1
 559 47 l 1,106,-1
 525 83 l 1,107,-1
 525 95 l 1,108,109
 565 155 565 155 652 155 c 1,102,-1
EndSplineSet
EndChar

StartChar: A
Encoding: 65 65 36
Width: 1198
Flags: W
LayerCount: 2
Fore
SplineSet
621 1493 m 1,0,1
 745 1482 745 1482 765 1121 c 1,2,3
 853 1121 853 1121 885 749 c 1,4,5
 885 569 885 569 909 569 c 1,6,-1
 897 509 l 1,7,-1
 897 473 l 1,8,9
 969 303 969 303 969 221 c 1,10,11
 997 193 997 193 1137 149 c 1,12,-1
 1161 89 l 1,13,14
 1161 17 1161 17 861 17 c 1,15,16
 717 57 717 57 717 89 c 2,17,-1
 717 125 l 1,18,-1
 837 209 l 1,19,-1
 837 293 l 2,20,21
 837 385 837 385 729 425 c 1,22,-1
 501 401 l 1,23,-1
 441 413 l 1,24,25
 369 406 369 406 369 377 c 2,26,-1
 369 353 l 1,27,-1
 381 245 l 1,28,-1
 357 173 l 1,29,30
 477 131 477 131 477 113 c 2,31,-1
 477 89 l 2,32,33
 477 26 477 26 201 17 c 1,34,-1
 189 5 l 1,35,36
 33 45 33 45 33 89 c 2,37,-1
 33 125 l 2,38,39
 33 152 33 152 177 173 c 1,40,41
 261 392 261 392 285 629 c 1,42,43
 369 838 369 838 405 1169 c 1,44,45
 427 1169 427 1169 465 1397 c 1,46,47
 554 1493 554 1493 621 1493 c 1,0,1
453 581 m 1,48,49
 478 509 478 509 549 509 c 1,50,51
 741 540 741 540 741 617 c 2,52,-1
 741 629 l 1,53,54
 669 746 669 746 669 941 c 1,55,-1
 693 1025 l 1,56,57
 676 1085 676 1085 609 1085 c 1,58,59
 550 1050 550 1050 501 797 c 1,60,61
 465 797 465 797 453 581 c 1,48,49
EndSplineSet
EndChar

StartChar: B
Encoding: 66 66 37
Width: 1201
Flags: W
LayerCount: 2
Fore
SplineSet
693 680 m 1,0,-1
 411 702 l 1,1,-1
 375 618 l 1,2,-1
 387 462 l 1,3,-1
 339 246 l 1,4,5
 384 141 384 141 411 138 c 2,6,-1
 687 138 l 1,7,8
 963 182 963 182 963 294 c 2,9,-1
 963 474 l 2,10,11
 963 523 963 523 877 603 c 1,12,13
 877 619 877 619 693 680 c 1,0,-1
688 799 m 1,14,15
 759 813 759 813 816 882 c 128,-1,16
 873 951 873 951 837 1035 c 1,17,-1
 861 1083 l 1,18,19
 820 1347 820 1347 711 1338 c 1,20,-1
 639 1326 l 1,21,-1
 615 1326 l 1,22,-1
 483 1350 l 1,23,-1
 435 1350 l 2,24,25
 414 1350 414 1350 375 1278 c 1,26,-1
 387 1194 l 1,27,-1
 387 1158 l 1,28,-1
 363 1038 l 1,29,30
 417 819 417 819 411 814 c 1,31,-1
 555 822 l 1,32,-1
 688 799 l 1,14,15
195 1506 m 1,33,-1
 327 1494 l 1,34,-1
 495 1506 l 1,35,36
 495 1473 495 1473 801 1467 c 1,37,-1
 969 1347 l 1,38,39
 1045 1347 1045 1347 1065 1275 c 1,40,-1
 1053 1167 l 1,41,-1
 1065 1107 l 1,42,43
 1041 971 1041 971 898 762 c 1,44,45
 1012 728 1012 728 1107 642 c 1,46,-1
 1167 450 l 1,47,48
 1109 78 1109 78 963 78 c 1,49,-1
 819 -6 l 1,50,-1
 771 6 l 1,51,-1
 279 -6 l 1,52,-1
 255 -6 l 2,53,54
 15 -6 15 -6 15 114 c 1,55,56
 34 138 34 138 147 138 c 1,57,58
 231 256 231 256 231 306 c 2,59,-1
 231 378 l 1,60,-1
 219 522 l 1,61,-1
 231 702 l 1,62,-1
 231 882 l 1,63,-1
 219 990 l 1,64,-1
 243 1110 l 1,65,66
 243 1350 243 1350 105 1342 c 1,67,68
 33 1352 33 1352 33 1414 c 0,69,70
 33 1462 33 1462 195 1506 c 1,33,-1
EndSplineSet
EndChar

StartChar: C
Encoding: 67 67 38
Width: 1200
Flags: W
LayerCount: 2
Fore
SplineSet
600 1538 m 2,0,-1
 624 1538 l 1,1,2
 664 1494 664 1494 826 1478 c 1,3,4
 848 1423 848 1423 873 1418 c 1,5,-1
 958 1466 l 1,6,-1
 994 1466 l 1,7,8
 1065 1424 1065 1424 1063 1346 c 1,9,-1
 1048 1238 l 1,10,-1
 1068 1070 l 1,11,12
 1050 938 1050 938 981 938 c 256,13,14
 912 938 912 938 878 1142 c 1,15,16
 852 1146 852 1146 798 1322 c 1,17,18
 625 1406 625 1406 584 1406 c 0,19,20
 514 1406 514 1406 325 1106 c 1,21,-1
 268 1031 l 1,22,-1
 248 878 l 1,23,-1
 217 746 l 1,24,25
 216 700 216 700 229 614 c 1,26,-1
 229 590 l 1,27,28
 259 455 259 455 302 312 c 1,29,30
 321 312 321 312 388 254 c 1,31,-1
 542 146 l 1,32,-1
 722 146 l 2,33,34
 784 146 784 146 795 182 c 1,35,-1
 796 218 l 1,36,37
 845 263 845 263 845 293 c 1,38,39
 902 392 902 392 907 456 c 1,40,-1
 971 518 l 1,41,42
 1091 518 1091 518 1090 482 c 1,43,-1
 1112 398 l 1,44,45
 1048 398 1048 398 1036 242 c 1,46,47
 793 -9 793 -9 730 -9 c 1,48,-1
 635 14 l 1,49,-1
 550 -9 l 1,50,51
 492 29 492 29 360 62 c 1,52,-1
 161 266 l 1,53,54
 81 440 81 440 85 602 c 1,55,-1
 113 782 l 1,56,-1
 119 1010 l 2,57,58
 120 1055 120 1055 196 1202 c 1,59,60
 223 1283 223 1283 345 1430 c 1,61,-1
 453 1442 l 1,62,63
 548 1538 548 1538 600 1538 c 2,0,-1
EndSplineSet
EndChar

StartChar: D
Encoding: 68 68 39
Width: 1201
Flags: W
LayerCount: 2
Fore
SplineSet
999 512 m 1,0,1
 1005 552 1005 552 1007 595 c 0,2,3
 1012 742 1012 742 999 878 c 1,4,5
 924 1216 924 1216 711 1292 c 1,6,-1
 639 1326 l 1,7,-1
 615 1326 l 1,8,-1
 483 1350 l 1,9,-1
 435 1350 l 2,10,11
 414 1350 414 1350 375 1278 c 1,12,-1
 379 1248 l 1,13,-1
 363 1248 l 1,14,-1
 387 1135 l 1,15,-1
 375 972 l 1,16,-1
 363 534 l 1,17,-1
 336 454 l 1,18,19
 387 371 387 371 354 314 c 1,20,-1
 339 246 l 1,21,22
 384 141 384 141 411 138 c 2,23,-1
 687 138 l 1,24,25
 729 146 729 146 766 162 c 1,26,27
 801 282 801 282 898 267 c 1,28,29
 917 291 917 291 933 319 c 1,30,31
 898 417 898 417 905 441 c 0,32,33
 917 485 917 485 999 512 c 1,0,1
231 1352 m 1,34,-1
 176 1340 l 1,35,36
 147 1375 147 1375 80 1346 c 1,37,38
 63 1360 63 1360 46 1477 c 1,39,40
 109 1487 109 1487 183 1472 c 1,41,-1
 327 1494 l 1,42,-1
 495 1506 l 1,43,44
 495 1473 495 1473 855 1458 c 1,45,-1
 935 1350 l 1,46,47
 1011 1350 1011 1350 1031 1278 c 1,48,-1
 1107 1158 l 1,49,-1
 1119 1098 l 1,50,51
 1183 390 1183 390 1071 232 c 0,52,53
 1017 149 1017 149 909 62 c 1,54,-1
 819 -6 l 1,55,-1
 771 6 l 1,56,-1
 496 7 l 1,57,-1
 255 -6 l 1,58,-1
 135 -6 l 2,59,60
 15 -6 15 -6 15 38 c 1,61,62
 26 84 26 84 26 134 c 1,63,-1
 113 134 l 1,64,65
 243 97 243 97 231 306 c 1,66,-1
 231 314 l 1,67,-1
 230 314 l 2,68,69
 231 316 231 316 231 319 c 2,70,-1
 231 321 l 1,71,-1
 232 321 l 1,72,73
 243 376 243 376 243 458 c 1,74,-1
 219 584 l 1,75,-1
 231 696 l 1,76,-1
 231 884 l 1,77,-1
 228 1118 l 1,78,-1
 197 1277 l 1,79,-1
 231 1352 l 1,34,-1
EndSplineSet
EndChar

StartChar: E
Encoding: 69 69 40
Width: 1200
Flags: W
LayerCount: 2
Fore
SplineSet
105 1511 m 1,0,-1
 179 1471 l 1,1,-1
 323 1507 l 1,2,-1
 335 1507 l 1,3,-1
 503 1471 l 1,4,-1
 779 1519 l 1,5,-1
 863 1483 l 1,6,-1
 947 1495 l 1,7,8
 1103 1453 1103 1453 1103 1354 c 1,9,-1
 1127 1236 l 1,10,-1
 1127 1177 l 2,11,12
 1127 1059 1127 1059 1031 1059 c 2,13,-1
 1019 1059 l 2,14,15
 979 1059 979 1059 923 1306 c 1,16,17
 891 1330 891 1330 743 1342 c 1,18,19
 743 1361 743 1361 659 1389 c 1,20,21
 311 1338 311 1338 311 1224 c 1,22,23
 395 1196 395 1196 395 1177 c 1,24,-1
 359 1083 l 1,25,-1
 383 988 l 1,26,-1
 347 894 l 1,27,-1
 383 859 l 1,28,-1
 551 859 l 1,29,30
 659 877 659 877 659 953 c 1,31,-1
 647 1083 l 1,32,-1
 707 1130 l 1,33,34
 793 1130 793 1130 839 988 c 1,35,36
 791 927 791 927 767 682 c 1,37,-1
 815 599 l 1,38,39
 791 435 791 435 743 435 c 2,40,-1
 707 435 l 2,41,42
 647 435 647 435 635 682 c 1,43,44
 585 729 585 729 515 729 c 0,45,46
 399 729 399 729 359 647 c 1,47,48
 371 411 371 411 395 328 c 1,49,-1
 323 258 l 1,50,-1
 323 234 l 2,51,52
 323 202 323 202 443 187 c 1,53,54
 482 116 482 116 539 116 c 1,55,-1
 707 140 l 1,56,-1
 863 116 l 1,57,58
 919 198 919 198 935 270 c 1,59,-1
 923 435 l 1,60,61
 984 594 984 594 1019 599 c 1,62,-1
 1043 599 l 1,63,64
 1162 540 1162 540 1162 470 c 1,65,66
 1126 384 1126 384 1102 140 c 1,67,-1
 1102 57 l 2,68,69
 1102 14 1102 14 983 -1 c 1,70,-1
 707 10 l 1,71,-1
 683 10 l 1,72,-1
 623 -1 l 1,73,-1
 563 10 l 1,74,-1
 251 -1 l 1,75,76
 131 13 131 13 131 46 c 1,77,78
 203 229 203 229 203 281 c 1,79,-1
 191 387 l 1,80,81
 236 484 236 484 263 694 c 1,82,-1
 275 729 l 1,83,-1
 275 764 l 1,84,85
 215 841 215 841 215 882 c 2,86,-1
 215 894 l 1,87,-1
 251 977 l 1,88,89
 203 1047 203 1047 203 1083 c 1,90,-1
 215 1189 l 1,91,92
 215 1356 215 1356 69 1393 c 1,93,94
 21 1416 21 1416 21 1463 c 1,95,-1
 105 1511 l 1,0,-1
EndSplineSet
EndChar

StartChar: F
Encoding: 70 70 41
Width: 1200
Flags: W
LayerCount: 2
Fore
SplineSet
270 1515 m 1,0,-1
 354 1503 l 1,1,-1
 426 1503 l 1,2,-1
 727 1490 l 1,3,-1
 906 1515 l 1,4,5
 1159 1478 1159 1478 1160 1403 c 1,6,-1
 1127 1278 l 1,7,-1
 1130 1116 l 2,8,9
 1131 1042 1131 1042 1000 992 c 1,10,-1
 927 1066 l 1,11,-1
 936 1191 l 1,12,13
 935 1254 935 1254 789 1353 c 1,14,15
 369 1353 369 1353 372 1241 c 2,16,-1
 374 1091 l 1,17,-1
 387 1042 l 1,18,-1
 342 929 l 1,19,20
 358 855 358 855 535 855 c 1,21,22
 666 893 666 893 663 1066 c 1,23,-1
 675 1079 l 1,24,-1
 723 1079 l 2,25,26
 787 1079 787 1079 808 1029 c 1,27,-1
 786 917 l 1,28,-1
 837 767 l 1,29,30
 784 718 784 718 754 718 c 1,31,-1
 755 655 l 1,32,-1
 816 581 l 1,33,-1
 816 568 l 2,34,35
 818 501 818 501 770 481 c 1,36,-1
 746 481 l 1,37,38
 706 485 706 485 610 718 c 1,39,-1
 549 730 l 1,40,-1
 441 730 l 1,41,42
 394 704 394 704 395 668 c 2,43,-1
 426 269 l 1,44,-1
 404 157 l 1,45,-1
 453 120 l 1,46,-1
 561 132 l 1,47,-1
 585 132 l 1,48,-1
 646 70 l 1,49,-1
 646 57 l 1,50,51
 621 -5 621 -5 528 -5 c 2,52,-1
 252 -5 l 1,53,54
 47 3 47 3 46 70 c 2,55,-1
 45 107 l 2,56,57
 45 126 45 126 93 145 c 1,58,-1
 201 132 l 1,59,-1
 236 169 l 1,60,-1
 220 369 l 1,61,-1
 252 593 l 1,62,-1
 251 655 l 1,63,-1
 223 855 l 1,64,-1
 222 917 l 1,65,-1
 241 1141 l 1,66,67
 208 1212 208 1212 190 1341 c 1,68,69
 58 1341 58 1341 57 1378 c 2,70,-1
 56 1415 l 2,71,72
 55 1467 55 1467 270 1515 c 1,0,-1
EndSplineSet
EndChar

StartChar: G
Encoding: 71 71 42
Width: 1200
Flags: W
LayerCount: 2
Fore
SplineSet
700 1531 m 1,0,1
 1034 1484 1034 1484 1031 1408 c 1,2,-1
 1108 1260 l 1,3,-1
 1115 1164 l 1,4,5
 1074 1038 1074 1038 987 1009 c 1,6,-1
 882 1033 l 1,7,8
 843 1052 843 1052 837 1289 c 1,9,10
 634 1390 634 1390 573 1393 c 0,11,12
 545 1394 545 1394 412 1280 c 1,13,-1
 352 1271 l 1,14,-1
 352 1283 l 1,15,16
 304 1285 304 1285 277 1226 c 1,17,-1
 335 1164 l 1,18,-1
 305 1033 l 1,19,-1
 324 887 l 1,20,-1
 270 757 l 1,21,-1
 269 745 l 1,22,-1
 300 636 l 1,23,-1
 239 486 l 1,24,25
 227 234 227 234 311 231 c 1,26,-1
 402 164 l 1,27,28
 899 176 899 176 924 288 c 1,29,30
 986 335 986 335 960 521 c 1,31,-1
 904 561 l 1,32,-1
 773 520 l 1,33,34
 709 569 709 569 638 531 c 1,35,-1
 596 601 l 1,36,37
 610 767 610 767 691 734 c 1,38,39
 836 713 836 713 981 759 c 1,40,-1
 1005 758 l 1,41,-1
 1116 734 l 1,42,43
 1162 678 1162 678 1160 648 c 1,44,45
 1118 530 1118 530 1094 547 c 1,46,-1
 1077 362 l 1,47,-1
 1121 288 l 1,48,-1
 1121 276 l 1,49,-1
 1093 181 l 1,50,-1
 1112 84 l 1,51,-1
 1111 60 l 1,52,53
 1057 -9 1057 -9 950 10 c 1,54,-1
 950 109 l 1,55,56
 805 -27 805 -27 614 24 c 1,57,-1
 468 -4 l 1,58,59
 125 95 125 95 130 215 c 1,60,61
 115 294 115 294 44 435 c 1,62,-1
 30 652 l 1,63,-1
 59 771 l 1,64,65
 66 1320 66 1320 137 1317 c 1,66,67
 237 1449 237 1449 301 1477 c 1,68,-1
 360 1463 l 1,69,-1
 372 1462 l 2,70,71
 405 1461 405 1461 532 1539 c 1,72,-1
 700 1531 l 1,0,1
EndSplineSet
EndChar

StartChar: H
Encoding: 72 72 43
Width: 1200
Flags: W
LayerCount: 2
Fore
SplineSet
896 807 m 1,0,-1
 922 902 l 1,1,-1
 914 988 l 1,2,-1
 930 1061 l 1,3,4
 900 1125 900 1125 891 1274 c 1,5,6
 772 1354 772 1354 776 1439 c 1,7,8
 806 1463 806 1463 998 1479 c 1,9,10
 1169 1485 1169 1485 1162 1350 c 1,11,12
 1142 1289 1142 1289 1074 1292 c 1,13,-1
 1015 1305 l 1,14,-1
 988 1256 l 1,15,-1
 1043 1130 l 1,16,-1
 1029 1082 l 1,17,-1
 1044 896 l 1,18,-1
 1011 712 l 1,19,-1
 1045 389 l 1,20,-1
 1028 291 l 1,21,22
 1018 82 1018 82 1131 79 c 1,23,-1
 1153 40 l 1,24,-1
 1153 28 l 1,25,-1
 1114 -7 l 1,26,-1
 1053 -4 l 1,27,-1
 867 -9 l 1,28,29
 758 11 758 11 759 44 c 0,30,31
 761 76 761 76 872 101 c 1,32,-1
 899 149 l 1,33,-1
 918 296 l 1,34,-1
 917 531 l 1,35,-1
 920 593 l 1,36,-1
 937 704 l 1,37,-1
 919 740 l 1,38,39
 858 674 858 674 803 676 c 2,40,-1
 539 683 l 1,41,42
 279 644 279 644 271 474 c 1,43,44
 327 88 327 88 425 82 c 1,45,-1
 436 70 l 1,46,-1
 435 45 l 2,47,48
 433 -6 433 -6 123 -1 c 0,49,50
 45 1 45 1 43 52 c 1,51,-1
 45 89 l 1,52,53
 160 190 160 190 161 219 c 2,54,-1
 135 702 l 1,55,-1
 157 898 l 1,56,-1
 134 949 l 1,57,-1
 152 1072 l 1,58,-1
 171 1308 l 1,59,60
 163 1354 163 1354 104 1336 c 1,61,-1
 45 1386 l 1,62,-1
 35 1436 l 1,63,64
 37 1488 37 1488 283 1498 c 1,65,66
 439 1491 439 1491 522 1466 c 1,67,-1
 545 1421 l 1,68,-1
 506 1333 l 1,69,70
 301 1336 301 1336 321 1261 c 1,71,-1
 319 1225 l 1,72,-1
 341 1200 l 1,73,-1
 346 1112 l 2,74,75
 342 1113 342 1113 338 1113 c 0,76,77
 299 1069 299 1069 298 1028 c 2,78,-1
 296 991 l 1,79,-1
 323 960 l 1,80,-1
 352 832 l 1,81,82
 340 830 340 830 325 829 c 1,83,-1
 323 792 l 2,84,85
 322 767 322 767 359 765 c 1,86,-1
 557 818 l 1,87,-1
 697 801 l 1,88,-1
 896 807 l 1,0,-1
EndSplineSet
EndChar

StartChar: I
Encoding: 73 73 44
Width: 1200
Flags: W
LayerCount: 2
Fore
SplineSet
1041 1520 m 1,0,1
 1097 1433 1097 1433 1039 1382 c 1,2,-1
 864 1344 l 1,3,-1
 863 1320 l 1,4,-1
 755 1335 l 1,5,-1
 743 1335 l 1,6,-1
 671 1324 l 1,7,-1
 613 1362 l 1,8,-1
 601 1362 l 1,9,-1
 576 1339 l 1,10,-1
 574 1315 l 1,11,12
 690 1237 690 1237 689 1216 c 1,13,-1
 647 1097 l 1,14,-1
 677 988 l 1,15,16
 673 904 673 904 649 904 c 1,17,-1
 653 760 l 1,18,-1
 651 724 l 1,19,-1
 627 496 l 1,20,-1
 706 170 l 1,21,-1
 752 145 l 1,22,-1
 886 178 l 1,23,-1
 967 133 l 1,24,-1
 1088 142 l 1,25,26
 1158 116 1158 116 1157 92 c 2,27,-1
 1156 68 l 2,28,29
 1154 32 1154 32 1045 11 c 1,30,31
 962 32 962 32 963 49 c 1,32,33
 889 -2 889 -2 793 0 c 2,34,-1
 265 12 l 1,35,-1
 157 2 l 1,36,37
 39 40 39 40 43 113 c 1,38,39
 69 167 69 167 94 172 c 1,40,-1
 250 169 l 1,41,-1
 396 213 l 1,42,-1
 442 164 l 1,43,-1
 465 164 l 1,44,-1
 491 187 l 1,45,-1
 500 367 l 1,46,-1
 515 415 l 1,47,-1
 486 560 l 1,48,-1
 496 740 l 1,49,-1
 525 835 l 1,50,-1
 496 968 l 1,51,-1
 520 1196 l 1,52,53
 529 1364 529 1364 409 1367 c 2,54,-1
 217 1371 l 1,55,56
 111 1397 111 1397 113 1433 c 2,57,-1
 115 1469 l 2,58,59
 116 1499 116 1499 164 1504 c 1,60,-1
 308 1489 l 1,61,-1
 513 1508 l 1,62,-1
 619 1470 l 1,63,-1
 812 1501 l 1,64,-1
 919 1487 l 1,65,-1
 1041 1520 l 1,0,1
EndSplineSet
EndChar

StartChar: J
Encoding: 74 74 45
Width: 1199
Flags: W
LayerCount: 2
Fore
SplineSet
731 1514 m 1,0,-1
 803 1515 l 1,1,2
 1128 1485 1128 1485 1129 1436 c 2,3,-1
 1130 1387 l 1,4,5
 1122 1339 1122 1339 929 1259 c 1,6,-1
 917 1247 l 1,7,-1
 917 1222 l 1,8,-1
 943 1124 l 1,9,-1
 910 1025 l 1,10,-1
 910 1001 l 2,11,12
 911 956 911 956 960 903 c 1,13,-1
 960 891 l 1,14,15
 913 838 913 838 914 791 c 2,16,-1
 915 767 l 1,17,-1
 942 632 l 1,18,-1
 907 557 l 1,19,-1
 923 361 l 1,20,21
 875 101 875 101 809 100 c 1,22,23
 739 15 739 15 536 -41 c 1,24,-1
 440 -43 l 2,25,26
 343 -46 343 -46 159 171 c 1,27,-1
 95 367 l 1,28,29
 91 564 91 564 343 569 c 1,30,-1
 355 570 l 1,31,32
 369 537 369 537 465 486 c 1,33,-1
 477 474 l 1,34,-1
 477 462 l 2,35,36
 477 442 477 442 359 373 c 1,37,-1
 337 286 l 1,38,-1
 337 274 l 2,39,40
 338 235 338 235 424 128 c 1,41,42
 425 91 425 91 473 92 c 0,43,44
 797 99 797 99 788 542 c 1,45,-1
 761 653 l 1,46,-1
 795 776 l 1,47,-1
 794 813 l 1,48,49
 720 910 720 910 719 959 c 1,50,-1
 765 1059 l 1,51,-1
 739 1157 l 1,52,-1
 785 1232 l 1,53,-1
 785 1256 l 2,54,55
 784 1276 784 1276 555 1337 c 1,56,-1
 518 1398 l 1,57,-1
 517 1410 l 2,58,59
 516 1462 516 1462 731 1514 c 1,0,-1
EndSplineSet
EndChar

StartChar: K
Encoding: 75 75 46
Width: 1199
Flags: W
LayerCount: 2
Fore
SplineSet
423 1271 m 1,0,1
 493 1285 493 1285 523 1198 c 1,2,3
 457 1090 457 1090 405 1161 c 1,4,-1
 391 1215 l 1,5,6
 445 1200 445 1200 423 1271 c 1,0,1
849 135 m 1,7,-1
 849 193 l 1,8,-1
 667 434 l 1,9,10
 602 630 602 630 480 748 c 1,11,12
 409 680 409 680 355 618 c 1,13,-1
 341 492 l 1,14,-1
 353 290 l 1,15,-1
 339 177 l 1,16,17
 339 118 339 118 407 141 c 1,18,-1
 499 117 l 1,19,-1
 506 26 l 1,20,21
 500 24 500 24 494 22 c 1,22,-1
 494 18 l 1,23,24
 408 -10 408 -10 118 -13 c 1,25,26
 22 19 22 19 22 40 c 2,27,-1
 22 78 l 2,28,29
 22 84 22 84 42 96 c 0,30,31
 69 117 69 117 190 165 c 1,32,-1
 203 223 l 1,33,-1
 203 249 l 1,34,-1
 176 477 l 1,35,-1
 191 615 l 1,36,-1
 178 754 l 1,37,-1
 192 867 l 1,38,-1
 165 957 l 1,39,-1
 194 1196 l 1,40,41
 195 1347 195 1347 43 1377 c 1,42,-1
 15 1403 l 1,43,-1
 16 1466 l 2,44,45
 20 1482 20 1482 45 1497 c 0,46,47
 63 1510 63 1510 97 1523 c 1,48,-1
 235 1480 l 1,49,-1
 374 1514 l 1,50,-1
 581 1507 l 1,51,-1
 609 1481 l 1,52,-1
 609 1468 l 1,53,54
 580 1426 580 1426 539 1401 c 0,55,56
 470 1352 470 1352 367 1354 c 1,57,-1
 345 1325 l 1,58,-1
 357 959 l 1,59,-1
 357 934 l 1,60,61
 315 889 315 889 315 847 c 2,62,-1
 315 834 l 2,63,64
 315 825 315 825 332 835 c 0,65,66
 358 854 358 854 408 900 c 1,67,68
 429 964 429 964 528 1031 c 1,69,70
 562 1129 562 1129 765 1297 c 1,71,-1
 765 1335 l 1,72,-1
 626 1450 l 1,73,-1
 626 1462 l 2,74,75
 626 1478 626 1478 646 1487 c 1,76,77
 661 1502 661 1502 707 1508 c 1,78,-1
 847 1496 l 1,79,-1
 1040 1525 l 1,80,-1
 1124 1525 l 1,81,-1
 1166 1487 l 1,82,83
 1159 1483 1159 1483 1153 1480 c 1,84,-1
 1154 1479 l 1,85,86
 951 1365 951 1365 961 1373 c 1,87,88
 939 1366 939 1366 926 1358 c 0,89,90
 917 1351 917 1351 917 1343 c 2,91,-1
 917 1318 l 1,92,93
 959 1272 959 1272 941 1225 c 1,94,-1
 941 1212 l 2,95,96
 941 1199 941 1199 883 1161 c 0,97,98
 839 1131 839 1131 751 1082 c 1,99,100
 627 947 627 947 627 863 c 0,101,102
 627 822 627 822 763 696 c 1,103,104
 862 421 862 421 961 254 c 1,105,-1
 1001 176 l 1,106,107
 1047 112 1047 112 1137 112 c 1,108,-1
 1179 61 l 1,109,-1
 1179 49 l 1,110,111
 1194 20 1194 20 1166 7 c 1,112,113
 1150 -10 1150 -10 1087 -10 c 2,114,-1
 779 -10 l 2,115,116
 707 -10 707 -10 695 28 c 1,117,-1
 695 53 l 2,118,119
 695 68 695 68 722 84 c 0,120,121
 753 108 753 108 849 135 c 1,7,-1
EndSplineSet
EndChar

StartChar: L
Encoding: 76 76 47
Width: 1199
Flags: W
LayerCount: 2
Fore
SplineSet
274 1549 m 1,0,-1
 310 1549 l 1,1,-1
 334 1525 l 1,2,-1
 334 1489 l 1,3,-1
 310 1453 l 1,4,-1
 310 1417 l 1,5,-1
 346 1417 l 1,6,7
 383 1501 383 1501 574 1501 c 1,8,-1
 682 1513 l 1,9,10
 754 1489 754 1489 754 1465 c 2,11,-1
 754 1429 l 2,12,13
 754 1378 754 1378 490 1345 c 1,14,-1
 478 1333 l 1,15,-1
 478 1321 l 1,16,-1
 466 966 l 1,17,18
 394 965 394 965 394 870 c 1,19,20
 482 840 482 840 466 727 c 1,21,-1
 466 631 l 1,22,-1
 478 559 l 1,23,-1
 442 367 l 1,24,-1
 454 151 l 1,25,-1
 514 127 l 1,26,-1
 736 151 l 1,27,-1
 748 151 l 1,28,-1
 844 127 l 1,29,-1
 880 127 l 1,30,31
 941 131 941 131 953 263 c 1,32,33
 973 263 973 263 989 479 c 1,34,35
 1029 515 1029 515 1061 523 c 1,36,37
 1133 498 1133 498 1133 427 c 1,38,-1
 1109 355 l 1,39,-1
 1109 343 l 1,40,-1
 1145 223 l 1,41,-1
 1145 151 l 2,42,43
 1145 -5 1145 -5 928 -5 c 2,44,-1
 868 -5 l 1,45,-1
 334 7 l 1,46,-1
 123 -12 l 1,47,48
 39 18 39 18 39 72 c 1,49,50
 111 192 111 192 171 192 c 1,51,52
 255 115 255 115 274 163 c 1,53,-1
 274 199 l 1,54,55
 238 243 238 243 238 283 c 1,56,57
 274 283 274 283 274 331 c 1,58,-1
 286 331 l 1,59,-1
 238 403 l 1,60,-1
 238 415 l 1,61,-1
 262 523 l 1,62,-1
 202 990 l 1,63,64
 202 1073 202 1073 238 1170 c 1,65,66
 238 1357 238 1357 134 1357 c 0,67,68
 54 1357 54 1357 38 1405 c 1,69,-1
 38 1417 l 2,70,71
 38 1495 38 1495 110 1525 c 1,72,73
 211 1501 211 1501 274 1549 c 1,0,-1
EndSplineSet
EndChar

StartChar: M
Encoding: 77 77 48
Width: 1200
Flags: W
LayerCount: 2
Fore
SplineSet
365 1035 m 1,0,1
 326 1043 326 1043 328 1132 c 1,2,-1
 304 1133 l 1,3,-1
 266 1098 l 1,4,-1
 266 1086 l 2,5,6
 264 1038 264 1038 287 1000 c 1,7,8
 268 1001 268 1001 224 919 c 1,9,10
 312 621 312 621 309 562 c 2,11,-1
 290 371 l 1,12,13
 296 209 296 209 286 146 c 1,14,-1
 423 84 l 1,15,-1
 376 11 l 1,16,17
 227 -24 227 -24 48 4 c 1,18,19
 0 6 0 6 35 118 c 1,20,-1
 103 139 l 1,21,-1
 110 227 l 1,22,-1
 110 362 l 1,23,24
 195 401 195 401 133 449 c 1,25,-1
 118 570 l 1,26,-1
 131 706 l 1,27,-1
 152 922 l 1,28,-1
 131 1019 l 1,29,-1
 163 1209 l 1,30,31
 192 1348 192 1348 92 1352 c 1,32,33
 42 1371 42 1371 22 1415 c 1,34,35
 26 1511 26 1511 146 1506 c 1,36,-1
 259 1494 l 1,37,-1
 343 1490 l 1,38,39
 413 1438 413 1438 411 1392 c 0,40,41
 410 1372 410 1372 389 1323 c 1,42,43
 402 1299 402 1299 419 1261 c 1,44,45
 439 1254 439 1254 489 1094 c 1,46,-1
 538 1011 l 1,47,48
 536 916 536 916 578 772 c 1,49,50
 620 753 620 753 652 732 c 1,51,52
 719 1023 719 1023 785 1148 c 1,53,54
 793 1338 793 1338 907 1492 c 1,55,-1
 1004 1512 l 1,56,-1
 1105 1505 l 1,57,58
 1177 1495 1177 1495 1175 1466 c 2,59,-1
 1175 1454 l 1,60,61
 1143 1387 1143 1387 1082 1342 c 1,62,-1
 1061 1278 l 1,63,64
 1110 1284 1110 1284 1070 1218 c 1,65,66
 1074 943 1074 943 1072 900 c 1,67,-1
 1115 767 l 1,68,-1
 1052 596 l 1,69,-1
 1052 584 l 1,70,-1
 1099 482 l 1,71,-1
 1080 245 l 1,72,-1
 1078 197 l 2,73,74
 1074 104 1074 104 1183 78 c 1,75,-1
 1194 66 l 1,76,-1
 1194 54 l 1,77,78
 1189 21 1189 21 1083 -13 c 1,79,-1
 1058 -6 l 1,80,-1
 890 0 l 2,81,82
 752 6 752 6 736 67 c 1,83,84
 738 91 738 91 759 134 c 1,85,-1
 873 181 l 1,86,-1
 868 362 l 1,87,-1
 896 527 l 1,88,-1
 910 675 l 1,89,-1
 963 793 l 1,90,91
 920 915 920 915 923 999 c 0,92,93
 922 1049 922 1049 941 1118 c 1,94,95
 912 1147 912 1147 888 1148 c 1,96,97
 861 1075 861 1075 839 990 c 2,98,-1
 825 931 l 1,99,-1
 741 621 l 1,100,-1
 730 613 l 1,101,102
 652 440 652 440 605 442 c 1,103,104
 404 519 404 519 429 658 c 1,105,-1
 492 728 l 1,106,-1
 493 740 l 1,107,108
 388 827 388 827 393 960 c 1,109,-1
 365 1035 l 1,0,1
EndSplineSet
EndChar

StartChar: N
Encoding: 78 78 49
Width: 1200
Flags: W
LayerCount: 2
Fore
SplineSet
1107 1491 m 1,0,-1
 1156 1491 l 1,1,-1
 1173 1392 l 1,2,3
 1112 1359 1112 1359 1037 1382 c 1,4,-1
 1029 1311 l 1,5,-1
 1029 1298 l 1,6,-1
 1044 1187 l 1,7,-1
 1037 978 l 1,8,-1
 1062 583 l 1,9,-1
 1040 496 l 1,10,-1
 1054 410 l 1,11,12
 1017 352 1017 352 1018 310 c 1,13,14
 1058 235 1058 235 1061 114 c 0,15,16
 1064 -9 1064 -9 896 -9 c 1,17,18
 847 7 847 7 823 52 c 1,19,-1
 822 77 l 1,20,-1
 869 139 l 1,21,-1
 868 176 l 1,22,-1
 856 176 l 1,23,-1
 772 163 l 1,24,25
 635 387 635 387 618 595 c 1,26,-1
 578 643 l 1,27,28
 577 663 577 663 493 768 c 1,29,30
 442 978 442 978 392 978 c 2,31,-1
 380 978 l 2,32,33
 306 978 306 978 263 879 c 1,34,35
 337 784 337 784 338 743 c 1,36,-1
 305 632 l 1,37,-1
 356 509 l 1,38,-1
 322 422 l 1,39,-1
 337 287 l 1,40,-1
 304 176 l 1,41,42
 305 122 305 122 497 114 c 1,43,-1
 522 77 l 1,44,-1
 523 40 l 2,45,46
 524 0 524 0 272 -9 c 1,47,48
 56 3 56 3 55 52 c 2,49,-1
 54 89 l 1,50,-1
 208 176 l 1,51,-1
 230 250 l 1,52,53
 168 333 168 333 167 373 c 1,54,-1
 200 484 l 1,55,-1
 174 570 l 1,56,-1
 184 681 l 1,57,-1
 157 780 l 1,58,59
 158 930 158 930 184 997 c 1,60,-1
 196 997 l 1,61,-1
 198 1177 l 1,62,-1
 195 1313 l 1,63,64
 171 1379 171 1379 115 1351 c 1,65,66
 71 1372 71 1372 33 1434 c 1,67,68
 80 1508 80 1508 151 1508 c 2,69,-1
 163 1508 l 1,70,71
 380 1491 380 1491 381 1422 c 0,72,73
 383 1355 383 1355 443 1348 c 1,74,75
 480 1313 480 1313 482 1212 c 1,76,77
 607 1029 607 1029 608 990 c 2,78,-1
 609 965 l 1,79,-1
 597 953 l 1,80,81
 598 916 598 916 646 916 c 1,82,83
 658 846 658 846 658 817 c 1,84,-1
 675 718 l 1,85,86
 749 621 749 621 790 422 c 1,87,-1
 826 398 l 1,88,-1
 862 398 l 2,89,90
 890 398 890 398 897 459 c 1,91,-1
 844 644 l 1,92,-1
 901 780 l 1,93,-1
 882 953 l 1,94,-1
 901 1150 l 1,95,96
 899 1376 899 1376 852 1381 c 2,97,-1
 773 1389 l 1,98,-1
 726 1446 l 1,99,100
 748 1496 748 1496 796 1496 c 2,101,-1
 941 1505 l 1,102,103
 1076 1520 1076 1520 1107 1491 c 1,0,-1
EndSplineSet
EndChar

StartChar: O
Encoding: 79 79 50
Width: 1200
Flags: W
LayerCount: 2
Fore
SplineSet
662 1534 m 1,0,-1
 935 1418 l 1,1,-1
 946 1405 l 1,2,-1
 946 1394 l 1,3,-1
 955 1331 l 1,4,5
 1206 1050 1206 1050 1137 689 c 1,6,-1
 1156 532 l 1,7,8
 1064 399 1064 399 1051 283 c 1,9,10
 1011 269 1011 269 900 73 c 1,11,12
 689 -28 689 -28 620 -25 c 1,13,-1
 322 45 l 1,14,15
 44 327 44 327 59 762 c 1,16,17
 82 793 82 793 105 1049 c 1,18,-1
 97 1157 l 1,19,20
 194 1370 194 1370 260 1368 c 0,21,22
 346 1365 346 1365 372 1460 c 1,23,24
 399 1483 399 1483 613 1511 c 1,25,-1
 662 1534 l 1,0,-1
353 1202 m 1,26,-1
 301 1150 l 1,27,28
 272 1151 272 1151 220 913 c 1,29,-1
 220 901 l 1,30,31
 193 802 193 802 192 769 c 1,32,33
 202 718 202 718 200 661 c 1,34,-1
 210 601 l 1,35,-1
 241 545 l 1,36,-1
 260 412 l 1,37,-1
 259 376 l 1,38,39
 337 317 337 317 336 289 c 2,40,-1
 335 253 l 1,41,-1
 412 198 l 1,42,-1
 411 186 l 1,43,-1
 458 148 l 1,44,45
 508 97 508 97 748 186 c 1,46,47
 869 237 869 237 874 362 c 1,48,49
 974 491 974 491 977 562 c 2,50,-1
 986 826 l 1,51,52
 941 1275 941 1275 704 1340 c 1,53,-1
 680 1341 l 2,54,55
 537 1346 537 1346 434 1287 c 1,56,-1
 353 1202 l 1,26,-1
EndSplineSet
EndChar

StartChar: P
Encoding: 80 80 51
Width: 1201
Flags: W
LayerCount: 2
Fore
SplineSet
97 1506 m 1,0,-1
 241 1494 l 1,1,-1
 421 1494 l 1,2,-1
 637 1506 l 1,3,4
 936 1506 936 1506 1153 1212 c 1,5,-1
 1153 1163 l 2,6,7
 1153 831 1153 831 913 709 c 0,8,9
 859 685 859 685 757 685 c 2,10,-1
 469 685 l 2,11,12
 451 685 451 685 433 636 c 1,13,-1
 445 366 l 1,14,-1
 421 231 l 1,15,16
 421 153 421 153 577 133 c 1,17,-1
 589 121 l 1,18,-1
 589 72 l 2,19,20
 589 -14 589 -14 121 -14 c 2,21,-1
 109 -14 l 1,22,23
 73 -1 73 -1 73 60 c 2,24,-1
 73 96 l 1,25,-1
 121 145 l 1,26,-1
 241 109 l 1,27,-1
 265 109 l 1,28,-1
 301 145 l 1,29,-1
 301 158 l 1,30,-1
 229 366 l 1,31,-1
 241 734 l 1,32,-1
 229 807 l 1,33,-1
 241 844 l 1,34,-1
 229 1016 l 1,35,-1
 229 1126 l 1,36,-1
 253 1285 l 1,37,38
 224 1383 224 1383 61 1383 c 1,39,-1
 37 1420 l 1,40,-1
 37 1457 l 1,41,-1
 97 1506 l 1,0,-1
397 1359 m 1,42,-1
 445 1212 l 1,43,44
 433 1025 433 1025 397 918 c 1,45,46
 397 795 397 795 673 795 c 2,47,-1
 721 795 l 1,48,49
 973 849 973 849 973 1028 c 1,50,-1
 985 1077 l 1,51,52
 985 1322 985 1322 853 1322 c 1,53,-1
 673 1371 l 1,54,-1
 637 1371 l 1,55,-1
 565 1359 l 1,56,-1
 433 1396 l 1,57,-1
 421 1396 l 2,58,59
 397 1396 397 1396 397 1359 c 1,42,-1
EndSplineSet
EndChar

StartChar: Q
Encoding: 81 81 52
Width: 1198
Flags: W
LayerCount: 2
Fore
SplineSet
1092 634 m 1,0,1
 1044 625 1044 625 1041 577 c 1,2,-1
 1076 551 l 1,3,-1
 1097 550 l 1,4,-1
 1107 419 l 1,5,6
 1100 419 1100 419 1092 418 c 1,7,8
 1089 372 1089 372 1008 218 c 1,9,-1
 942 174 l 1,10,11
 861 67 861 67 795 64 c 1,12,13
 823 -58 823 -58 852 -60 c 1,14,-1
 883 -88 l 1,15,16
 1029 36 1029 36 1082 34 c 1,17,-1
 1142 43 l 1,18,19
 1201 23 1201 23 1197 -43 c 2,20,-1
 1196 -67 l 1,21,22
 1089 -164 1089 -164 1065 -253 c 1,23,-1
 956 -272 l 1,24,-1
 908 -270 l 1,25,26
 753 -235 753 -235 711 -5 c 1,27,-1
 677 32 l 1,28,-1
 526 -23 l 1,29,30
 236 82 236 82 178 198 c 1,31,32
 66 380 66 380 22 614 c 1,33,-1
 41 745 l 1,34,-1
 22 830 l 1,35,-1
 40 926 l 1,36,-1
 31 974 l 1,37,38
 108 1074 108 1074 117 1222 c 1,39,-1
 247 1396 l 1,40,41
 320 1501 320 1501 481 1493 c 1,42,-1
 615 1523 l 1,43,-1
 935 1447 l 1,44,45
 1135 1163 1135 1163 1128 1041 c 0,46,47
 1123 962 1123 962 1130 894 c 1,48,-1
 1129 882 l 1,49,-1
 1127 825 l 1,50,-1
 1125 777 l 2,51,52
 1124 771 1124 771 1134 761 c 1,53,-1
 1099 632 l 1,54,-1
 1092 634 l 1,0,1
178 872 m 1,56,-1
 174 800 l 1,57,-1
 168 643 l 1,58,-1
 165 595 l 2,59,60
 161 526 161 526 258 338 c 1,61,-1
 270 326 l 1,62,-1
 282 325 l 2,63,64
 363 321 363 321 494 471 c 1,65,-1
 543 481 l 1,66,67
 643 476 643 476 728 352 c 1,68,-1
 746 296 l 1,69,-1
 770 204 l 1,70,71
 871 333 871 333 945 374 c 1,72,73
 965 508 965 508 968 556 c 1,74,-1
 961 653 l 1,75,-1
 989 724 l 1,76,77
 985 1132 985 1132 905 1136 c 1,78,79
 912 1256 912 1256 714 1374 c 1,80,81
 437 1351 437 1351 434 1303 c 1,82,83
 381 1212 381 1212 277 1182 c 1,84,55
 165 1004 165 1004 178 872 c 1,56,-1
434 273 m 1,85,-1
 351 214 l 1,86,-1
 509 110 l 1,87,-1
 545 108 l 1,88,89
 670 178 670 178 656 137 c 1,90,91
 642 315 642 315 576 312 c 1,92,93
 513 361 513 361 434 273 c 1,85,-1
EndSplineSet
EndChar

StartChar: R
Encoding: 82 82 53
Width: 1200
Flags: W
LayerCount: 2
Fore
SplineSet
492 1501 m 1,0,1
 1020 1483 1020 1483 1011 1243 c 1,2,3
 1093 1165 1093 1165 1090 1096 c 0,4,5
 1086 983 1086 983 899 791 c 1,6,7
 861 734 861 734 859 660 c 1,8,-1
 927 562 l 1,9,-1
 927 550 l 1,10,-1
 899 442 l 1,11,12
 910 130 910 130 962 122 c 1,13,14
 1026 131 1026 131 1064 257 c 1,15,16
 1072 299 1072 299 1143 296 c 2,17,-1
 1155 296 l 1,18,-1
 1178 271 l 1,19,-1
 1151 176 l 1,20,-1
 1122 48 l 1,21,22
 1069 -41 1069 -41 942 2 c 1,23,24
 801 44 801 44 803 110 c 1,25,26
 770 176 770 176 771 555 c 0,27,28
 775 675 775 675 619 680 c 1,29,-1
 489 721 l 1,30,-1
 453 722 l 1,31,32
 344 710 344 710 340 582 c 1,33,-1
 347 450 l 1,34,-1
 332 354 l 1,35,-1
 352 257 l 1,36,-1
 339 210 l 1,37,38
 337 148 337 148 539 107 c 1,39,-1
 573 58 l 1,40,-1
 573 46 l 2,41,42
 571 -26 571 -26 79 -9 c 1,43,44
 30 9 30 9 13 48 c 1,45,-1
 30 107 l 1,46,-1
 194 136 l 1,47,-1
 208 239 l 1,48,-1
 187 323 l 1,49,-1
 214 430 l 1,50,-1
 202 767 l 1,51,-1
 220 923 l 1,52,-1
 213 1067 l 1,53,-1
 227 1138 l 1,54,55
 167 1357 167 1357 151 1357 c 1,56,-1
 33 1433 l 1,57,-1
 34 1457 l 2,58,59
 36 1505 36 1505 180 1500 c 1,60,-1
 311 1472 l 1,61,-1
 492 1501 l 1,0,1
518 1340 m 1,62,-1
 453 1354 l 1,63,64
 419 1355 419 1355 365 1311 c 1,65,-1
 367 1055 l 1,66,-1
 365 997 l 1,67,-1
 352 928 l 1,68,-1
 394 868 l 1,69,70
 874 850 874 850 878 978 c 1,71,-1
 924 1046 l 1,72,-1
 924 1069 l 1,73,74
 836 1363 836 1363 661 1369 c 1,75,-1
 518 1340 l 1,62,-1
EndSplineSet
EndChar

StartChar: S
Encoding: 83 83 54
Width: 1198
Flags: W
LayerCount: 2
Fore
SplineSet
529 1490 m 1,0,-1
 829 1442 l 1,1,-1
 949 1466 l 1,2,3
 1081 1466 1081 1466 1081 1214 c 2,4,-1
 1081 1106 l 2,5,6
 1081 1010 1081 1010 985 1010 c 0,7,8
 915 1010 915 1010 865 1166 c 1,9,10
 733 1358 733 1358 541 1358 c 1,11,12
 313 1280 313 1280 313 1106 c 1,13,-1
 301 1034 l 1,14,15
 389 866 389 866 637 866 c 1,16,-1
 781 890 l 1,17,18
 837 890 837 890 937 770 c 1,19,20
 1129 706 1129 706 1129 566 c 1,21,-1
 1069 458 l 1,22,-1
 1117 362 l 1,23,24
 1117 162 1117 162 961 110 c 1,25,26
 853 14 853 14 697 14 c 2,27,-1
 553 14 l 2,28,29
 468 14 468 14 265 74 c 1,30,-1
 157 50 l 1,31,32
 61 208 61 208 61 482 c 1,33,34
 84 566 84 566 145 566 c 0,35,36
 201 566 201 566 241 386 c 1,37,38
 337 331 337 331 337 182 c 1,39,-1
 577 146 l 1,40,41
 865 146 865 146 865 290 c 1,42,43
 961 378 961 378 961 434 c 0,44,45
 961 539 961 539 793 686 c 1,46,47
 784 746 784 746 697 746 c 2,48,-1
 553 746 l 2,49,50
 376 746 376 746 229 914 c 1,51,52
 157 1061 157 1061 157 1118 c 2,53,-1
 157 1166 l 2,54,55
 157 1386 157 1386 433 1478 c 1,56,-1
 529 1490 l 1,0,-1
EndSplineSet
EndChar

StartChar: T
Encoding: 84 84 55
Width: 1198
Flags: W
LayerCount: 2
Fore
SplineSet
550 1511 m 1,0,-1
 682 1487 l 1,1,-1
 826 1499 l 1,2,-1
 934 1427 l 1,3,-1
 982 1427 l 1,4,-1
 1066 1499 l 1,5,6
 1120 1484 1120 1484 1120 1391 c 2,7,-1
 1120 1343 l 1,8,-1
 1144 1043 l 1,9,10
 1144 943 1144 943 1073 958 c 1,11,12
 1029 958 1029 958 1011 1043 c 1,13,14
 976 1043 976 1043 951 1091 c 1,15,-1
 963 1187 l 1,16,17
 914 1331 914 1331 802 1331 c 0,18,19
 734 1331 734 1331 694 1187 c 1,20,-1
 694 1163 l 1,21,22
 670 1000 670 1000 670 947 c 1,23,-1
 682 935 l 1,24,25
 658 860 658 860 646 623 c 1,26,27
 665 578 665 578 671 550 c 1,28,-1
 671 538 l 1,29,30
 682 489 682 489 682 443 c 1,31,-1
 707 334 l 1,32,-1
 707 322 l 1,33,-1
 694 263 l 1,34,-1
 694 215 l 2,35,36
 694 119 694 119 790 119 c 1,37,-1
 898 131 l 1,38,39
 994 99 994 99 994 71 c 2,40,-1
 994 47 l 2,41,42
 994 14 994 14 874 -12 c 1,43,-1
 646 0 l 1,44,-1
 382 0 l 2,45,46
 290 0 290 0 274 47 c 1,47,-1
 274 71 l 2,48,49
 274 115 274 115 454 131 c 1,50,51
 454 194 454 194 538 263 c 1,52,-1
 504 318 l 1,53,-1
 504 354 l 1,54,-1
 562 467 l 1,55,-1
 562 503 l 1,56,-1
 540 534 l 1,57,-1
 540 570 l 1,58,59
 562 662 562 662 562 707 c 1,60,-1
 526 815 l 1,61,-1
 562 923 l 1,62,-1
 538 1043 l 1,63,-1
 562 1115 l 1,64,-1
 562 1127 l 1,65,66
 490 1343 490 1343 334 1343 c 2,67,-1
 274 1343 l 1,68,69
 231 971 231 971 178 971 c 1,70,-1
 154 947 l 1,71,72
 87 947 87 947 34 1031 c 1,73,-1
 34 1055 l 1,74,75
 106 1131 106 1131 106 1175 c 1,76,-1
 82 1283 l 1,77,78
 118 1407 118 1407 226 1475 c 1,79,-1
 238 1475 l 1,80,-1
 478 1463 l 1,81,82
 478 1487 478 1487 550 1511 c 1,0,-1
EndSplineSet
EndChar

StartChar: U
Encoding: 85 85 56
Width: 1200
Flags: W
LayerCount: 2
Fore
SplineSet
1015 1512 m 1,0,1
 1175 1469 1175 1469 1175 1424 c 2,2,-1
 1175 1379 l 1,3,4
 1170 1354 1170 1354 1054 1354 c 1,5,6
 1032 1262 1032 1262 1041 1166 c 1,7,-1
 1024 1117 l 1,8,-1
 1027 1080 l 1,9,-1
 1051 1079 l 1,10,-1
 1075 839 l 1,11,-1
 1053 719 l 1,12,-1
 1029 611 l 1,13,-1
 1053 515 l 1,14,15
 1053 206 1053 206 921 109 c 1,16,17
 713 -8 713 -8 633 -7 c 0,18,19
 270 -2 270 -2 177 299 c 1,20,-1
 153 695 l 1,21,-1
 177 815 l 1,22,-1
 117 936 l 1,23,-1
 153 1019 l 1,24,25
 153 1352 153 1352 33 1405 c 1,26,-1
 21 1417 l 1,27,-1
 21 1441 l 2,28,29
 21 1504 21 1504 351 1509 c 1,30,31
 476 1498 476 1498 510 1447 c 1,32,33
 510 1384 510 1384 474 1375 c 1,34,35
 430 1376 430 1376 378 1362 c 1,36,37
 318 1355 318 1355 285 1257 c 1,38,39
 333 1206 333 1206 333 1161 c 1,40,-1
 285 1005 l 1,41,-1
 285 981 l 1,42,-1
 297 765 l 1,43,-1
 333 669 l 1,44,45
 333 601 333 601 285 501 c 1,46,-1
 345 357 l 1,47,-1
 333 261 l 1,48,49
 429 223 429 223 501 138 c 1,50,-1
 669 112 l 1,51,52
 756 111 756 111 885 313 c 1,53,-1
 897 457 l 1,54,-1
 873 625 l 1,55,-1
 943 769 l 1,56,-1
 921 906 l 1,57,-1
 916 1287 l 1,58,59
 895 1346 895 1346 739 1396 c 1,60,-1
 739 1444 l 2,61,62
 739 1495 739 1495 1015 1512 c 1,0,1
443 449 m 1,64,65
 513 462 513 462 488 410 c 1,66,-1
 447 357 l 1,67,68
 367 341 367 341 364 437 c 1,69,63
 388 520 388 520 443 449 c 1,64,65
EndSplineSet
EndChar

StartChar: V
Encoding: 86 86 57
Width: 1201
Flags: W
LayerCount: 2
Fore
SplineSet
817 1534 m 1,0,-1
 913 1510 l 1,1,-1
 1129 1522 l 1,2,3
 1177 1504 1177 1504 1177 1486 c 2,4,-1
 1177 1450 l 1,5,6
 1171 1425 1171 1425 1117 1402 c 1,7,-1
 1045 1414 l 1,8,-1
 1033 1414 l 1,9,10
 991 1352 991 1352 1016 1297 c 1,11,-1
 1028 1297 l 1,12,-1
 1022 1261 l 1,13,14
 1010 1067 1010 1067 973 1088 c 1,15,-1
 949 1064 l 1,16,17
 933 983 933 983 933 954 c 0,18,19
 933 900 933 900 937 812 c 1,20,21
 927 802 927 802 891 802 c 1,22,-1
 879 790 l 1,23,-1
 879 766 l 1,24,-1
 865 584 l 1,25,26
 817 509 817 509 793 356 c 1,27,-1
 817 236 l 1,28,29
 721 187 721 187 721 92 c 0,30,31
 721 15 721 15 541 -28 c 1,32,33
 421 15 421 15 421 212 c 1,34,35
 349 446 349 446 349 584 c 1,36,-1
 373 644 l 1,37,38
 277 644 277 644 277 884 c 1,39,40
 205 1015 205 1015 205 1196 c 1,41,42
 117 1426 117 1426 33 1426 c 1,43,-1
 9 1462 l 1,44,-1
 9 1474 l 1,45,46
 39 1534 39 1534 129 1534 c 1,47,-1
 249 1486 l 1,48,49
 268 1546 268 1546 321 1546 c 1,50,-1
 494 1507 l 1,51,-1
 496 1410 l 1,52,53
 460 1368 460 1368 384 1357 c 1,54,-1
 300 1357 l 1,55,-1
 325 1220 l 1,56,57
 325 1191 325 1191 391 976 c 1,58,-1
 391 964 l 1,59,-1
 385 836 l 1,60,61
 389 789 389 789 445 695 c 1,62,-1
 469 635 l 1,63,64
 469 551 469 551 469 500 c 1,65,-1
 527 287 l 1,66,67
 551 239 551 239 587 239 c 1,68,69
 673 474 673 474 673 632 c 1,70,71
 704 632 704 632 721 728 c 1,72,-1
 783 802 l 1,73,74
 783 882 783 882 805 1016 c 1,75,-1
 805 1028 l 1,76,-1
 851 1234 l 1,77,-1
 889 1294 l 1,78,79
 889 1367 889 1367 768 1418 c 1,80,-1
 776 1529 l 1,81,-1
 817 1534 l 1,0,-1
EndSplineSet
EndChar

StartChar: W
Encoding: 87 87 58
Width: 1200
Flags: W
LayerCount: 2
Fore
SplineSet
716 716 m 1,0,1
 756 547 756 547 787 441 c 1,2,-1
 799 430 l 1,3,-1
 853 431 l 1,4,-1
 863 467 l 1,5,-1
 819 536 l 1,6,-1
 818 559 l 1,7,-1
 839 654 l 1,8,-1
 826 841 l 1,9,10
 869 862 869 862 868 925 c 1,11,12
 824 994 824 994 823 1029 c 1,13,14
 880 1049 880 1049 918 1220 c 1,15,-1
 929 1232 l 1,16,17
 901 1310 901 1310 774 1403 c 1,18,-1
 774 1426 l 2,19,20
 773 1473 773 1473 1002 1481 c 2,21,-1
 1035 1482 l 2,22,23
 1162 1486 1162 1486 1189 1416 c 1,24,-1
 1190 1393 l 2,25,26
 1190 1326 1190 1326 1082 1260 c 1,27,-1
 1040 1130 l 1,28,-1
 1052 1013 l 1,29,-1
 999 952 l 1,30,-1
 999 941 l 1,31,-1
 1044 825 l 1,32,33
 1045 790 1045 790 959 670 c 1,34,-1
 948 622 l 1,35,-1
 972 529 l 1,36,-1
 971 517 l 1,37,-1
 941 317 l 1,38,-1
 953 259 l 1,39,-1
 944 188 l 1,40,-1
 955 118 l 1,41,42
 904 11 904 11 793 7 c 2,43,-1
 749 6 l 2,44,45
 708 4 708 4 658 261 c 1,46,-1
 636 295 l 1,47,-1
 646 436 l 1,48,49
 644 517 644 517 606 663 c 1,50,-1
 585 714 l 1,51,-1
 550 750 l 1,52,53
 528 710 528 710 508 688 c 1,54,-1
 508 490 l 1,55,-1
 434 242 l 1,56,-1
 447 125 l 1,57,58
 366 16 366 16 306 14 c 0,59,60
 186 10 186 10 182 268 c 1,61,-1
 171 303 l 1,62,-1
 192 410 l 1,63,64
 124 587 124 587 122 783 c 1,65,-1
 142 889 l 1,66,-1
 107 1005 l 1,67,-1
 116 1123 l 1,68,69
 68 1288 68 1288 15 1366 c 1,70,-1
 14 1413 l 1,71,72
 20 1483 20 1483 46 1484 c 2,73,-1
 78 1485 l 1,74,75
 121 1451 121 1451 178 1453 c 1,76,-1
 243 1467 l 1,77,78
 297 1469 297 1469 331 1412 c 1,79,-1
 332 1400 l 2,80,81
 331 1379 331 1379 213 1302 c 1,82,-1
 202 1266 l 1,83,-1
 226 1150 l 1,84,-1
 205 1055 l 1,85,-1
 250 939 l 1,86,-1
 241 834 l 1,87,88
 285 765 285 765 285 729 c 1,89,-1
 232 646 l 1,90,91
 286 495 286 495 322 496 c 2,92,-1
 365 497 l 1,93,-1
 342 591 l 1,94,95
 342 611 342 611 406 722 c 1,96,-1
 397 745 l 1,97,-1
 427 910 l 1,98,-1
 427 992 l 1,99,100
 472 1076 472 1076 567 1079 c 1,101,102
 655 1061 655 1061 656 1035 c 2,103,-1
 646 894 l 1,104,-1
 724 768 l 1,105,-1
 725 733 l 2,106,107
 722 723 722 723 716 716 c 1,0,1
EndSplineSet
EndChar

StartChar: X
Encoding: 88 88 59
Width: 1200
Flags: W
LayerCount: 2
Fore
SplineSet
142 1503 m 1,0,-1
 307 1455 l 1,1,-1
 436 1503 l 1,2,3
 471 1503 471 1503 508 1359 c 1,4,5
 485 1320 485 1320 425 1285 c 1,6,7
 525 1059 525 1059 586 950 c 1,8,9
 706 1064 706 1064 705 1162 c 1,10,-1
 791 1239 l 1,11,-1
 814 1275 l 1,12,13
 814 1296 814 1296 684 1371 c 1,14,-1
 672 1431 l 1,15,-1
 706 1479 l 1,16,-1
 824 1467 l 1,17,18
 914 1503 914 1503 988 1503 c 2,19,-1
 1035 1503 l 1,20,21
 1165 1467 1165 1467 1166 1431 c 2,22,-1
 1166 1407 l 2,23,24
 1166 1374 1166 1374 908 1299 c 1,25,26
 873 1274 873 1274 851 1143 c 1,27,28
 759 1005 759 1005 760 843 c 1,29,30
 714 802 714 802 715 747 c 0,31,32
 716 647 716 647 871 435 c 1,33,-1
 860 399 l 1,34,-1
 968 195 l 1,35,-1
 1118 188 l 1,36,-1
 1165 152 l 1,37,-1
 1166 116 l 2,38,39
 1167 8 1167 8 1108 8 c 1,40,-1
 919 49 l 1,41,42
 676 15 676 15 675 63 c 1,43,-1
 666 113 l 1,44,45
 695 144 695 144 788 176 c 1,46,-1
 790 291 l 1,47,48
 620 552 620 552 596 660 c 1,49,-1
 557 577 l 1,50,-1
 506 507 l 1,51,-1
 461 376 l 1,52,-1
 450 255 l 1,53,54
 389 126 389 126 557 135 c 1,55,-1
 542 61 l 1,56,57
 542 22 542 22 299 15 c 1,58,-1
 111 15 l 1,59,60
 5 80 5 80 4 135 c 1,61,-1
 39 159 l 1,62,-1
 133 135 l 1,63,-1
 169 135 l 2,64,65
 192 135 192 135 192 171 c 0,66,67
 191 238 191 238 319 327 c 1,68,-1
 307 411 l 1,69,-1
 307 423 l 1,70,71
 343 461 343 461 410 627 c 1,72,73
 468 677 468 677 467 771 c 1,74,-1
 487 841 l 1,75,76
 415 1033 415 1033 310 1191 c 1,77,78
 309 1284 309 1284 96 1347 c 1,79,80
 96 1367 96 1367 25 1395 c 1,81,-1
 25 1431 l 1,82,83
 86 1503 86 1503 142 1503 c 1,0,-1
EndSplineSet
EndChar

StartChar: Y
Encoding: 89 89 60
Width: 1200
Flags: W
LayerCount: 2
Fore
SplineSet
575 803 m 1,0,1
 655 870 655 870 779 1098 c 2,2,-1
 858 1241 l 1,3,-1
 875 1328 l 1,4,5
 804 1360 804 1360 715 1379 c 1,6,-1
 735 1485 l 1,7,-1
 750 1482 l 1,8,-1
 752 1494 l 1,9,-1
 797 1484 l 1,10,-1
 845 1508 l 1,11,-1
 965 1496 l 1,12,-1
 1070 1515 l 1,13,14
 1198 1465 1198 1465 1198 1433 c 2,15,-1
 1198 1421 l 2,16,17
 1198 1390 1198 1390 1128 1332 c 1,18,-1
 1117 1315 l 1,19,-1
 1106 1315 l 1,20,-1
 1100 1306 l 1,21,-1
 1056 1307 l 1,22,-1
 1043 1307 l 1,23,-1
 968 1163 l 1,24,25
 934 1087 934 1087 903 1017 c 1,26,-1
 915 1017 l 1,27,28
 806 827 806 827 676 580 c 1,29,-1
 659 409 l 1,30,-1
 699 286 l 1,31,-1
 675 133 l 1,32,33
 693 85 693 85 711 85 c 2,34,-1
 747 85 l 1,35,-1
 844 111 l 1,36,-1
 925 97 l 1,37,38
 1014 67 1014 67 982 42 c 1,39,-1
 969 -17 l 1,40,-1
 954 -16 l 1,41,-1
 952 -26 l 1,42,-1
 642 -19 l 1,43,-1
 639 -22 l 1,44,-1
 631 -22 l 1,45,-1
 622 -31 l 1,46,-1
 610 -31 l 1,47,-1
 538 -19 l 1,48,-1
 430 -43 l 1,49,-1
 214 -31 l 1,50,-1
 178 4 l 1,51,-1
 178 40 l 1,52,-1
 202 76 l 1,53,-1
 212 75 l 1,54,-1
 219 85 l 1,55,-1
 363 73 l 1,56,-1
 427 78 l 1,57,58
 475 111 475 111 506 225 c 1,59,-1
 482 381 l 1,60,-1
 514 680 l 1,61,-1
 389 820 l 1,62,63
 272 929 272 929 152 1337 c 1,64,65
 76 1331 76 1331 4 1361 c 1,66,-1
 -8 1397 l 1,67,68
 -4 1425 -4 1425 63 1481 c 1,69,-1
 69 1481 l 1,70,71
 74 1485 74 1485 80 1490 c 1,72,-1
 150 1487 l 1,73,-1
 174 1487 l 1,74,-1
 306 1511 l 1,75,-1
 404 1480 l 1,76,-1
 548 1485 l 1,77,-1
 582 1396 l 1,78,79
 573 1393 573 1393 564 1390 c 1,80,-1
 565 1387 l 1,81,82
 386 1314 386 1314 319 1319 c 1,83,-1
 354 1219 l 1,84,85
 450 1072 450 1072 450 983 c 1,86,-1
 575 803 l 1,0,1
EndSplineSet
EndChar

StartChar: Z
Encoding: 90 90 61
Width: 1198
Flags: W
LayerCount: 2
Fore
SplineSet
708 1498 m 1,0,1
 1068 1481 1068 1481 1068 1402 c 0,2,3
 1068 1365 1068 1365 900 1162 c 1,4,5
 900 1106 900 1106 756 982 c 1,6,7
 726 770 726 770 564 634 c 1,8,9
 564 580 564 580 456 562 c 1,10,-1
 456 454 l 1,11,12
 411 238 411 238 288 238 c 1,13,-1
 276 226 l 1,14,-1
 276 178 l 1,15,-1
 312 142 l 1,16,-1
 768 154 l 2,17,18
 900 154 900 154 900 418 c 1,19,-1
 960 466 l 1,20,21
 1035 466 1035 466 1128 358 c 1,22,-1
 1116 214 l 1,23,-1
 1128 202 l 1,24,-1
 1128 190 l 2,25,26
 1128 133 1128 133 960 10 c 1,27,-1
 768 22 l 1,28,29
 684 22 684 22 684 -2 c 1,30,-1
 504 10 l 1,31,-1
 216 10 l 2,32,33
 108 10 108 10 108 190 c 0,34,35
 108 262 108 262 360 610 c 1,36,37
 405 610 405 610 432 718 c 1,38,-1
 504 766 l 1,39,-1
 492 826 l 1,40,-1
 492 838 l 1,41,-1
 588 922 l 1,42,43
 588 992 588 992 804 1246 c 1,44,-1
 816 1306 l 1,45,-1
 816 1318 l 1,46,-1
 780 1354 l 1,47,-1
 336 1354 l 2,48,49
 272 1354 272 1354 252 1306 c 1,50,-1
 276 1150 l 1,51,52
 276 1046 276 1046 192 994 c 1,53,-1
 156 994 l 1,54,55
 48 1010 48 1010 48 1102 c 2,56,-1
 48 1114 l 1,57,58
 108 1486 108 1486 180 1486 c 1,59,-1
 228 1474 l 1,60,-1
 708 1498 l 1,0,1
EndSplineSet
EndChar

StartChar: bracketleft
Encoding: 91 91 62
Width: 644
Flags: W
LayerCount: 2
Fore
SplineSet
321 1860 m 1,0,-1
 328 1853 l 1,1,-1
 361 1853 l 1,2,-1
 368 1860 l 1,3,4
 389 1847 389 1847 453 1847 c 0,5,6
 485 1847 485 1847 528 1850 c 1,7,-1
 575 1830 l 1,8,-1
 594 1776 l 1,9,10
 578 1690 578 1690 533 1690 c 0,11,12
 525 1690 525 1690 515 1693 c 1,13,14
 516 1688 516 1688 516 1684 c 0,15,16
 516 1645 516 1645 408 1643 c 1,17,18
 368 1604 368 1604 337 1533 c 1,19,20
 341 1389 341 1389 341 1360 c 0,21,22
 335 967 335 967 335 834 c 1,23,-1
 341 814 l 1,24,-1
 338 374 l 2,25,26
 338 352 338 352 385 261 c 1,27,-1
 428 187 l 1,28,-1
 495 194 l 1,29,-1
 501 194 l 1,30,31
 543 175 543 175 561 147 c 1,32,-1
 571 57 l 1,33,34
 561 14 561 14 488 0 c 1,35,-1
 261 -5 l 2,36,37
 250 -2 250 -2 241 5 c 1,38,39
 213 3 213 3 162 3 c 0,40,41
 50 3 50 3 50 77 c 0,42,43
 50 86 50 86 51 95 c 0,44,45
 71 225 71 225 88 327 c 1,46,-1
 95 724 l 1,47,-1
 72 1546 l 2,48,49
 69 1657 69 1657 68 1830 c 1,50,-1
 211 1853 l 1,51,-1
 255 1847 l 1,52,-1
 321 1860 l 1,0,-1
EndSplineSet
EndChar

StartChar: backslash
Encoding: 92 92 63
Width: 1007
Flags: W
LayerCount: 2
Fore
SplineSet
801 457 m 0,1,2
 801 435 801 435 880 285 c 0,3,4
 957 136 957 136 957 86 c 0,5,6
 957 68 957 68 948 63 c 2,7,-1
 941 59 l 2,8,9
 935 55 935 55 927 55 c 0,10,11
 877 55 877 55 768 206 c 1,12,-1
 772 208 l 1,13,-1
 699 318 l 1,14,-1
 661 392 l 2,15,16
 643 423 643 423 618 435 c 1,17,-1
 521 627 l 1,18,-1
 500 656 l 2,19,20
 501 656 501 656 501 658 c 0,21,22
 501 669 501 669 468 734 c 1,23,-1
 389 839 l 1,24,-1
 319 977 l 1,25,-1
 313 987 l 1,26,-1
 216 1124 l 1,27,-1
 163 1231 l 1,28,-1
 139 1272 l 1,29,-1
 130 1280 l 1,30,-1
 114 1340 l 1,31,32
 50 1451 50 1451 50 1493 c 0,33,34
 50 1508 50 1508 59 1514 c 2,35,-1
 70 1520 l 1,36,37
 81 1521 81 1521 91 1521 c 0,38,39
 148 1521 148 1521 170 1482 c 1,40,41
 284 1317 284 1317 317 1292 c 1,42,-1
 323 1282 l 1,43,-1
 333 1232 l 1,44,-1
 329 1230 l 1,45,-1
 443 1049 l 1,46,-1
 464 1006 l 1,47,-1
 506 948 l 1,48,-1
 512 938 l 1,49,-1
 515 925 l 1,50,-1
 584 814 l 1,51,-1
 643 711 l 1,52,-1
 802 460 l 2,53,0
 801 459 801 459 801 457 c 0,1,2
EndSplineSet
EndChar

StartChar: bracketright
Encoding: 93 93 64
Width: 644
Flags: W
LayerCount: 2
Fore
SplineSet
389 1847 m 1,0,-1
 433 1853 l 1,1,-1
 576 1830 l 1,2,3
 575 1657 575 1657 572 1546 c 2,4,-1
 549 724 l 1,5,-1
 556 327 l 1,6,7
 573 225 573 225 593 95 c 0,8,9
 594 86 594 86 594 77 c 0,10,11
 594 3 594 3 482 3 c 2,12,-1
 418 5 l 1,13,14
 363 -7 363 -7 252 -9 c 1,15,-1
 156 0 l 1,16,17
 83 14 83 14 73 57 c 1,18,-1
 83 147 l 1,19,20
 101 175 101 175 143 194 c 1,21,-1
 149 194 l 1,22,-1
 216 187 l 1,23,-1
 259 261 l 1,24,25
 306 352 306 352 306 374 c 2,26,-1
 303 814 l 1,27,-1
 309 834 l 1,28,29
 309 967 309 967 303 1360 c 0,30,31
 303 1389 303 1389 307 1533 c 1,32,33
 276 1604 276 1604 236 1643 c 1,34,35
 128 1645 128 1645 128 1684 c 0,36,37
 128 1688 128 1688 129 1693 c 1,38,39
 119 1690 119 1690 111 1690 c 0,40,41
 66 1690 66 1690 50 1776 c 1,42,-1
 69 1830 l 1,43,-1
 116 1850 l 1,44,45
 159 1847 159 1847 191 1847 c 0,46,47
 255 1847 255 1847 276 1860 c 1,48,-1
 283 1853 l 1,49,-1
 316 1853 l 1,50,-1
 323 1860 l 1,51,-1
 389 1847 l 1,0,-1
EndSplineSet
EndChar

StartChar: asciicircum
Encoding: 94 94 65
Width: 1099
Flags: W
LayerCount: 2
Fore
SplineSet
831 1103 m 1,0,-1
 802 1169 l 1,1,2
 772 1248 772 1248 714 1313 c 1,3,4
 641 1486 641 1486 568 1546 c 1,5,-1
 544 1546 l 1,6,-1
 520 1531 l 1,7,8
 507 1492 507 1492 495 1492 c 1,9,10
 470 1430 470 1430 462 1430 c 1,11,12
 415 1400 415 1400 398 1299 c 1,13,14
 349 1233 349 1233 340 1178 c 1,15,16
 312 1156 312 1156 292 1133 c 1,17,-1
 266 1070 l 1,18,-1
 219 1027 l 1,19,-1
 167 996 l 1,20,-1
 108 990 l 1,21,-1
 66 1030 l 1,22,-1
 50 1116 l 1,23,24
 50 1170 50 1170 152 1293 c 1,25,26
 188 1400 188 1400 234 1439 c 1,27,28
 265 1529 265 1529 311 1575 c 1,29,-1
 326 1603 l 1,30,-1
 326 1609 l 1,31,-1
 340 1638 l 1,32,33
 361 1657 361 1657 408 1749 c 1,34,-1
 436 1794 l 1,35,-1
 511 1821 l 1,36,-1
 561 1790 l 1,37,38
 573 1762 573 1762 602 1740 c 1,39,-1
 607 1706 l 1,40,41
 694 1568 694 1568 694 1541 c 1,42,43
 733 1508 733 1508 733 1488 c 1,44,45
 791 1414 791 1414 791 1381 c 1,46,47
 845 1334 845 1334 845 1308 c 0,48,49
 845 1261 845 1261 985 1158 c 1,50,51
 1011 1096 1011 1096 1049 1052 c 1,52,53
 1020 1041 1020 1041 1007 1034 c 2,54,-1
 970 1023 l 1,55,-1
 901 1021 l 1,56,-1
 831 1103 l 1,0,-1
EndSplineSet
EndChar

StartChar: underscore
Encoding: 95 95 66
Width: 1201
Flags: W
LayerCount: 2
Fore
SplineSet
210 161 m 1,0,-1
 255 158 l 1,1,-1
 266 158 l 1,2,-1
 366 133 l 1,3,-1
 553 156 l 1,4,5
 656 163 656 163 656 148 c 1,6,7
 700 166 700 166 781 168 c 2,8,-1
 804 169 l 1,9,-1
 816 161 l 1,10,-1
 827 169 l 1,11,-1
 976 174 l 1,12,-1
 1033 184 l 1,13,14
 1056 167 1056 167 1123 165 c 1,15,-1
 1158 149 l 1,16,-1
 1169 149 l 1,17,-1
 1217 146 l 1,18,19
 1229 113 1229 113 1234 95 c 2,20,-1
 1235 78 l 1,21,-1
 1235 73 l 2,22,23
 1235 -18 1235 -18 1165 -37 c 1,24,-1
 307 -43 l 1,25,-1
 -5 -35 l 1,26,27
 -36 -21 -36 -21 -39 68 c 2,28,-1
 -39 71 l 2,29,30
 -39 105 -39 105 -16 161 c 1,31,-1
 210 161 l 1,0,-1
EndSplineSet
EndChar

StartChar: grave
Encoding: 96 96 67
Width: 1200
Flags: W
LayerCount: 2
Fore
SplineSet
637 1112 m 1,0,1
 604 1095 604 1095 583 1131 c 1,2,-1
 526 1157 l 1,3,4
 519 1170 519 1170 482 1213 c 1,5,-1
 477 1243 l 1,6,7
 394 1276 394 1276 366 1307 c 1,8,-1
 358 1319 l 1,9,-1
 365 1360 l 1,10,-1
 370 1366 l 1,11,12
 414 1381 414 1381 479 1420 c 1,13,-1
 488 1421 l 1,14,-1
 498 1409 l 1,15,16
 507 1414 507 1414 516 1420 c 1,17,-1
 525 1421 l 1,18,-1
 537 1408 l 1,19,20
 549 1356 549 1356 608 1313 c 1,21,-1
 619 1290 l 1,22,-1
 689 1198 l 1,23,-1
 705 1172 l 1,24,-1
 706 1136 l 1,25,26
 664 1094 664 1094 637 1112 c 1,0,1
EndSplineSet
EndChar

StartChar: a
Encoding: 97 97 68
Width: 1200
Flags: W
LayerCount: 2
Fore
SplineSet
521 925 m 0,0,1
 700 917 700 917 797 828 c 1,2,-1
 806 782 l 1,3,4
 876 768 876 768 910 686 c 1,5,6
 924 618 924 618 925 549 c 1,7,-1
 900 427 l 1,8,-1
 899 405 l 1,9,10
 914 322 914 322 912 280 c 1,11,-1
 888 216 l 1,12,13
 911 150 911 150 949 148 c 1,14,15
 995 161 995 161 1017 199 c 1,16,-1
 1049 187 l 1,17,-1
 1135 193 l 1,18,-1
 1146 182 l 1,19,-1
 1145 171 l 1,20,21
 1139 35 1139 35 856 -9 c 1,22,23
 816 -7 816 -7 719 83 c 1,24,25
 695 84 695 84 607 2 c 1,26,-1
 586 3 l 1,27,28
 498 -17 498 -17 443 -44 c 1,29,-1
 389 -41 l 1,30,31
 209 42 209 42 155 45 c 1,32,33
 54 189 54 189 57 255 c 2,34,-1
 59 287 l 1,35,36
 151 510 151 510 339 501 c 0,37,38
 408 498 408 498 557 534 c 1,39,-1
 725 535 l 1,40,41
 710 566 710 566 713 646 c 1,42,-1
 714 656 l 1,43,44
 718 737 718 737 537 805 c 1,45,46
 513 806 513 806 401 682 c 1,47,-1
 281 644 l 1,48,49
 186 699 186 699 189 767 c 1,50,51
 348 933 348 933 521 925 c 0,0,1
246 127 m 1,53,54
 274 108 274 108 319 80 c 1,55,-1
 362 78 l 1,56,57
 438 111 438 111 486 108 c 1,58,-1
 559 112 l 1,59,60
 703 106 703 106 724 191 c 1,61,-1
 725 202 l 1,62,63
 731 358 731 358 720 428 c 1,64,-1
 612 409 l 1,65,-1
 497 407 l 1,66,-1
 475 408 l 1,67,68
 235 364 235 364 233 307 c 1,69,52
 164 234 164 234 246 127 c 1,53,54
EndSplineSet
EndChar

StartChar: b
Encoding: 98 98 69
Width: 1203
Flags: W
LayerCount: 2
Fore
SplineSet
167 1381 m 2,0,-1
 232 1381 l 1,1,2
 320 1346 320 1346 369 1342 c 1,3,4
 405 1155 405 1155 405 1114 c 1,5,-1
 380 982 l 1,6,-1
 373 862 l 1,7,8
 341 822 341 822 341 786 c 1,9,-1
 373 786 l 1,10,11
 548 916 548 916 621 916 c 1,12,13
 999 846 999 846 999 732 c 1,14,15
 1054 682 1054 682 1075 603 c 1,16,-1
 1097 549 l 1,17,18
 1097 427 1097 427 1071 262 c 1,19,20
 1013 89 1013 89 903 36 c 1,21,22
 769 -13 769 -13 686 -34 c 1,23,24
 494 -17 494 -17 376 45 c 1,25,-1
 287 -26 l 1,26,-1
 242 -26 l 1,27,28
 195 -1 195 -1 177 60 c 1,29,-1
 196 286 l 1,30,-1
 185 520 l 1,31,-1
 212 674 l 1,32,33
 197 775 197 775 208 825 c 1,34,35
 188 886 188 886 188 1002 c 2,36,-1
 188 1062 l 1,37,-1
 209 1163 l 1,38,39
 176 1213 176 1213 60 1218 c 1,40,-1
 49 1229 l 1,41,-1
 49 1251 l 1,42,43
 81 1381 81 1381 167 1381 c 2,0,-1
366 472 m 2,44,-1
 366 452 l 1,45,-1
 354 231 l 1,46,-1
 453 190 l 1,47,48
 519 138 519 138 699 103 c 1,49,50
 888 166 888 166 917 270 c 1,51,-1
 928 411 l 1,52,-1
 863 663 l 1,53,-1
 669 754 l 1,54,55
 409 694 409 694 409 542 c 1,56,57
 366 526 366 526 366 472 c 2,44,-1
EndSplineSet
EndChar

StartChar: c
Encoding: 99 99 70
Width: 1197
Flags: W
LayerCount: 2
Fore
SplineSet
786 945 m 1,0,1
 854 917 854 917 854 843 c 1,2,-1
 876 843 l 1,3,4
 917 877 917 877 955 877 c 2,5,-1
 966 877 l 1,6,7
 1022 849 1022 849 1022 765 c 0,8,9
 1022 603 1022 603 978 542 c 1,10,-1
 828 572 l 1,11,12
 857 651 857 651 834 723 c 1,13,-1
 674 821 l 1,14,-1
 629 821 l 2,15,16
 564 821 564 821 364 710 c 1,17,18
 253 554 253 554 319 367 c 1,19,-1
 370 247 l 1,20,-1
 370 202 l 2,21,22
 370 171 370 171 505 134 c 1,23,-1
 561 78 l 1,24,-1
 584 78 l 1,25,26
 764 115 764 115 819 137 c 1,27,-1
 830 148 l 1,28,-1
 864 148 l 1,29,-1
 860 214 l 1,30,31
 863 269 863 269 938 287 c 1,32,-1
 949 299 l 1,33,-1
 994 299 l 2,34,35
 1020 299 1020 299 1028 242 c 1,36,37
 949 151 949 151 1011 100 c 1,38,39
 907 -12 907 -12 764 -12 c 1,40,-1
 674 10 l 1,41,-1
 573 -34 l 1,42,-1
 314 55 l 1,43,-1
 280 78 l 1,44,-1
 134 393 l 1,45,-1
 134 404 l 1,46,-1
 145 449 l 1,47,-1
 123 551 l 1,48,49
 164 726 164 726 269 810 c 1,50,51
 269 870 269 870 314 888 c 1,52,-1
 382 877 l 1,53,54
 671 945 671 945 786 945 c 1,0,1
EndSplineSet
EndChar

StartChar: d
Encoding: 100 100 71
Width: 1202
Flags: W
LayerCount: 2
Fore
SplineSet
867 1429 m 0,0,1
 962 1429 962 1429 1051 1256 c 1,2,-1
 1029 944 l 1,3,-1
 1036 842 l 1,4,5
 1036 638 1036 638 1018 526 c 1,6,-1
 1018 515 l 1,7,-1
 1036 356 l 1,8,-1
 1036 345 l 1,9,-1
 1025 269 l 1,10,-1
 990 109 l 1,11,12
 1098 109 1098 109 1098 77 c 1,13,-1
 1136 75 l 1,14,15
 1148 -23 1148 -23 1089 -40 c 1,16,-1
 1035 -40 l 1,17,18
 842 -65 842 -65 842 21 c 1,19,20
 863 70 863 70 818 104 c 1,21,-1
 784 64 l 1,22,23
 660 -22 660 -22 539 -22 c 0,24,25
 291 -17 291 -17 291 75 c 1,26,27
 107 260 107 260 107 356 c 1,28,29
 64 399 64 399 64 475 c 0,30,31
 64 606 64 606 172 723 c 1,32,33
 172 849 172 849 410 917 c 1,34,-1
 485 907 l 1,35,-1
 572 928 l 1,36,37
 607 928 607 928 690 863 c 1,38,-1
 863 775 l 1,39,-1
 886 901 l 1,40,-1
 865 1169 l 1,41,42
 865 1256 865 1256 608 1256 c 1,43,44
 576 1296 576 1296 576 1332 c 2,45,-1
 576 1343 l 2,46,47
 576 1401 576 1401 619 1418 c 1,48,-1
 748 1386 l 1,49,-1
 770 1386 l 1,50,51
 828 1429 828 1429 867 1429 c 0,0,1
270 528 m 1,52,-1
 261 372 l 1,53,-1
 261 343 l 1,54,-1
 280 324 l 1,55,-1
 319 265 l 1,56,-1
 319 256 l 1,57,58
 400 129 400 129 475 129 c 2,59,-1
 513 129 l 2,60,61
 563 129 563 129 682 209 c 1,62,63
 753 243 753 243 808 363 c 1,64,65
 833 493 833 493 767 616 c 1,66,67
 635 732 635 732 572 732 c 1,68,69
 572 748 572 748 504 751 c 1,70,71
 376 728 376 728 270 528 c 1,52,-1
EndSplineSet
EndChar

StartChar: e
Encoding: 101 101 72
Width: 1199
Flags: W
LayerCount: 2
Fore
SplineSet
287 587 m 1,0,-1
 390 599 l 1,1,-1
 459 575 l 1,2,-1
 562 599 l 1,3,-1
 734 575 l 1,4,-1
 860 575 l 2,5,6
 896 575 896 575 929 594 c 1,7,-1
 934 601 l 1,8,-1
 934 637 l 2,9,10
 934 714 934 714 907 763 c 1,11,-1
 849 815 l 1,12,-1
 711 815 l 1,13,-1
 539 803 l 1,14,-1
 425 815 l 1,15,16
 383 801 383 801 270 688 c 1,17,18
 263 654 263 654 287 587 c 1,0,-1
143 664 m 1,19,-1
 143 676 l 1,20,21
 153 706 153 706 197 711 c 1,22,23
 201 864 201 864 497 935 c 1,24,-1
 781 923 l 2,25,26
 791 924 791 924 802 925 c 1,27,28
 867 895 867 895 913 868 c 1,29,-1
 952 902 l 1,30,-1
 988 866 l 1,31,32
 988 828 988 828 992 814 c 1,33,34
 1030 782 1030 782 1030 757 c 1,35,-1
 1063 695 l 1,36,-1
 1077 595 l 1,37,38
 1077 515 1077 515 893 479 c 1,39,-1
 881 479 l 1,40,-1
 709 477 l 1,41,-1
 533 482 l 1,42,-1
 421 481 l 1,43,44
 317 459 317 459 257 455 c 1,45,-1
 257 443 l 1,46,47
 301 243 301 243 425 167 c 1,48,49
 479 126 479 126 587 89 c 1,50,51
 663 109 663 109 777 118 c 1,52,53
 857 164 857 164 857 239 c 1,54,55
 956 347 956 347 1034 362 c 1,56,-1
 1046 362 l 1,57,-1
 1082 326 l 1,58,-1
 1082 302 l 1,59,60
 1039 239 1039 239 1066 203 c 1,61,-1
 1066 193 l 1,62,63
 1051 180 1051 180 1037 168 c 0,64,65
 976 98 976 98 944 95 c 1,66,67
 884 53 884 53 836 33 c 0,68,69
 670 -32 670 -32 637 -32 c 0,70,71
 527 -32 527 -32 281 95 c 0,72,73
 137 168 137 168 137 371 c 1,74,75
 105 371 105 371 127 550 c 1,76,77
 128 598 128 598 143 664 c 1,19,-1
EndSplineSet
EndChar

StartChar: f
Encoding: 102 102 73
Width: 1202
Flags: W
LayerCount: 2
Fore
SplineSet
686 1432 m 1,0,1
 988 1392 988 1392 988 1302 c 1,2,-1
 1042 1259 l 1,3,-1
 1053 1086 l 1,4,5
 1024 1031 1024 1031 951 1030 c 0,6,7
 898 1028 898 1028 862 1127 c 1,8,9
 824 1286 824 1286 723 1287 c 1,10,11
 683 1319 683 1319 572 1260 c 1,12,13
 513 1173 513 1173 521 920 c 1,14,15
 638 885 638 885 739 897 c 1,16,17
 783 848 783 848 770 776 c 1,18,19
 687 736 687 736 516 766 c 1,20,-1
 524 707 l 1,21,-1
 513 416 l 1,22,-1
 524 103 l 1,23,-1
 659 95 l 1,24,-1
 757 121 l 1,25,26
 822 114 822 114 826 38 c 1,27,-1
 826 16 l 1,28,29
 809 -27 809 -27 751 -27 c 2,30,-1
 308 -27 l 2,31,32
 184 -27 184 -27 143 10 c 1,33,-1
 159 75 l 1,34,35
 159 116 159 116 405 92 c 1,36,-1
 416 103 l 1,37,-1
 416 113 l 2,38,39
 416 146 416 146 340 161 c 1,40,-1
 362 329 l 1,41,-1
 362 373 l 1,42,-1
 340 502 l 1,43,-1
 340 578 l 1,44,-1
 364 776 l 1,45,46
 263 814 263 814 165 793 c 1,47,48
 123 842 123 842 169 936 c 1,49,50
 253 935 253 935 351 927 c 1,51,-1
 351 999 l 1,52,-1
 340 1205 l 1,53,54
 439 1410 439 1410 643 1410 c 1,55,-1
 686 1432 l 1,0,1
EndSplineSet
EndChar

StartChar: g
Encoding: 103 103 74
Width: 1202
Flags: W
LayerCount: 2
Fore
SplineSet
842 973 m 2,0,-1
 874 973 l 1,1,2
 1101 917 1101 917 1101 800 c 0,3,4
 1101 773 1101 773 1048 751 c 1,5,6
 899 821 899 821 878 762 c 1,7,-1
 887 724 l 1,8,-1
 896 613 l 1,9,10
 899 357 899 357 721 274 c 1,11,-1
 522 265 l 1,12,-1
 415 304 l 1,13,-1
 356 325 l 1,14,15
 243 212 243 212 456 227 c 1,16,17
 532 211 532 211 755 173 c 1,18,19
 1058 169 1058 169 1060 -127 c 1,20,21
 954 -350 954 -350 744 -388 c 1,22,-1
 539 -399 l 1,23,-1
 431 -388 l 1,24,-1
 265 -380 l 1,25,26
 143 -338 143 -338 107 -237 c 1,27,28
 64 -191 64 -191 64 -150 c 0,29,30
 64 36 64 36 215 109 c 1,31,-1
 236 130 l 1,32,33
 129 246 129 246 246 406 c 1,34,35
 107 639 107 639 248 810 c 1,36,37
 334 939 334 939 420 940 c 2,38,-1
 572 940 l 1,39,-1
 734 886 l 1,40,41
 781 973 781 973 842 973 c 2,0,-1
353 746 m 1,42,43
 290 637 290 637 339 535 c 1,44,-1
 339 513 l 1,45,46
 389 513 389 513 438 419 c 1,47,-1
 574 377 l 1,48,49
 739 389 739 389 779 600 c 1,50,-1
 740 708 l 1,51,52
 656 794 656 794 555 794 c 0,53,54
 445 794 445 794 353 746 c 1,42,43
178 -96 m 1,55,56
 218 -235 218 -235 427 -279 c 1,57,-1
 545 -268 l 1,58,-1
 697 -279 l 1,59,-1
 707 -279 l 1,60,61
 834 -235 834 -235 909 -123 c 1,62,63
 930 48 930 48 675 56 c 1,64,-1
 416 56 l 1,65,66
 178 -25 178 -25 178 -96 c 1,55,56
EndSplineSet
EndChar

StartChar: h
Encoding: 104 104 75
Width: 1208
Flags: W
LayerCount: 2
Fore
SplineSet
135 1438 m 1,0,-1
 296 1429 l 1,1,-1
 389 1397 l 1,2,-1
 421 1365 l 1,3,-1
 382 1219 l 1,4,-1
 403 1155 l 1,5,-1
 398 1090 l 1,6,-1
 371 932 l 1,7,-1
 414 899 l 1,8,-1
 476 945 l 1,9,10
 555 1018 555 1018 736 978 c 1,11,12
 829 934 829 934 881 908 c 2,13,-1
 934 882 l 1,14,15
 1042 882 1042 882 1004 809 c 1,16,-1
 1015 669 l 1,17,-1
 1003 541 l 1,18,-1
 992 509 l 1,19,-1
 988 407 l 1,20,21
 967 346 967 346 981 136 c 1,22,-1
 1013 125 l 1,23,-1
 1100 136 l 1,24,25
 1144 121 1144 121 1164 82 c 1,26,-1
 1152 26 l 1,27,-1
 1109 -16 l 1,28,-1
 818 -16 l 2,29,30
 742 -16 742 -16 754 93 c 0,31,32
 754 125 754 125 836 136 c 1,33,-1
 847 168 l 1,34,35
 807 396 807 396 789 396 c 1,36,-1
 842 465 l 1,37,38
 846 724 846 724 791 775 c 1,39,-1
 672 826 l 1,40,-1
 597 838 l 1,41,42
 497 817 497 817 407 728 c 1,43,-1
 378 491 l 1,44,45
 378 455 378 455 411 416 c 1,46,-1
 411 405 l 2,47,48
 411 307 411 307 389 169 c 1,49,-1
 389 158 l 1,50,-1
 400 147 l 1,51,-1
 470 147 l 2,52,53
 540 147 540 147 567 83 c 1,54,55
 567 -25 567 -25 508 -21 c 1,56,57
 252 26 252 26 155 -16 c 1,58,59
 72 -12 72 -12 84 121 c 1,60,61
 92 157 92 157 204 144 c 1,62,-1
 221 417 l 1,63,-1
 211 623 l 1,64,-1
 221 720 l 1,65,-1
 222 910 l 1,66,-1
 222 975 l 1,67,-1
 218 1193 l 2,68,69
 218 1245 218 1245 58 1245 c 1,70,-1
 32 1302 l 1,71,-1
 32 1389 l 1,72,73
 52 1428 52 1428 135 1438 c 1,0,-1
EndSplineSet
EndChar

StartChar: i
Encoding: 105 105 76
Width: 1200
Flags: W
LayerCount: 2
Fore
SplineSet
580 1390 m 1,0,1
 735 1321 735 1321 735 1226 c 0,2,3
 735 1177 735 1177 571 1036 c 1,4,-1
 537 1027 l 1,5,6
 462 1072 462 1072 416 1209 c 1,7,-1
 416 1217 l 1,8,9
 483 1390 483 1390 562 1390 c 2,10,-1
 580 1390 l 1,0,1
646 951 m 1,11,12
 722 919 722 919 722 843 c 1,13,-1
 700 746 l 1,14,-1
 711 616 l 1,15,16
 679 564 679 564 679 498 c 1,17,-1
 711 379 l 1,18,19
 679 323 679 323 679 271 c 0,20,21
 679 178 679 178 743 130 c 1,22,-1
 819 130 l 2,23,24
 841 130 841 130 841 184 c 1,25,-1
 981 217 l 1,26,27
 1027 217 1027 217 1089 76 c 1,28,-1
 1089 66 l 2,29,30
 1089 -20 1089 -20 992 -20 c 1,31,-1
 646 22 l 1,32,-1
 452 -31 l 1,33,-1
 344 1 l 1,34,-1
 311 1 l 1,35,-1
 182 -31 l 1,36,37
 144 -18 144 -18 117 66 c 1,38,39
 117 120 117 120 279 152 c 1,40,41
 279 202 279 202 463 228 c 1,42,-1
 538 206 l 1,43,44
 581 217 581 217 581 260 c 1,45,46
 495 304 495 304 495 368 c 2,47,-1
 495 411 l 1,48,-1
 506 530 l 1,49,-1
 484 638 l 1,50,-1
 495 703 l 1,51,52
 495 800 495 800 171 800 c 1,53,54
 128 846 128 846 128 886 c 1,55,-1
 171 930 l 1,56,-1
 182 930 l 1,57,-1
 322 897 l 1,58,-1
 495 908 l 1,59,-1
 592 876 l 1,60,61
 620 945 620 945 646 951 c 1,11,12
EndSplineSet
EndChar

StartChar: j
Encoding: 106 106 77
Width: 1203
Flags: W
LayerCount: 2
Fore
SplineSet
888 1401 m 1,0,-1
 996 1245 l 1,1,-1
 1003 1231 l 1,2,-1
 1000 1221 l 2,3,4
 983 1173 983 1173 875 1079 c 1,5,-1
 795 1034 l 1,6,-1
 743 1048 l 2,7,8
 649 1075 649 1075 657 1297 c 1,9,10
 677 1371 677 1371 888 1401 c 1,0,-1
457 993 m 1,11,-1
 738 939 l 1,12,-1
 748 928 l 1,13,-1
 759 928 l 1,14,-1
 910 939 l 1,15,16
 997 904 997 904 997 864 c 1,17,-1
 910 777 l 1,18,-1
 900 669 l 1,19,-1
 910 637 l 1,20,-1
 921 637 l 1,21,-1
 964 669 l 1,22,-1
 986 669 l 1,23,-1
 1008 648 l 1,24,-1
 1008 626 l 2,25,26
 1008 580 1008 580 900 496 c 1,27,-1
 900 486 l 1,28,-1
 910 388 l 1,29,30
 896 0 896 0 878 0 c 1,31,-1
 932 -119 l 1,32,33
 664 -399 664 -399 608 -399 c 1,34,35
 198 -287 198 -287 198 -86 c 1,36,37
 179 -86 179 -86 176 -11 c 2,38,-1
 176 0 l 1,39,-1
 219 43 l 1,40,-1
 327 21 l 1,41,-1
 457 43 l 1,42,-1
 489 -11 l 1,43,44
 480 -63 480 -63 381 -162 c 1,45,-1
 381 -205 l 2,46,47
 381 -240 381 -240 511 -259 c 1,48,-1
 522 -259 l 2,49,50
 759 -259 759 -259 759 -86 c 0,51,52
 759 -11 759 -11 802 97 c 1,53,-1
 781 410 l 1,54,-1
 802 507 l 1,55,-1
 759 615 l 1,56,-1
 792 680 l 1,57,-1
 792 745 l 1,58,59
 722 777 722 777 651 777 c 2,60,-1
 489 777 l 1,61,62
 381 799 381 799 381 885 c 0,63,64
 381 938 381 938 457 993 c 1,11,-1
EndSplineSet
EndChar

StartChar: k
Encoding: 107 107 78
Width: 1203
Flags: W
LayerCount: 2
Fore
SplineSet
353 1323 m 1,0,1
 469 1323 469 1323 483 1129 c 1,2,-1
 483 1096 l 1,3,-1
 364 1129 l 1,4,-1
 353 1129 l 1,5,6
 310 1047 310 1047 289 934 c 1,7,-1
 299 794 l 1,8,-1
 289 675 l 2,9,10
 289 635 289 635 353 589 c 1,11,-1
 386 589 l 1,12,-1
 397 621 l 1,13,-1
 515 610 l 1,14,-1
 526 610 l 2,15,16
 563 610 563 610 656 859 c 1,17,18
 783 859 783 859 807 902 c 1,19,-1
 904 891 l 1,20,-1
 1012 902 l 1,21,22
 1057 887 1057 887 1077 848 c 1,23,-1
 1077 816 l 1,24,25
 1057 740 1057 740 796 740 c 1,26,-1
 677 556 l 1,27,28
 613 532 613 532 613 459 c 1,29,-1
 764 232 l 1,30,31
 764 100 764 100 883 60 c 1,32,-1
 1012 70 l 1,33,34
 1066 53 1066 53 1066 6 c 1,35,36
 1018 -37 1018 -37 991 -37 c 0,37,38
 656 2 656 2 656 49 c 1,39,-1
 699 135 l 1,40,41
 699 178 699 178 613 222 c 1,42,-1
 548 362 l 1,43,-1
 537 373 l 1,44,-1
 472 373 l 1,45,46
 438 340 438 340 332 330 c 1,47,-1
 310 286 l 1,48,-1
 321 276 l 1,49,-1
 321 211 l 1,50,-1
 289 103 l 1,51,-1
 343 70 l 1,52,-1
 429 81 l 1,53,-1
 451 49 l 1,54,-1
 451 16 l 1,55,56
 434 -37 434 -37 310 -37 c 2,57,-1
 137 -37 l 2,58,59
 54 -37 54 -37 29 16 c 1,60,-1
 29 38 l 2,61,62
 29 59 29 59 159 135 c 1,63,64
 161 191 161 191 213 254 c 1,65,-1
 213 276 l 1,66,-1
 191 384 l 1,67,-1
 202 481 l 1,68,-1
 181 610 l 1,69,-1
 202 762 l 1,70,71
 185 1172 185 1172 83 1172 c 0,72,73
 27 1172 27 1172 -3 1226 c 1,74,75
 -3 1312 -3 1312 94 1312 c 1,76,-1
 353 1323 l 1,0,1
EndSplineSet
EndChar

StartChar: l
Encoding: 108 108 79
Width: 1200
Flags: W
LayerCount: 2
Fore
SplineSet
325 1406 m 1,0,-1
 375 1382 l 1,1,-1
 465 1398 l 1,2,3
 495 1398 495 1398 483 1339 c 1,4,-1
 494 1328 l 1,5,-1
 504 1328 l 2,6,7
 535 1328 535 1328 612 1393 c 1,8,-1
 623 1393 l 1,9,10
 700 1331 700 1331 723 1285 c 1,11,-1
 723 1263 l 1,12,13
 700 1220 700 1220 669 1220 c 1,14,-1
 669 1209 l 1,15,-1
 658 1145 l 1,16,17
 701 1115 701 1115 701 1069 c 0,18,19
 701 1025 701 1025 667 963 c 1,20,-1
 676 801 l 1,21,-1
 672 619 l 1,22,-1
 712 453 l 1,23,-1
 690 367 l 1,24,-1
 701 291 l 1,25,-1
 690 173 l 1,26,-1
 701 173 l 1,27,-1
 828 151 l 1,28,-1
 861 151 l 1,29,-1
 1067 179 l 1,30,-1
 1077 179 l 1,31,-1
 1148 100 l 1,32,-1
 1159 67 l 1,33,34
 1133 -32 1133 -32 1007 -24 c 1,35,36
 733 -37 733 -37 426 4 c 1,37,-1
 137 -32 l 1,38,39
 40 -10 40 -10 40 75 c 1,40,-1
 143 194 l 1,41,42
 199 194 199 194 396 151 c 1,43,-1
 450 151 l 2,44,45
 537 151 537 151 537 237 c 1,46,-1
 504 490 l 1,47,-1
 526 691 l 1,48,49
 515 734 515 734 504 853 c 1,50,51
 529 853 529 853 537 983 c 1,52,-1
 494 1069 l 1,53,-1
 504 1134 l 1,54,-1
 479 1184 l 1,55,-1
 274 1174 l 1,56,57
 91 1222 91 1222 104 1320 c 1,58,59
 104 1407 104 1407 181 1406 c 2,60,-1
 325 1406 l 1,0,-1
EndSplineSet
EndChar

StartChar: m
Encoding: 109 109 80
Width: 1203
Flags: W
LayerCount: 2
Fore
SplineSet
1064 109 m 1,0,-1
 1065 109 l 1,1,-1
 1145 99 l 1,2,-1
 1145 97 l 1,3,-1
 1158 95 l 1,4,-1
 1169 40 l 1,5,6
 1169 -40 1169 -40 1035 -40 c 1,7,8
 938 -26 938 -26 885 -10 c 0,9,10
 870 -6 870 -6 858 -2 c 1,11,-1
 849 83 l 1,12,-1
 853 83 l 1,13,14
 853 118 853 118 963 106 c 1,15,-1
 970 269 l 1,16,-1
 959 681 l 1,17,-1
 959 748 l 2,18,19
 959 824 959 824 900 837 c 0,20,21
 883 844 883 844 860 844 c 1,22,23
 676 777 676 777 676 592 c 2,24,-1
 676 433 l 2,25,26
 676 414 676 414 665 264 c 1,27,-1
 665 241 l 1,28,29
 654 137 654 137 737 116 c 0,30,31
 754 112 754 112 776 111 c 1,32,-1
 776 108 l 1,33,34
 782 107 782 107 789 107 c 1,35,-1
 785 -7 l 1,36,-1
 721 -29 l 1,37,-1
 602 -18 l 1,38,-1
 548 -5 l 1,39,-1
 544 -3 l 1,40,-1
 535 -1 l 1,41,-1
 464 32 l 1,42,-1
 471 92 l 1,43,44
 542 108 542 108 553 186 c 1,45,-1
 553 334 l 1,46,-1
 550 452 l 1,47,-1
 553 614 l 1,48,-1
 532 752 l 1,49,-1
 493 795 l 1,50,-1
 470 795 l 1,51,52
 305 800 305 800 300 686 c 1,53,54
 286 563 286 563 286 501 c 1,55,-1
 308 409 l 1,56,-1
 286 318 l 1,57,58
 286 284 286 284 283 161 c 1,59,-1
 293 150 l 1,60,-1
 348 121 l 1,61,-1
 404 99 l 1,62,63
 427 35 427 35 387 -7 c 1,64,65
 328 -23 328 -23 255 -23 c 1,66,67
 163 -2 163 -2 68 -10 c 0,68,69
 66 -7 66 -7 65 -5 c 0,70,71
 60 -5 60 -5 55 -6 c 1,72,73
 12 50 12 50 54 102 c 1,74,-1
 121 112 l 1,75,-1
 139 299 l 1,76,-1
 128 351 l 1,77,-1
 118 403 l 1,78,-1
 129 596 l 1,79,80
 116 827 116 827 41 869 c 1,81,82
 56 948 56 948 84 948 c 2,83,-1
 117 948 l 2,84,85
 163 948 163 948 276 941 c 1,86,-1
 276 938 l 1,87,88
 282 937 282 937 289 937 c 1,89,-1
 289 869 l 1,90,91
 419 886 419 886 470 947 c 1,92,-1
 513 947 l 2,93,94
 515 945 515 945 517 943 c 2,95,-1
 526 943 l 1,96,97
 572 895 572 895 611 881 c 0,98,99
 622 878 622 878 632 878 c 2,100,-1
 698 902 l 1,101,-1
 762 890 l 1,102,-1
 860 947 l 1,103,104
 897 948 897 948 930 936 c 0,105,106
 1013 914 1013 914 1071 816 c 1,107,108
 1089 579 1089 579 1068 515 c 1,109,-1
 1068 504 l 2,110,111
 1068 463 1068 463 1078 417 c 1,112,-1
 1078 348 l 1,113,-1
 1070 246 l 1,114,-1
 1070 223 l 1,115,116
 1078 201 1078 201 1057 117 c 1,117,-1
 1064 109 l 1,0,-1
EndSplineSet
EndChar

StartChar: n
Encoding: 110 110 81
Width: 1197
Flags: W
LayerCount: 2
Fore
SplineSet
73 885 m 2,1,-1
 156 929 l 1,2,-1
 333 906 l 1,3,-1
 349 764 l 1,4,5
 405 878 405 878 499 908 c 1,6,7
 675 948 675 948 842 890 c 1,8,9
 944 799 944 799 984 770 c 1,10,-1
 1005 737 l 1,11,-1
 1005 705 l 1,12,-1
 1000 615 l 1,13,14
 1020 594 1020 594 1033 378 c 1,15,-1
 1043 367 l 1,16,-1
 1043 356 l 1,17,-1
 1003 121 l 1,18,19
 1060 90 1060 90 1126 94 c 1,20,-1
 1151 21 l 1,21,22
 1151 -32 1151 -32 930 -32 c 1,23,24
 760 -48 760 -48 760 8 c 1,25,-1
 784 64 l 1,26,-1
 817 64 l 1,27,-1
 838 86 l 1,28,-1
 856 171 l 1,29,-1
 856 182 l 1,30,-1
 849 248 l 1,31,-1
 861 332 l 2,32,33
 882 466 882 466 882 518 c 2,34,-1
 882 540 l 2,35,36
 882 673 882 673 727 732 c 1,37,38
 514 758 514 758 460 682 c 1,39,40
 395 644 395 644 395 584 c 2,41,-1
 395 433 l 1,42,-1
 374 250 l 1,43,-1
 409 144 l 1,44,-1
 409 133 l 1,45,-1
 482 86 l 1,46,-1
 525 21 l 1,47,-1
 525 10 l 1,48,49
 507 -32 507 -32 449 -32 c 2,50,-1
 244 -32 l 1,51,-1
 179 -43 l 1,52,53
 61 -18 61 -18 61 32 c 0,54,55
 61 106 61 106 202 138 c 1,56,-1
 225 257 l 1,57,58
 204 453 204 453 233 649 c 1,59,-1
 193 760 l 1,60,61
 103 740 103 740 53 789 c 1,62,0
 39 863 39 863 73 885 c 2,1,-1
EndSplineSet
EndChar

StartChar: o
Encoding: 111 111 82
Width: 1198
Flags: W
LayerCount: 2
Fore
SplineSet
640 921 m 1,0,-1
 735 913 l 1,1,-1
 789 878 l 1,2,-1
 854 888 l 1,3,4
 1079 725 1079 725 1079 496 c 2,5,-1
 1079 431 l 2,6,7
 1079 253 1079 253 1016 186 c 1,8,9
 885 -29 885 -29 670 -29 c 2,10,-1
 508 -29 l 1,11,12
 302 24 302 24 238 111 c 1,13,14
 149 194 149 194 98 446 c 1,15,-1
 98 489 l 2,16,17
 98 508 98 508 103 576 c 1,18,-1
 113 587 l 1,19,-1
 113 597 l 1,20,-1
 120 662 l 1,21,22
 170 764 170 764 221 790 c 1,23,24
 281 827 281 827 281 867 c 1,25,-1
 336 921 l 1,26,27
 449 970 449 970 640 921 c 1,0,-1
278 440 m 2,28,29
 278 414 278 414 301 284 c 1,30,-1
 301 263 l 1,31,-1
 388 158 l 1,32,33
 471 106 471 106 515 106 c 1,34,-1
 570 82 l 1,35,-1
 666 117 l 1,36,-1
 678 117 l 1,37,38
 784 110 784 110 861 194 c 1,39,40
 930 287 930 287 887 387 c 1,41,-1
 887 398 l 1,42,43
 928 471 928 471 887 533 c 1,44,45
 830 750 830 750 666 783 c 1,46,47
 365 752 365 752 302 620 c 1,48,-1
 278 440 l 2,28,29
EndSplineSet
EndChar

StartChar: p
Encoding: 112 112 83
Width: 1200
Flags: W
LayerCount: 2
Fore
SplineSet
360 928 m 1,0,-1
 436 852 l 1,1,-1
 458 852 l 1,2,3
 512 917 512 917 555 917 c 1,4,-1
 630 884 l 1,5,-1
 749 917 l 1,6,7
 1073 822 1073 822 1073 679 c 1,8,9
 1127 523 1127 523 1127 409 c 0,10,11
 1127 176 1127 176 857 10 c 1,12,-1
 749 -22 l 1,13,-1
 663 -22 l 2,14,15
 602 -22 602 -22 447 74 c 1,16,-1
 425 74 l 1,17,-1
 393 42 l 1,18,19
 393 -260 393 -260 490 -260 c 1,20,21
 587 -284 587 -284 587 -314 c 2,22,-1
 587 -357 l 1,23,24
 505 -420 505 -420 405 -420 c 1,25,-1
 297 -399 l 1,26,-1
 125 -409 l 1,27,28
 71 -350 71 -350 80 -335 c 1,29,30
 80 -268 80 -268 220 -238 c 1,31,-1
 274 -184 l 1,32,-1
 274 -173 l 1,33,-1
 242 -76 l 1,34,-1
 274 182 l 1,35,-1
 231 377 l 1,36,37
 274 442 274 442 274 474 c 1,38,-1
 252 582 l 1,39,-1
 285 658 l 1,40,41
 285 709 285 709 188 744 c 1,42,-1
 58 820 l 1,43,-1
 58 852 l 2,44,45
 58 920 58 920 360 928 c 1,0,-1
404 506 m 1,46,-1
 404 485 l 1,47,48
 458 371 458 371 458 258 c 1,49,50
 530 96 530 96 652 96 c 2,51,-1
 663 96 l 1,52,53
 911 176 911 176 911 280 c 0,54,55
 911 398 911 398 944 463 c 1,56,57
 879 574 879 574 846 701 c 1,58,59
 792 755 792 755 706 755 c 1,60,61
 468 693 468 693 468 593 c 1,62,-1
 404 506 l 1,46,-1
EndSplineSet
EndChar

StartChar: q
Encoding: 113 113 84
Width: 1200
Flags: W
LayerCount: 2
Fore
SplineSet
535 947 m 1,0,-1
 773 893 l 1,1,-1
 816 893 l 1,2,-1
 946 915 l 1,3,4
 1026 894 1026 894 1101 877 c 1,5,-1
 1146 827 l 1,6,7
 1164 753 1164 753 1134 718 c 1,8,-1
 1028 699 l 1,9,-1
 1032 472 l 1,10,-1
 1043 353 l 1,11,12
 1039 300 1039 300 1039 253 c 2,13,-1
 1039 242 l 1,14,15
 978 119 978 119 978 -89 c 2,16,-1
 978 -154 l 2,17,18
 978 -238 978 -238 1082 -266 c 1,19,-1
 1136 -331 l 1,20,-1
 1136 -353 l 2,21,22
 1136 -396 1136 -396 959 -376 c 1,23,-1
 784 -391 l 1,24,-1
 743 -400 l 1,25,-1
 700 -357 l 1,26,27
 700 -305 700 -305 805 -251 c 1,28,29
 849 -205 849 -205 849 -165 c 2,30,-1
 849 -89 l 1,31,-1
 870 62 l 1,32,33
 859 105 859 105 821 54 c 1,34,35
 737 -24 737 -24 633 -24 c 2,36,-1
 460 -24 l 2,37,38
 339 -24 339 -24 114 234 c 1,39,40
 71 329 71 329 71 375 c 2,41,-1
 71 483 l 1,42,43
 115 785 115 785 201 785 c 1,44,45
 201 898 201 898 352 915 c 1,46,-1
 427 904 l 1,47,-1
 535 947 l 1,0,-1
259 369 m 1,48,49
 297 170 297 170 341 170 c 2,50,-1
 363 170 l 1,51,-1
 431 93 l 1,52,53
 523 116 523 116 622 116 c 0,54,55
 729 116 729 116 871 303 c 1,56,-1
 866 716 l 1,57,58
 774 768 774 768 714 782 c 1,59,-1
 629 732 l 1,60,61
 511 803 511 803 364 749 c 1,62,63
 201 600 201 600 259 369 c 1,48,49
EndSplineSet
EndChar

StartChar: r
Encoding: 114 114 85
Width: 1200
Flags: W
LayerCount: 2
Fore
SplineSet
846 701 m 1,1,2
 792 755 792 755 706 755 c 1,3,4
 468 693 468 693 468 593 c 1,5,-1
 404 506 l 1,6,-1
 406 255 l 1,7,8
 419 124 419 124 516 124 c 1,9,10
 613 100 613 100 613 70 c 2,11,-1
 613 27 l 1,12,13
 531 -36 531 -36 431 -36 c 1,14,-1
 323 -15 l 1,15,-1
 151 -25 l 1,16,17
 97 34 97 34 106 49 c 1,18,19
 106 116 106 116 246 146 c 1,20,-1
 267 257 l 1,21,-1
 231 377 l 1,22,23
 274 442 274 442 274 474 c 1,24,-1
 252 582 l 1,25,-1
 285 658 l 1,26,27
 285 709 285 709 188 744 c 1,28,-1
 58 820 l 1,29,-1
 58 852 l 2,30,31
 58 920 58 920 360 928 c 1,32,-1
 436 852 l 1,33,-1
 458 852 l 1,34,35
 512 917 512 917 555 917 c 1,36,-1
 630 884 l 1,37,-1
 749 917 l 1,38,39
 1073 822 1073 822 1073 679 c 1,40,41
 1098 606 1098 606 1078 547 c 1,42,43
 986 451 986 451 900 542 c 1,44,0
 878 579 878 579 846 701 c 1,1,2
EndSplineSet
EndChar

StartChar: s
Encoding: 115 115 86
Width: 1196
Flags: W
LayerCount: 2
Fore
SplineSet
571 969 m 0,0,1
 689 969 689 969 820 893 c 1,2,-1
 917 925 l 1,3,4
 955 885 955 885 971 817 c 1,5,-1
 960 666 l 1,6,-1
 960 623 l 2,7,8
 960 565 960 565 901 593 c 1,9,10
 822 593 822 593 794 708 c 1,11,-1
 778 765 l 1,12,13
 728 795 728 795 645 795 c 0,14,15
 421 802 421 802 346 756 c 1,16,17
 313 696 313 696 317 635 c 1,18,-1
 388 558 l 1,19,-1
 409 537 l 1,20,-1
 442 537 l 1,21,-1
 485 547 l 1,22,23
 505 528 505 528 733 515 c 1,24,25
 895 471 895 471 895 396 c 1,26,27
 982 365 982 365 982 288 c 1,28,-1
 993 223 l 1,29,30
 993 102 993 102 733 -35 c 1,31,-1
 679 -25 l 1,32,-1
 625 -25 l 1,33,-1
 485 -46 l 1,34,35
 291 0 291 0 291 94 c 1,36,37
 172 131 172 131 172 321 c 1,38,-1
 215 353 l 1,39,-1
 247 353 l 1,40,41
 334 307 334 307 334 148 c 1,42,-1
 399 105 l 1,43,-1
 463 94 l 1,44,-1
 463 83 l 1,45,-1
 474 83 l 1,46,-1
 625 94 l 1,47,-1
 658 61 l 1,48,-1
 690 61 l 1,49,50
 852 91 852 91 852 202 c 0,51,52
 852 390 852 390 701 418 c 2,53,-1
 636 429 l 1,54,-1
 625 429 l 1,55,-1
 507 396 l 1,56,57
 312 426 312 426 312 450 c 1,58,59
 186 555 186 555 161 709 c 1,60,61
 265 888 265 888 345 947 c 1,62,-1
 388 947 l 1,63,-1
 450 949 l 1,64,-1
 461 949 l 1,65,66
 537 969 537 969 571 969 c 0,0,1
EndSplineSet
EndChar

StartChar: t
Encoding: 116 116 87
Width: 1198
Flags: W
LayerCount: 2
Fore
SplineSet
435 1317 m 1,0,1
 493 1317 493 1317 565 1187 c 1,2,-1
 554 1058 l 1,3,4
 554 907 554 907 651 907 c 1,5,-1
 781 939 l 1,6,7
 856 917 856 917 856 853 c 1,8,9
 805 745 805 745 662 745 c 1,10,-1
 619 755 l 1,11,12
 556 755 556 755 521 658 c 1,13,-1
 532 550 l 1,14,-1
 521 453 l 1,15,-1
 565 345 l 1,16,-1
 532 259 l 1,17,18
 534 204 534 204 662 97 c 1,19,-1
 683 97 l 1,20,21
 731 161 731 161 824 161 c 1,22,-1
 835 172 l 1,23,-1
 835 183 l 1,24,-1
 813 280 l 1,25,26
 913 399 913 399 986 399 c 1,27,28
 1083 385 1083 385 1083 302 c 1,29,30
 1037 97 1037 97 953 97 c 1,31,32
 807 -33 807 -33 727 -33 c 2,33,-1
 683 -33 l 2,34,35
 564 -33 564 -33 446 75 c 1,36,37
 376 75 376 75 338 334 c 1,38,-1
 381 464 l 1,39,-1
 381 475 l 1,40,41
 327 593 327 593 327 701 c 0,42,43
 327 737 327 737 154 766 c 1,44,45
 111 818 111 818 111 853 c 1,46,47
 128 928 128 928 165 928 c 2,48,-1
 284 917 l 1,49,50
 364 894 364 894 373 979 c 1,51,-1
 365 1125 l 1,52,-1
 354 1211 l 1,53,54
 364 1252 364 1252 435 1317 c 1,0,1
EndSplineSet
EndChar

StartChar: u
Encoding: 117 117 88
Width: 1200
Flags: W
LayerCount: 2
Fore
SplineSet
834 929 m 1,0,1
 988 907 988 907 987 851 c 2,2,-1
 987 840 l 1,3,4
 926 695 926 695 925 636 c 1,5,-1
 976 527 l 1,6,-1
 964 462 l 1,7,-1
 964 451 l 1,8,-1
 994 332 l 1,9,-1
 970 246 l 1,10,-1
 1002 191 l 1,11,-1
 1001 148 l 1,12,-1
 978 116 l 1,13,14
 978 95 978 95 1010 94 c 1,15,-1
 1092 124 l 1,16,17
 1146 108 1146 108 1145 48 c 1,18,19
 1122 -38 1122 -38 986 -35 c 0,20,21
 954 -34 954 -34 791 7 c 1,22,-1
 747 42 l 1,23,24
 585 -37 585 -37 532 -36 c 1,25,26
 330 13 330 13 276 88 c 1,27,28
 206 208 206 208 210 393 c 1,29,-1
 235 543 l 1,30,31
 241 766 241 766 188 767 c 0,32,33
 70 774 70 774 72 850 c 1,34,35
 65 935 65 935 132 934 c 2,36,-1
 229 932 l 2,37,38
 309 930 309 930 420 885 c 1,39,-1
 419 831 l 2,40,41
 418 802 418 802 384 615 c 1,42,-1
 414 485 l 1,43,-1
 399 323 l 1,44,-1
 408 215 l 1,45,-1
 396 172 l 1,46,47
 410 127 410 127 449 106 c 1,48,-1
 481 105 l 1,49,50
 560 58 560 58 742 151 c 1,51,52
 798 224 798 224 791 444 c 1,53,-1
 797 736 l 2,54,55
 798 779 798 779 719 782 c 1,56,57
 676 828 676 828 677 869 c 2,58,-1
 678 880 l 2,59,60
 678 912 678 912 834 929 c 1,0,1
EndSplineSet
EndChar

StartChar: v
Encoding: 118 118 89
Width: 1197
Flags: W
LayerCount: 2
Fore
SplineSet
329 944 m 1,0,-1
 502 948 l 1,1,-1
 490 829 l 2,2,3
 482 767 482 767 429 763 c 1,4,-1
 342 737 l 1,5,-1
 417 555 l 1,6,7
 477 432 477 432 569 253 c 1,8,-1
 613 221 l 1,9,-1
 634 242 l 1,10,-1
 703 440 l 1,11,-1
 703 451 l 2,12,13
 703 532 703 532 729 572 c 1,14,-1
 717 733 l 1,15,16
 746 784 746 784 643 764 c 1,17,18
 583 784 583 784 606 897 c 1,19,20
 606 929 606 929 768 915 c 1,21,-1
 801 915 l 2,22,23
 822 915 822 915 822 883 c 1,24,-1
 876 883 l 1,25,-1
 920 915 l 1,26,27
 1125 915 1125 915 1125 829 c 1,28,29
 1089 793 1089 793 974 764 c 1,30,-1
 876 656 l 1,31,-1
 887 559 l 1,32,33
 887 519 887 519 827 350 c 1,34,-1
 758 184 l 1,35,-1
 677 -2 l 1,36,37
 644 -45 644 -45 585 -45 c 0,38,39
 457 -45 457 -45 434 159 c 0,40,41
 434 184 434 184 336 289 c 1,42,43
 284 423 284 423 261 582 c 1,44,-1
 182 707 l 1,45,46
 144 710 144 710 73 775 c 1,47,-1
 51 861 l 1,48,-1
 51 883 l 1,49,-1
 94 926 l 1,50,-1
 105 926 l 1,51,52
 154 861 154 861 204 873 c 1,53,-1
 204 894 l 1,54,-1
 329 944 l 1,0,-1
EndSplineSet
EndChar

StartChar: w
Encoding: 119 119 90
Width: 1198
Flags: W
LayerCount: 2
Fore
SplineSet
1116 941 m 1,0,1
 1189 881 1189 881 1189 816 c 1,2,3
 1159 748 1159 748 1087 731 c 1,4,-1
 1044 563 l 1,5,6
 1022 563 1022 563 1000 484 c 1,7,-1
 1011 361 l 1,8,-1
 946 237 l 1,9,-1
 895 103 l 1,10,11
 883 -25 883 -25 782 -25 c 0,12,13
 717 -25 717 -25 612 263 c 1,14,-1
 597 321 l 2,15,16
 592 337 592 337 555 339 c 1,17,-1
 544 328 l 1,18,-1
 544 316 l 1,19,-1
 503 239 l 1,20,-1
 472 127 l 1,21,22
 427 54 427 54 384 -27 c 1,23,-1
 323 -27 l 1,24,25
 240 51 240 51 223 192 c 1,26,-1
 223 204 l 1,27,-1
 197 298 l 2,28,29
 169 406 169 406 169 596 c 1,30,31
 142 804 142 804 55 804 c 1,32,-1
 21 876 l 1,33,-1
 21 888 l 2,34,35
 21 921 21 921 76 927 c 2,36,-1
 212 944 l 1,37,-1
 396 877 l 1,38,-1
 406 865 l 1,39,-1
 406 821 l 1,40,-1
 342 742 l 1,41,-1
 352 619 l 1,42,-1
 298 540 l 1,43,44
 320 439 320 439 352 439 c 1,45,-1
 425 393 l 1,46,47
 467 473 467 473 509 622 c 1,48,49
 554 686 554 686 633 686 c 1,50,51
 721 606 721 606 697 556 c 1,52,-1
 720 450 l 1,53,54
 738 316 738 316 763 316 c 2,55,-1
 774 316 l 1,56,57
 871 333 871 333 871 405 c 1,58,-1
 874 458 l 1,59,60
 871 500 871 500 892 551 c 1,61,62
 838 627 838 627 838 663 c 2,63,-1
 838 686 l 1,64,-1
 849 731 l 1,65,-1
 774 888 l 1,66,-1
 828 921 l 1,67,-1
 925 920 l 1,68,69
 999 899 999 899 1116 941 c 1,0,1
EndSplineSet
EndChar

StartChar: x
Encoding: 120 120 91
Width: 1200
Flags: W
LayerCount: 2
Fore
SplineSet
200 948 m 1,0,-1
 287 905 l 1,1,-1
 393 948 l 1,2,3
 508 903 508 903 508 819 c 1,4,-1
 495 773 l 1,5,-1
 545 681 l 1,6,-1
 591 567 l 1,7,-1
 701 784 l 1,8,9
 639 836 639 836 672 894 c 1,10,11
 724 923 724 923 1048 948 c 1,12,-1
 1067 916 l 1,13,-1
 1067 905 l 2,14,15
 1067 828 1067 828 903 776 c 1,16,-1
 683 517 l 1,17,-1
 739 408 l 1,18,19
 739 338 739 338 816 311 c 1,20,-1
 922 182 l 1,21,-1
 990 192 l 1,22,-1
 1038 192 l 2,23,24
 1125 192 1125 192 1125 30 c 1,25,26
 1084 -12 1084 -12 1048 -12 c 2,27,-1
 720 -1 l 1,28,-1
 672 74 l 1,29,-1
 720 192 l 1,30,31
 641 387 641 387 605 387 c 0,32,33
 555 387 555 387 470 171 c 1,34,-1
 528 63 l 1,35,36
 528 -12 528 -12 268 -12 c 1,37,38
 46 -7 46 -7 46 63 c 2,39,-1
 46 95 l 2,40,41
 46 143 46 143 239 171 c 1,42,43
 264 254 264 254 422 311 c 1,44,45
 457 337 457 337 508 441 c 1,46,47
 508 529 508 529 373 700 c 1,48,49
 310 819 310 819 152 819 c 1,50,51
 113 849 113 849 113 894 c 1,52,-1
 200 948 l 1,0,-1
EndSplineSet
EndChar

StartChar: y
Encoding: 121 121 92
Width: 1200
Flags: W
LayerCount: 2
Fore
SplineSet
497 958 m 1,0,1
 626 935 626 935 626 807 c 1,2,-1
 551 753 l 1,3,-1
 508 753 l 1,4,-1
 475 721 l 1,5,-1
 475 699 l 2,6,7
 475 662 475 662 530 553 c 1,8,-1
 540 510 l 1,9,-1
 540 429 l 1,10,11
 556 386 556 386 572 386 c 1,12,-1
 646 264 l 1,13,14
 724 386 724 386 724 429 c 1,15,-1
 799 591 l 1,16,-1
 849 786 l 1,17,18
 771 820 771 820 702 818 c 1,19,-1
 691 883 l 1,20,21
 713 947 713 947 778 947 c 1,22,23
 853 922 853 922 891 922 c 1,24,-1
 1037 947 l 1,25,-1
 1048 947 l 2,26,27
 1135 947 1135 947 1145 870 c 0,28,29
 1156 793 1156 793 1090 798 c 2,30,-1
 1024 804 l 1,31,32
 907 712 907 712 875 451 c 1,33,34
 832 433 832 433 832 375 c 2,35,-1
 832 299 l 1,36,-1
 756 159 l 2,37,38
 701 56 701 56 701 19 c 1,39,-1
 648 -89 l 1,40,-1
 572 -208 l 1,41,-1
 556 -311 l 1,42,43
 498 -376 498 -376 302 -413 c 1,44,45
 54 -341 54 -341 54 -219 c 2,46,-1
 54 -197 l 2,47,48
 54 -161 54 -161 119 -67 c 1,49,50
 119 -17 119 -17 259 8 c 1,51,52
 378 -42 378 -42 378 -111 c 1,53,54
 270 -254 270 -254 270 -283 c 1,55,-1
 302 -305 l 1,56,-1
 324 -305 l 2,57,58
 464 -305 464 -305 464 -175 c 1,59,60
 486 -175 486 -175 486 -89 c 1,61,62
 562 -9 562 -9 562 29 c 1,63,-1
 537 146 l 1,64,-1
 476 235 l 1,65,66
 410 310 410 310 410 353 c 1,67,-1
 421 451 l 1,68,69
 305 576 305 576 292 721 c 1,70,71
 271 753 271 753 108 785 c 1,72,-1
 86 829 l 1,73,74
 140 939 140 939 173 947 c 1,75,-1
 184 947 l 1,76,77
 270 913 270 913 315 913 c 0,78,79
 353 913 353 913 497 958 c 1,0,1
EndSplineSet
EndChar

StartChar: z
Encoding: 122 122 93
Width: 1197
Flags: W
LayerCount: 2
Fore
SplineSet
244 931 m 1,0,-1
 352 909 l 1,1,-1
 568 920 l 1,2,-1
 762 899 l 1,3,-1
 859 920 l 1,4,-1
 881 920 l 2,5,6
 939 920 939 920 957 877 c 1,7,-1
 957 866 l 2,8,9
 957 760 957 760 719 542 c 1,10,-1
 579 315 l 1,11,12
 498 206 498 206 363 121 c 1,13,-1
 363 99 l 1,14,15
 387 74 387 74 514 56 c 1,16,17
 580 121 580 121 805 121 c 1,18,-1
 849 164 l 1,19,-1
 849 315 l 2,20,21
 849 399 849 399 903 423 c 1,22,-1
 935 423 l 2,23,24
 972 423 972 423 1021 251 c 1,25,-1
 967 153 l 1,26,-1
 989 35 l 1,27,-1
 967 -8 l 1,28,-1
 805 2 l 1,29,-1
 751 2 l 1,30,-1
 471 -41 l 1,31,32
 211 16 211 16 211 56 c 2,33,-1
 211 67 l 2,34,35
 211 157 211 157 341 305 c 1,36,-1
 471 477 l 1,37,38
 471 501 471 501 741 758 c 1,39,40
 730 791 730 791 676 791 c 2,41,-1
 600 791 l 1,42,-1
 471 769 l 1,43,-1
 406 791 l 1,44,-1
 395 791 l 2,45,46
 330 791 330 791 319 553 c 1,47,48
 265 488 265 488 222 488 c 1,49,50
 179 549 179 549 179 650 c 1,51,52
 204 787 204 787 233 834 c 1,53,-1
 222 920 l 1,54,-1
 233 931 l 1,55,-1
 244 931 l 1,0,-1
EndSplineSet
EndChar

StartChar: braceleft
Encoding: 123 123 94
Width: 794
Flags: W
LayerCount: 2
Fore
SplineSet
608 1840 m 1,0,-1
 648 1857 l 1,1,2
 653 1854 653 1854 653 1851 c 0,3,4
 648 1849 648 1849 648 1848 c 0,5,6
 648 1846 648 1846 658 1846 c 0,7,8
 665 1846 665 1846 678 1847 c 1,9,-1
 725 1827 l 1,10,-1
 744 1773 l 1,11,12
 688 1747 688 1747 643 1747 c 1,13,14
 621 1736 621 1736 619 1736 c 2,15,-1
 626 1741 l 1,16,17
 530 1692 530 1692 502 1616 c 1,18,19
 465 1587 465 1587 431 1513 c 1,20,21
 394 1413 394 1413 380 1256 c 1,22,23
 372 1061 372 1061 260 890 c 1,24,25
 335 837 335 837 346 720 c 1,26,-1
 374 509 l 1,27,-1
 428 261 l 1,28,29
 428 239 428 239 475 148 c 1,30,-1
 535 44 l 1,31,-1
 595 21 l 1,32,-1
 601 21 l 1,33,34
 643 2 643 2 661 -26 c 1,35,-1
 721 -56 l 1,36,37
 711 -99 711 -99 638 -113 c 1,38,-1
 535 -88 l 1,39,40
 496 -72 496 -72 477.5 -64.5 c 128,-1,41
 459 -57 459 -57 422 -30 c 1,42,43
 381 7 381 7 298 115 c 1,44,45
 272 157 272 157 264.5 178 c 128,-1,46
 257 199 257 199 251 261 c 1,47,48
 207 380 207 380 188 542 c 1,49,-1
 165 695 l 1,50,-1
 120 810 l 1,51,-1
 50 900 l 1,52,-1
 147 1032 l 1,53,-1
 189 1169 l 1,54,-1
 189 1357 l 1,55,-1
 224 1476 l 1,56,57
 262 1575 262 1575 346 1655 c 1,58,-1
 431 1743 l 1,59,-1
 535 1814 l 1,60,-1
 608 1840 l 1,0,-1
EndSplineSet
EndChar

StartChar: bar
Encoding: 124 124 95
Width: 276
Flags: W
LayerCount: 2
Fore
SplineSet
223 499 m 1,0,1
 212 427 212 427 206 245 c 1,2,3
 209 191 209 191 209 150 c 0,4,5
 209 51 209 51 191 18 c 1,6,7
 164 2 164 2 154 2 c 2,8,-1
 143 2 l 2,9,10
 137 2 137 2 102 6 c 1,11,12
 69 31 69 31 69 202 c 2,13,-1
 69 232 l 1,14,-1
 74 231 l 1,15,-1
 66 373 l 1,16,-1
 70 462 l 2,17,18
 70 501 70 501 66 567 c 1,19,-1
 66 756 l 1,20,-1
 62 795 l 1,21,-1
 63 795 l 1,22,-1
 64 796 l 2,23,24
 70 806 70 806 73 884 c 1,25,-1
 58 1025 l 1,26,-1
 66 1191 l 1,27,-1
 66 1203 l 1,28,-1
 50 1383 l 1,29,-1
 58 1511 l 1,30,-1
 58 1562 l 1,31,-1
 54 1574 l 1,32,-1
 70 1639 l 1,33,34
 70 1776 70 1776 91 1815 c 0,35,36
 99 1829 99 1829 109 1830 c 2,37,-1
 122 1830 l 1,38,39
 132 1825 132 1825 141 1819 c 1,40,-1
 148 1819 l 2,41,42
 199 1819 199 1819 220 1758 c 1,43,-1
 217 1707 l 2,44,45
 213 1633 213 1633 213 1583 c 0,46,47
 213 1509 213 1509 222 1485 c 1,48,-1
 222 1472 l 1,49,-1
 206 1420 l 1,50,-1
 201 1421 l 1,51,-1
 209 1191 l 1,52,-1
 206 1140 l 1,53,-1
 213 1063 l 1,54,-1
 214 1051 l 1,55,-1
 210 1037 l 1,56,-1
 214 896 l 1,57,-1
 226 763 l 1,58,-1
 223 499 l 1,0,1
EndSplineSet
EndChar

StartChar: braceright
Encoding: 125 125 96
Width: 794
Flags: W
LayerCount: 2
Fore
SplineSet
259 1814 m 1,0,-1
 363 1743 l 1,1,-1
 448 1655 l 1,2,3
 532 1575 532 1575 570 1476 c 1,4,-1
 605 1357 l 1,5,-1
 605 1169 l 1,6,-1
 648 1032 l 1,7,-1
 744 900 l 1,8,-1
 675 810 l 1,9,-1
 629 695 l 1,10,-1
 606 542 l 1,11,12
 587 380 587 380 543 261 c 1,13,14
 537 199 537 199 529.5 178 c 128,-1,15
 522 157 522 157 496 115 c 1,16,17
 413 7 413 7 372 -30 c 1,18,19
 335 -57 335 -57 316.5 -64.5 c 128,-1,20
 298 -72 298 -72 259 -88 c 1,21,-1
 156 -113 l 1,22,23
 83 -99 83 -99 73 -56 c 1,24,-1
 133 -26 l 1,25,26
 151 2 151 2 193 21 c 1,27,-1
 199 21 l 1,28,-1
 259 44 l 1,29,-1
 319 148 l 1,30,31
 366 239 366 239 366 261 c 1,32,-1
 420 509 l 1,33,-1
 448 720 l 1,34,35
 459 837 459 837 534 890 c 1,36,37
 422 1061 422 1061 414 1256 c 1,38,39
 400 1413 400 1413 363 1513 c 1,40,41
 329 1587 329 1587 292 1616 c 1,42,43
 264 1692 264 1692 168 1741 c 1,44,-1
 175 1736 l 2,45,46
 173 1736 173 1736 151 1747 c 1,47,48
 106 1747 106 1747 50 1773 c 1,49,-1
 69 1827 l 1,50,-1
 116 1847 l 1,51,52
 129 1846 129 1846 136 1846 c 0,53,54
 146 1846 146 1846 146 1848 c 0,55,56
 146 1849 146 1849 141 1851 c 0,57,58
 141 1854 141 1854 146 1857 c 1,59,-1
 186 1840 l 1,60,-1
 259 1814 l 1,0,-1
EndSplineSet
EndChar

StartChar: asciitilde
Encoding: 126 126 97
Width: 1197
Flags: W
LayerCount: 2
Fore
SplineSet
641 816 m 1,0,1
 757 758 757 758 816 758 c 0,2,3
 838 758 838 758 855 781 c 0,4,5
 911 846 911 846 1126 956 c 1,6,-1
 1147 902 l 1,7,8
 1147 793 1147 793 1086 793 c 1,9,10
 959 652 959 652 756 554 c 1,11,12
 597 637 597 637 462 744 c 1,13,14
 398 706 398 706 398 700 c 1,15,16
 167 615 167 615 111 571 c 1,17,18
 50 571 50 571 50 680 c 1,19,-1
 71 734 l 1,20,21
 182 796 182 796 182 813 c 1,22,23
 207 842 207 842 221.5 859 c 128,-1,24
 236 876 236 876 257 885 c 2,25,-1
 390 950 l 1,26,-1
 493 951 l 1,27,28
 531 925 531 925 558 896 c 0,29,30
 590 857 590 857 641 816 c 1,0,1
EndSplineSet
EndChar

StartChar: cent
Encoding: 162 162 132
Width: 1200
Flags: W
LayerCount: 2
Fore
SplineSet
758 1405 m 0,0,1
 814 1405 814 1405 842 1249 c 1,2,-1
 749 1181 l 1,3,-1
 729 1088 l 1,4,-1
 693 992 l 1,5,-1
 693 980 l 2,6,7
 693 946 693 946 885 896 c 1,8,9
 895 859 895 859 1029 812 c 1,10,11
 1077 722 1077 722 1077 656 c 0,12,13
 1077 634 1077 634 1017 584 c 1,14,-1
 957 596 l 1,15,-1
 906 612 l 1,16,17
 777 793 777 793 678 805 c 1,18,-1
 681 752 l 1,19,20
 609 709 609 709 609 608 c 2,21,-1
 609 560 l 1,22,-1
 621 500 l 1,23,24
 621 298 621 298 513 176 c 1,25,26
 477 176 477 176 465 320 c 1,27,-1
 525 512 l 1,28,-1
 525 680 l 1,29,-1
 549 812 l 1,30,-1
 549 824 l 2,31,32
 549 851 549 851 489 860 c 1,33,34
 321 745 321 745 321 668 c 1,35,-1
 273 563 l 1,36,-1
 273 476 l 1,37,-1
 273 464 l 2,38,39
 273 283 273 283 381 224 c 1,40,41
 381 176 381 176 549 20 c 1,42,-1
 561 20 l 1,43,44
 849 139 849 139 874 222 c 1,45,-1
 909 320 l 1,46,-1
 921 320 l 1,47,48
 1017 277 1017 277 1017 203 c 0,49,50
 1021 114 1021 114 949 73 c 1,51,-1
 937 73 l 1,52,-1
 837 44 l 1,53,-1
 573 -40 l 1,54,-1
 561 -52 l 1,55,-1
 537 -52 l 1,56,57
 488 8 488 8 333 32 c 1,58,59
 129 199 129 199 129 320 c 1,60,-1
 141 428 l 1,61,-1
 117 548 l 1,62,-1
 261 752 l 1,63,64
 261 856 261 856 501 956 c 1,65,66
 558 956 558 956 602 1093 c 1,67,-1
 633 1208 l 1,68,-1
 674 1297 l 1,69,70
 674 1405 674 1405 758 1405 c 0,0,1
453 -100 m 2,71,-1
 477 -100 l 1,72,-1
 501 -124 l 1,73,-1
 501 -148 l 1,74,75
 472 -412 472 -412 429 -412 c 1,76,77
 381 -395 381 -395 381 -304 c 0,78,79
 389 -100 389 -100 453 -100 c 2,71,-1
EndSplineSet
EndChar

StartChar: germandbls
Encoding: 223 223 137
Width: 1200
Flags: W
LayerCount: 2
Fore
SplineSet
661 991 m 1,0,1
 747 1079 747 1079 694 1207 c 1,2,3
 602 1287 602 1287 502 1287 c 1,4,5
 462 1320 462 1320 351 1261 c 1,6,7
 292 1174 292 1174 326.5 1129 c 128,-1,8
 361 1084 361 1084 274 859 c 1,9,10
 388 563 388 563 338 412 c 1,11,-1
 344 263 l 1,12,-1
 349 114 l 1,13,-1
 391 122 l 1,14,15
 449 122 449 122 467 79 c 1,16,-1
 467 58 l 1,17,18
 463 -19 463 -19 398 -26 c 1,19,-1
 319 -11 l 1,20,-1
 319 -21 l 1,21,-1
 211 -11 l 1,22,-1
 200 0 l 1,23,24
 75 -16 75 -16 75 25 c 1,25,-1
 59 90 l 1,26,27
 100 126 100 126 103 118 c 1,28,-1
 195 118 l 1,29,30
 190 147 190 147 118 161 c 1,31,-1
 141 329 l 1,32,-1
 141 373 l 1,33,-1
 119 503 l 1,34,-1
 119 578 l 1,35,-1
 151 886 l 1,36,37
 108 944 108 944 117 1082 c 1,38,-1
 152 1137 l 1,39,-1
 119 1206 l 1,40,41
 217 1411 217 1411 421 1411 c 1,42,-1
 465 1432 l 1,43,-1
 541 1422 l 1,44,-1
 549 1338 l 1,45,-1
 616 1412 l 1,46,47
 767 1392 767 1392 767 1303 c 1,48,-1
 821 1260 l 1,49,-1
 863 1193 l 1,50,51
 931 1025 931 1025 744 881 c 1,52,53
 592 747 592 747 765 695 c 1,54,-1
 861 678 l 1,55,-1
 911 678 l 1,56,57
 1002 651 1002 651 1123 528 c 1,58,59
 1162 422 1162 422 1137 170 c 1,60,61
 1085 9 1085 9 995 -3 c 1,62,-1
 950 -4 l 1,63,-1
 942 -4 l 1,64,65
 889 -27 889 -27 865 -27 c 0,66,67
 782 -27 782 -27 690 59 c 1,68,-1
 621 22 l 1,69,70
 595 68 595 68 583 145 c 1,71,-1
 591 320 l 1,72,-1
 591 370 l 2,73,74
 591 437 591 437 632 404 c 1,75,76
 688 404 688 404 708 230 c 1,77,-1
 719 164 l 1,78,79
 755 130 755 130 813 130 c 0,80,81
 971 120 971 120 982 217 c 1,82,83
 1005 286 1005 286 1032 398 c 1,84,-1
 957 515 l 1,85,-1
 926 503 l 1,86,87
 911 526 911 526 776 550 c 1,88,89
 661 600 661 600 591 633 c 1,90,91
 525 726 525 726 510 774 c 1,92,-1
 544 828 l 1,93,94
 551 916 551 916 661 991 c 1,0,1
EndSplineSet
EndChar

StartChar: acute
Encoding: 180 180 141
Width: 1195
Flags: W
LayerCount: 2
Fore
SplineSet
504 1149 m 1,1,-1
 505 1185 l 1,2,-1
 521 1211 l 1,3,-1
 591 1303 l 1,4,-1
 602 1326 l 1,5,6
 661 1369 661 1369 673 1421 c 1,7,-1
 722 1434 l 1,8,-1
 731 1433 l 1,9,10
 796 1394 796 1394 840 1379 c 1,11,-1
 845 1373 l 1,12,-1
 836 1303 l 1,13,-1
 828 1291 l 1,14,15
 800 1260 800 1260 754 1252 c 1,16,-1
 749 1222 l 1,17,18
 691 1183 691 1183 684 1170 c 1,19,-1
 627 1144 l 1,20,-1
 573 1125 l 1,21,0
 546 1107 546 1107 504 1149 c 1,1,-1
EndSplineSet
EndChar

StartChar: dieresis
Encoding: 168 168 142
Width: 1200
Flags: W
LayerCount: 2
Fore
SplineSet
883 1355 m 2,0,-1
 913 1325 l 1,1,2
 932 1275 932 1275 907 1162 c 1,3,-1
 876 1131 l 1,4,5
 722 1067 722 1067 645 1168 c 1,6,7
 587 1225 587 1225 672 1371 c 1,8,9
 807 1430 807 1430 883 1355 c 2,0,-1
414 1122 m 1,10,11
 333 1108 333 1108 239 1139 c 1,12,-1
 196 1185 l 1,13,14
 186 1312 186 1312 239 1365 c 1,15,-1
 267 1380 l 2,16,17
 356 1428 356 1428 452 1333 c 1,18,19
 510 1174 510 1174 414 1122 c 1,10,11
EndSplineSet
EndChar

StartChar: questiondown
Encoding: 191 191 162
Width: 1201
Flags: W
LayerCount: 2
Fore
SplineSet
468 -37 m 1,0,-1
 444 -37 l 1,1,2
 340 67 340 67 228 95 c 1,3,-1
 228 119 l 1,4,-1
 120 203 l 1,5,6
 72 266 72 266 72 335 c 2,7,-1
 72 383 l 2,8,9
 72 419 72 419 120 419 c 1,10,-1
 120 431 l 2,11,12
 120 471 120 471 204 527 c 1,13,14
 260 546 260 546 300 683 c 1,15,16
 552 799 552 799 552 923 c 1,17,18
 630 995 630 995 684 995 c 2,19,-1
 720 995 l 1,20,-1
 756 959 l 1,21,22
 756 695 756 695 636 695 c 1,23,24
 551 546 551 546 408 491 c 1,25,-1
 396 431 l 1,26,-1
 396 359 l 2,27,28
 396 264 396 264 636 143 c 1,29,-1
 696 143 l 1,30,-1
 720 179 l 1,31,-1
 720 191 l 1,32,-1
 696 287 l 1,33,34
 748 447 748 447 768 455 c 2,35,-1
 996 503 l 1,36,-1
 1020 503 l 2,37,38
 1080 503 1080 503 1128 263 c 1,39,-1
 1128 239 l 2,40,41
 1128 155 1128 155 912 71 c 1,42,43
 857 -3 857 -3 720 -25 c 1,44,-1
 552 11 l 1,45,-1
 468 -37 l 1,0,-1
689 1201 m 1,46,-1
 665 1201 l 1,47,-1
 545 1237 l 1,48,-1
 461 1213 l 1,49,50
 444 1215 444 1215 389 1357 c 1,51,-1
 389 1393 l 1,52,-1
 497 1453 l 1,53,54
 578 1549 578 1549 701 1549 c 1,55,56
 833 1500 833 1500 833 1369 c 0,57,58
 833 1294 833 1294 689 1201 c 1,46,-1
EndSplineSet
EndChar

StartChar: exclamdown
Encoding: 161 161 163
Width: 1200
Flags: W
LayerCount: 2
Fore
SplineSet
661 -31 m 1,0,-1
 505 52 l 1,1,2
 425 78 425 78 425 121 c 2,3,-1
 425 168 l 1,4,5
 467 279 467 279 488 513 c 1,6,-1
 504 575 l 1,7,8
 504 639 504 639 565 775 c 1,9,-1
 534 853 l 1,10,11
 534 916 534 916 618 975 c 1,12,-1
 697 925 l 1,13,14
 723 847 723 847 746 738 c 1,15,-1
 726 662 l 1,16,-1
 773 521 l 1,17,-1
 773 318 l 1,18,-1
 805 224 l 1,19,-1
 805 99 l 2,20,21
 803 -31 803 -31 661 -31 c 1,0,-1
807 1351 m 1,23,-1
 760 1235 l 1,24,25
 659 1134 659 1134 577 1174 c 2,26,-1
 568 1178 l 1,27,28
 432 1243 432 1243 442 1433 c 1,29,-1
 462 1477 l 1,30,31
 570 1547 570 1547 630 1547 c 2,32,-1
 632 1547 l 1,33,-1
 715 1526 l 1,34,22
 741 1464 741 1464 807 1351 c 1,23,-1
EndSplineSet
EndChar

StartChar: quotedblleft
Encoding: 8220 8220 179
Width: 1201
Flags: W
LayerCount: 2
Fore
SplineSet
799 1576 m 1,0,-1
 902 1502 l 1,1,2
 963 1482 963 1482 963 1449 c 2,3,-1
 963 1413 l 1,4,5
 890 1328 890 1328 890 1178 c 1,6,-1
 878 1130 l 1,7,8
 878 1081 878 1081 895 989 c 1,9,-1
 919 929 l 1,10,11
 919 881 919 881 816 794 c 1,12,-1
 756 832 l 1,13,14
 736 892 736 892 719 976 c 1,15,-1
 734 1034 l 1,16,-1
 698 1142 l 1,17,-1
 698 1298 l 1,18,-1
 674 1370 l 1,19,-1
 674 1466 l 1,20,21
 691 1576 691 1576 799 1576 c 1,0,-1
307 1591 m 1,22,-1
 319 1591 l 1,23,24
 383 1546 383 1546 555 1516 c 1,25,-1
 567 1504 l 1,26,-1
 567 1468 l 1,27,28
 529 1380 529 1380 473 1338 c 1,29,-1
 461 1290 l 1,30,-1
 461 1074 l 1,31,-1
 485 1074 l 1,32,-1
 443 1054 l 1,33,-1
 453 1028 l 1,34,-1
 465 1028 l 1,35,-1
 501 992 l 1,36,-1
 501 980 l 1,37,-1
 465 944 l 1,38,-1
 457 885 l 1,39,-1
 423 832 l 1,40,-1
 363 796 l 1,41,42
 255 796 255 796 255 1012 c 1,43,-1
 219 1132 l 1,44,45
 223 1160 223 1160 291 1216 c 1,46,-1
 315 1264 l 1,47,48
 255 1432 255 1432 255 1516 c 1,49,-1
 259 1543 l 1,50,-1
 307 1591 l 1,22,-1
EndSplineSet
EndChar

StartChar: quotedblright
Encoding: 8221 8221 180
Width: 1201
Flags: W
LayerCount: 2
Fore
SplineSet
799 1576 m 1,0,-1
 902 1502 l 1,1,2
 963 1482 963 1482 963 1449 c 2,3,-1
 963 1413 l 1,4,5
 890 1328 890 1328 890 1178 c 1,6,-1
 878 1130 l 1,7,8
 878 1081 878 1081 895 989 c 1,9,-1
 919 929 l 1,10,11
 919 881 919 881 816 794 c 1,12,-1
 756 832 l 1,13,14
 736 892 736 892 719 976 c 1,15,-1
 734 1034 l 1,16,-1
 698 1142 l 1,17,-1
 698 1298 l 1,18,-1
 674 1370 l 1,19,-1
 674 1466 l 1,20,21
 691 1576 691 1576 799 1576 c 1,0,-1
307 1591 m 1,22,-1
 319 1591 l 1,23,24
 383 1546 383 1546 555 1516 c 1,25,-1
 567 1504 l 1,26,-1
 567 1468 l 1,27,28
 529 1380 529 1380 473 1338 c 1,29,-1
 461 1290 l 1,30,-1
 461 1074 l 1,31,-1
 485 1074 l 1,32,-1
 443 1054 l 1,33,-1
 453 1028 l 1,34,-1
 465 1028 l 1,35,-1
 501 992 l 1,36,-1
 501 980 l 1,37,-1
 465 944 l 1,38,-1
 457 885 l 1,39,-1
 423 832 l 1,40,-1
 363 796 l 1,41,42
 255 796 255 796 255 1012 c 1,43,-1
 219 1132 l 1,44,45
 223 1160 223 1160 291 1216 c 1,46,-1
 315 1264 l 1,47,48
 255 1432 255 1432 255 1516 c 1,49,-1
 259 1543 l 1,50,-1
 307 1591 l 1,22,-1
EndSplineSet
EndChar

StartChar: quoteleft
Encoding: 8216 8216 181
Width: 1201
Flags: W
LayerCount: 2
Fore
SplineSet
615 1577 m 2,0,-1
 632 1577 l 1,1,-1
 749 1461 l 1,2,-1
 749 1441 l 1,3,-1
 707 1383 l 1,4,-1
 707 1373 l 1,5,6
 732 1338 732 1338 732 1306 c 1,7,8
 682 1247 682 1247 682 1209 c 0,9,10
 682 831 682 831 640 831 c 1,11,-1
 607 821 l 1,12,13
 542 821 542 821 473 928 c 1,14,-1
 482 1015 l 1,15,-1
 440 1470 l 1,16,17
 475 1577 475 1577 615 1577 c 2,0,-1
EndSplineSet
EndChar

StartChar: quoteright
Encoding: 8217 8217 182
Width: 1201
Flags: W
LayerCount: 2
Fore
SplineSet
615 1577 m 2,0,-1
 632 1577 l 1,1,-1
 749 1461 l 1,2,-1
 749 1441 l 1,3,-1
 707 1383 l 1,4,-1
 707 1373 l 1,5,6
 732 1338 732 1338 732 1306 c 1,7,8
 682 1247 682 1247 682 1209 c 0,9,10
 682 831 682 831 640 831 c 1,11,-1
 607 821 l 1,12,13
 542 821 542 821 473 928 c 1,14,-1
 482 1015 l 1,15,-1
 440 1470 l 1,16,17
 475 1577 475 1577 615 1577 c 2,0,-1
EndSplineSet
EndChar

StartChar: Euro
Encoding: 8364 8364 188
Width: 1200
Flags: W
LayerCount: 2
Fore
SplineSet
257 540 m 1,0,-1
 268 460 l 1,1,-1
 325 392 l 1,2,3
 514 113 514 113 584 121 c 0,4,5
 591 122 591 122 602 125 c 1,6,-1
 640 109 l 1,7,-1
 722 146 l 1,8,9
 784 146 784 146 795 182 c 1,10,-1
 830 197 l 1,11,12
 879 242 879 242 879 272 c 1,13,14
 919 300 919 300 890 385 c 1,15,-1
 954 447 l 1,16,17
 1074 447 1074 447 1073 411 c 1,18,-1
 1095 327 l 1,19,20
 1031 327 1031 327 998 133 c 1,21,22
 919 33 919 33 805 3 c 1,23,-1
 635 14 l 1,24,-1
 602 5 l 1,25,-1
 602 -9 l 1,26,-1
 600 -9 l 1,27,28
 548 -15 548 -15 453 70 c 1,29,-1
 345 70 l 1,30,31
 223 203 223 203 196 281 c 1,32,33
 120 419 120 419 119 464 c 2,34,-1
 116 566 l 1,35,36
 67 581 67 581 67 628 c 0,37,38
 67 659 67 659 113 694 c 1,39,-1
 85 869 l 1,40,-1
 85 870 l 1,41,-1
 71 903 l 1,42,-1
 86 916 l 1,43,44
 93 1056 93 1056 161 1213 c 1,45,-1
 360 1440 l 1,46,47
 492 1488 492 1488 550 1498 c 1,48,-1
 602 1490 l 1,49,-1
 602 1504 l 1,50,-1
 624 1504 l 1,51,52
 664 1494 664 1494 826 1478 c 1,53,54
 848 1423 848 1423 873 1418 c 1,55,-1
 958 1466 l 1,56,-1
 994 1466 l 1,57,58
 1065 1424 1065 1424 1063 1346 c 1,59,-1
 1048 1238 l 1,60,-1
 1068 1070 l 1,61,62
 1050 1046 1050 1046 981 1046 c 256,63,64
 912 1046 912 1046 890 1222 c 1,65,66
 864 1226 864 1226 798 1322 c 1,67,68
 726 1392 726 1392 607 1366 c 1,69,-1
 542 1376 l 1,70,-1
 388 1251 l 1,71,72
 321 1185 321 1185 302 1183 c 1,73,74
 270 1073 270 1073 245 969 c 1,75,76
 285 970 285 970 338 970 c 2,77,-1
 420 968 l 1,78,79
 441 930 441 930 484 932 c 1,80,-1
 618 962 l 1,81,-1
 620 972 l 1,82,-1
 731 1005 l 1,83,-1
 731 993 l 1,84,-1
 776 984 l 1,85,-1
 811 994 l 1,86,87
 882 998 882 998 920 943 c 1,88,-1
 920 908 l 2,89,90
 920 871 920 871 811 844 c 1,91,-1
 701 850 l 1,92,-1
 583 816 l 1,93,-1
 559 845 l 1,94,-1
 477 840 l 1,95,-1
 351 848 l 1,96,-1
 345 818 l 1,97,-1
 285 838 l 2,98,99
 286 840 286 840 286 841 c 0,100,101
 280 843 280 843 272 843 c 0,102,103
 253 844 253 844 224 838 c 1,104,105
 216 775 216 775 217 739 c 1,106,-1
 231 682 l 1,107,108
 241 681 241 681 251 680 c 1,109,110
 251 685 251 685 252 690 c 1,111,-1
 333 712 l 1,112,-1
 332 708 l 1,113,114
 419 696 419 696 574 682 c 1,115,-1
 675 687 l 1,116,-1
 675 686 l 2,117,118
 678 687 678 687 680 687 c 0,119,120
 741 698 741 698 801 684 c 1,121,-1
 886 633 l 1,122,-1
 886 622 l 2,123,124
 886 591 886 591 811 544 c 1,125,-1
 702 562 l 2,126,127
 699 562 699 562 696 561 c 2,128,-1
 534 532 l 1,129,-1
 540 548 l 1,130,131
 481 554 481 554 441 544 c 1,132,133
 377 577 377 577 330 561 c 1,134,-1
 327 550 l 1,135,-1
 257 540 l 1,0,-1
EndSplineSet
EndChar

StartChar: dotlessi
Encoding: 305 305 213
Width: 1200
Flags: W
LayerCount: 2
Fore
SplineSet
646 951 m 1,0,1
 722 919 722 919 722 843 c 1,2,-1
 700 746 l 1,3,-1
 711 616 l 1,4,5
 679 564 679 564 679 498 c 1,6,-1
 711 379 l 1,7,8
 679 323 679 323 679 271 c 0,9,10
 679 178 679 178 743 130 c 1,11,-1
 819 130 l 2,12,13
 841 130 841 130 841 184 c 1,14,-1
 981 217 l 1,15,16
 1027 217 1027 217 1089 76 c 1,17,-1
 1089 66 l 2,18,19
 1089 -20 1089 -20 992 -20 c 1,20,-1
 646 22 l 1,21,-1
 452 -31 l 1,22,-1
 344 1 l 1,23,-1
 311 1 l 1,24,-1
 182 -31 l 1,25,26
 144 -18 144 -18 117 66 c 1,27,28
 117 120 117 120 279 152 c 1,29,30
 279 202 279 202 463 228 c 1,31,-1
 538 206 l 1,32,33
 581 217 581 217 581 260 c 1,34,35
 495 304 495 304 495 368 c 2,36,-1
 495 411 l 1,37,-1
 506 530 l 1,38,-1
 484 638 l 1,39,-1
 495 703 l 1,40,41
 495 800 495 800 171 800 c 1,42,43
 128 846 128 846 128 886 c 1,44,-1
 171 930 l 1,45,-1
 182 930 l 1,46,-1
 322 897 l 1,47,-1
 495 908 l 1,48,-1
 592 876 l 1,49,50
 620 945 620 945 646 951 c 1,0,1
EndSplineSet
EndChar

StartChar: circumflex
Encoding: 710 710 214
Width: 1193
Flags: W
LayerCount: 2
Fore
SplineSet
565 1351 m 0,0,1
 568 1352 568 1352 572 1352 c 2,2,-1
 664 1339 l 1,3,4
 713 1340 713 1340 722 1328 c 2,5,-1
 731 1315 l 1,6,7
 722 1303 722 1303 760 1250 c 1,8,-1
 763 1232 l 1,9,10
 775 1215 775 1215 811 1184 c 1,11,-1
 844 1166 l 2,12,13
 846 1163 846 1163 846 1159 c 0,14,15
 846 1141 846 1141 804 1106 c 1,16,-1
 751 1112 l 1,17,18
 722 1130 722 1130 688 1158 c 1,19,-1
 684 1180 l 1,20,-1
 631 1213 l 1,21,-1
 594 1265 l 1,22,-1
 589 1262 l 1,23,-1
 558 1234 l 1,24,-1
 498 1166 l 1,25,-1
 463 1158 l 1,26,-1
 472 1122 l 1,27,-1
 433 1108 l 1,28,-1
 381 1104 l 1,29,30
 339 1112 339 1112 339 1139 c 0,31,32
 339 1161 339 1161 365 1194 c 1,33,-1
 375 1241 l 1,34,35
 385 1250 385 1250 449 1260 c 1,36,-1
 479 1273 l 1,37,38
 463 1313 463 1313 486 1342 c 1,39,-1
 497 1351 l 1,40,-1
 545 1361 l 1,41,-1
 553 1359 l 2,42,43
 558 1355 558 1355 565 1351 c 0,0,1
EndSplineSet
EndChar

StartChar: tilde
Encoding: 732 732 215
Width: 1200
Flags: W
LayerCount: 2
Fore
SplineSet
523 1204 m 1,0,1
 508 1214 508 1214 489 1221 c 1,2,3
 365 1205 365 1205 398 1117 c 1,4,-1
 364 1100 l 1,5,-1
 278 1134 l 1,6,-1
 268 1159 l 2,7,8
 254 1203 254 1203 290 1266 c 1,9,10
 323 1292 323 1292 385 1322 c 1,11,-1
 437 1326 l 1,12,13
 587 1331 587 1331 662 1213 c 1,14,15
 677 1204 677 1204 696 1196 c 1,16,17
 820 1212 820 1212 787 1302 c 1,18,-1
 821 1319 l 1,19,-1
 839 1323 l 1,20,21
 875 1340 875 1340 905 1283 c 2,22,-1
 917 1259 l 1,23,24
 931 1215 931 1215 886 1165 c 1,25,26
 854 1140 854 1140 791 1109 c 1,27,-1
 740 1105 l 1,28,29
 673 1104 673 1104 596 1133 c 1,30,31
 528 1185 528 1185 523 1204 c 1,0,1
EndSplineSet
EndChar

StartChar: ring
Encoding: 730 730 219
Width: 1198
Flags: W
LayerCount: 2
Fore
SplineSet
622 1421 m 1,0,-1
 654 1418 l 1,1,-1
 672 1407 l 1,2,-1
 694 1410 l 1,3,4
 769 1356 769 1356 769 1279 c 2,5,-1
 769 1257 l 2,6,7
 769 1198 769 1198 748 1176 c 1,8,9
 704 1104 704 1104 632 1104 c 2,10,-1
 578 1104 l 1,11,12
 509 1122 509 1122 488 1150 c 1,13,14
 458 1178 458 1178 441 1262 c 1,15,-1
 441 1277 l 2,16,17
 441 1283 441 1283 443 1306 c 1,18,-1
 446 1309 l 1,19,-1
 446 1313 l 1,20,-1
 448 1334 l 1,21,22
 465 1369 465 1369 482 1377 c 0,23,24
 502 1390 502 1390 502 1403 c 1,25,-1
 520 1421 l 1,26,27
 539 1429 539 1429 565 1429 c 0,28,29
 590 1429 590 1429 622 1421 c 1,0,-1
515 1261 m 2,30,31
 515 1254 515 1254 521 1218 c 1,32,-1
 521 1212 l 1,33,-1
 545 1183 l 1,34,35
 569 1168 569 1168 581 1168 c 1,36,-1
 596 1162 l 1,37,-1
 623 1171 l 1,38,-1
 626 1171 l 2,39,40
 655 1169 655 1169 677 1193 c 0,41,42
 696 1219 696 1219 684 1247 c 1,43,-1
 684 1249 l 1,44,45
 695 1270 695 1270 684 1287 c 1,46,47
 668 1347 668 1347 623 1357 c 1,48,49
 539 1348 539 1348 521 1311 c 1,50,-1
 515 1261 l 2,30,31
EndSplineSet
EndChar

StartChar: cedilla
Encoding: 184 184 220
Width: 1195
Flags: W
LayerCount: 2
Fore
SplineSet
526 -373 m 1,0,1
 457 -325 457 -325 478 -291 c 1,2,-1
 483 -273 l 1,3,-1
 504 -241 l 1,4,5
 614 -298 614 -298 634 -170 c 1,6,7
 592 -72 592 -72 517 -46 c 0,8,9
 468 -29 468 -29 518 14 c 1,10,11
 527 46 527 46 582 31 c 2,12,-1
 620 18 l 2,13,14
 645 9 645 9 693 -28 c 1,15,16
 768 -140 768 -140 765 -251 c 1,17,-1
 760 -306 l 1,18,19
 722 -364 722 -364 691 -393 c 1,20,21
 612 -416 612 -416 557 -390 c 2,22,-1
 526 -373 l 1,0,1
EndSplineSet
EndChar

StartChar: onehalf
Encoding: 189 189 242
Width: 1200
Flags: W
LayerCount: 2
Fore
SplineSet
372 1630 m 1,0,-1
 473 1610 l 1,1,-1
 503 1620 l 1,2,3
 725 1620 725 1620 725 1510 c 1,4,-1
 714 1301 l 1,5,-1
 725 1251 l 1,6,-1
 704 1161 l 1,7,-1
 725 1002 l 1,8,-1
 725 932 l 1,9,10
 735 882 735 882 825 882 c 1,11,12
 926 856 926 856 926 812 c 0,13,14
 926 738 926 738 745 732 c 1,15,-1
 735 732 l 1,16,17
 301 746 301 746 301 822 c 2,18,-1
 301 852 l 1,19,20
 320 888 320 888 362 902 c 1,21,-1
 453 892 l 1,22,-1
 463 892 l 1,23,24
 533 935 533 935 533 1031 c 1,25,-1
 523 1161 l 1,26,-1
 533 1351 l 1,27,-1
 533 1411 l 2,28,29
 533 1460 533 1460 483 1480 c 1,30,-1
 382 1480 l 1,31,32
 332 1506 332 1506 332 1560 c 256,33,34
 332 1614 332 1614 372 1630 c 1,0,-1
221 682 m 1,35,-1
 845 642 l 1,36,-1
 966 662 l 1,37,38
 1057 649 1057 649 1057 553 c 1,39,40
 1020 523 1020 523 986 523 c 1,41,-1
 805 563 l 1,42,-1
 493 573 l 1,43,-1
 352 533 l 1,44,-1
 291 533 l 1,45,46
 100 565 100 565 100 603 c 0,47,48
 100 642 100 642 221 682 c 1,35,-1
594 473 m 1,49,-1
 664 473 l 1,50,51
 936 459 936 459 936 363 c 1,52,-1
 986 184 l 1,53,54
 911 -5 911 -5 735 -5 c 1,55,-1
 644 -45 l 1,56,-1
 543 -25 l 1,57,58
 432 -74 432 -74 432 -155 c 2,59,-1
 432 -165 l 2,60,61
 432 -217 432 -217 654 -225 c 1,62,63
 707 -285 707 -285 755 -285 c 0,64,65
 789 -285 789 -285 906 -185 c 1,66,-1
 926 -185 l 1,67,68
 966 -201 966 -201 966 -255 c 0,69,70
 966 -342 966 -342 765 -405 c 1,71,72
 672 -337 672 -337 543 -305 c 1,73,74
 541 -285 541 -285 473 -275 c 1,75,-1
 463 -275 l 2,76,77
 420 -275 420 -275 301 -375 c 1,78,-1
 261 -375 l 1,79,80
 201 -343 201 -343 201 -265 c 0,81,82
 201 -151 201 -151 352 -15 c 1,83,84
 352 17 352 17 624 44 c 1,85,86
 691 57 691 57 755 124 c 1,87,88
 802 124 802 124 845 204 c 1,89,90
 739 363 739 363 624 363 c 2,91,-1
 523 363 l 2,92,93
 443 363 443 363 382 204 c 1,94,-1
 352 184 l 1,95,-1
 322 184 l 2,96,97
 262 184 262 184 241 243 c 1,98,99
 344 433 344 433 422 433 c 1,100,-1
 594 473 l 1,49,-1
EndSplineSet
EndChar

StartChar: onequarter
Encoding: 188 188 243
Width: 1201
Flags: W
LayerCount: 2
Fore
SplineSet
249 698 m 1,0,-1
 270 698 l 1,1,-1
 465 638 l 1,2,-1
 558 648 l 1,3,-1
 650 628 l 1,4,-1
 784 658 l 1,5,-1
 877 648 l 1,6,-1
 1021 658 l 1,7,-1
 1062 608 l 1,8,-1
 1062 588 l 1,9,10
 1036 539 1036 539 980 539 c 2,11,-1
 640 549 l 1,12,-1
 187 529 l 1,13,14
 105 543 105 543 105 588 c 1,15,16
 115 634 115 634 249 698 c 1,0,-1
455 450 m 1,17,-1
 517 390 l 1,18,19
 517 193 517 193 434 122 c 1,20,-1
 434 72 l 1,21,22
 471 13 471 13 558 13 c 2,23,-1
 599 13 l 2,24,25
 677 13 677 13 702 162 c 1,26,-1
 764 202 l 1,27,28
 794 202 794 202 825 142 c 1,29,30
 784 82 784 82 784 53 c 0,31,32
 784 18 784 18 897 3 c 1,33,-1
 1041 63 l 1,34,-1
 1052 63 l 1,35,-1
 1083 33 l 1,36,37
 1083 -55 1083 -55 836 -175 c 1,38,39
 815 -191 815 -191 794 -374 c 1,40,-1
 733 -404 l 1,41,42
 684 -404 684 -404 671 -314 c 1,43,-1
 692 -165 l 1,44,45
 627 -76 627 -76 517 -76 c 1,46,-1
 259 -145 l 1,47,48
 167 -133 167 -133 167 -56 c 1,49,50
 195 16 195 16 383 301 c 1,51,52
 383 450 383 450 445 450 c 2,53,-1
 455 450 l 1,17,-1
585 864 m 1,54,55
 570 881 570 881 552 910 c 1,56,-1
 562 1065 l 1,57,-1
 552 1184 l 1,58,59
 603 1221 603 1221 603 1283 c 0,60,61
 591 1521 591 1521 500 1521 c 1,62,-1
 428 1512 l 1,63,64
 358 1540 358 1540 336 1581 c 1,65,66
 336 1598 336 1598 397 1631 c 1,67,68
 685 1631 685 1631 685 1551 c 1,69,-1
 675 1472 l 1,70,-1
 696 1363 l 1,71,-1
 665 1194 l 1,72,-1
 737 1114 l 1,73,74
 737 1091 737 1091 655 1065 c 1,75,-1
 655 1045 l 1,76,-1
 675 890 l 1,77,78
 671 877 671 877 665 868 c 1,79,-1
 706 856 l 1,80,-1
 809 866 l 1,81,82
 953 853 953 853 953 817 c 0,83,84
 953 770 953 770 809 757 c 1,85,-1
 747 777 l 1,86,87
 486 767 486 767 408 747 c 1,88,89
 325 755 325 755 325 827 c 1,90,91
 356 856 356 856 397 856 c 1,92,-1
 397 866 l 1,93,-1
 469 856 l 1,94,-1
 552 856 l 1,95,-1
 585 864 l 1,54,55
EndSplineSet
EndChar

